<svg width="39" height="39" viewBox="0 0 39 39" fill="none" xmlns="http://www.w3.org/2000/svg">
<path fill-rule="evenodd" clip-rule="evenodd" d="M38.2166 16.607C37.4671 15.9796 36.5009 15.6037 35.4489 15.6037C34.5132 15.6037 33.6499 15.901 32.9419 16.4059C31.4063 10.2852 25.8448 5.74089 19.2448 5.74089C11.3757 5.74089 4.98399 12.2003 5.12839 20.0867C5.25764 27.0885 10.6043 32.763 17.3732 33.7487C17.3687 33.8208 17.3667 33.893 17.3667 33.9671V36.8919C17.3667 37.6463 17.5619 38.3523 17.9014 38.9684C12.8659 38.6233 8.35845 36.3367 5.12614 32.8548C1.74075 29.2041 -0.248878 24.2464 0.0250598 18.8323C0.520504 9.05897 8.45686 1.14401 18.2541 0.65202C23.6796 0.378752 28.654 2.35707 32.3069 5.74089C35.3569 8.55859 37.4935 12.3468 38.2166 16.607" fill="#2ADB86"/>
</svg>
