<svg width="24" height="24" viewBox="0 0 24 24" fill="none" xmlns="http://www.w3.org/2000/svg">
<path fill-rule="evenodd" clip-rule="evenodd" d="M23.1724 12.4138C23.1724 6.01595 17.9841 0.827637 11.5862 0.827637C5.18831 0.827637 0 6.01595 0 12.4138C0 18.8117 5.18831 24 11.5862 24C11.6543 24 11.722 23.9986 11.7899 23.9974V14.978H9.30065V12.0771H11.7899V9.94232C11.7899 7.46649 13.3013 6.119 15.5097 6.119C16.5673 6.119 17.4764 6.19784 17.7414 6.23305V8.82054H16.2185C15.017 8.82054 14.7844 9.39161 14.7844 10.2294V12.0771H17.6572L17.2828 14.978H14.7844V23.5524C19.6272 22.1641 23.1724 17.7024 23.1724 12.4138Z" fill="white"/>
</svg>
