<svg width="550" height="420" viewBox="0 0 550 420" fill="none" xmlns="http://www.w3.org/2000/svg">
<circle cx="275.623" cy="209.911" r="209.911" fill="#2ADB86"/>
<path d="M349.052 53H415.722C419.663 53.0011 423.565 53.7785 427.206 55.2876C430.846 56.7968 434.154 59.0082 436.94 61.7957C439.725 64.5831 441.935 67.892 443.442 71.5334C444.949 75.1747 445.724 79.0773 445.723 83.0182C445.723 90.975 442.562 98.6059 436.936 104.232C431.31 109.859 423.679 113.019 415.722 113.019H115.198C110.169 113.018 105.188 114.008 100.54 115.932C95.8932 117.857 91.6706 120.678 88.114 124.235C84.5573 127.791 81.7362 132.014 79.8119 136.661C77.8875 141.308 76.8976 146.289 76.8988 151.319V151.319C76.8988 161.474 80.933 171.214 88.114 178.395C95.295 185.576 105.034 189.61 115.19 189.61H481.453C491.676 189.61 501.481 193.671 508.71 200.9C515.939 208.129 520 217.934 520 228.157C520 233.219 519.003 238.231 517.066 242.908C515.129 247.584 512.289 251.833 508.709 255.411C505.13 258.99 500.88 261.829 496.204 263.765C491.527 265.701 486.515 266.697 481.453 266.696H58.6454C55.745 266.694 52.8726 267.263 50.1924 268.372C47.5123 269.481 45.077 271.107 43.0257 273.157C40.9744 275.208 39.3474 277.642 38.2377 280.322C37.1281 283.002 36.5575 285.874 36.5586 288.774V288.774C36.5676 294.625 38.8992 300.232 43.0408 304.364C47.1823 308.496 52.7951 310.814 58.6454 310.81H176.601" stroke="#182436" stroke-linejoin="round" stroke-dasharray="3.5 3.5"/>
<path d="M68.3608 199.932C71.3456 199.932 73.7651 197.513 73.7651 194.528C73.7651 191.543 71.3456 189.124 68.3608 189.124C65.3761 189.124 62.9565 191.543 62.9565 194.528C62.9565 197.513 65.3761 199.932 68.3608 199.932Z" stroke="#182436" stroke-linejoin="round"/>
<path d="M496.3 213.464C496.301 214.036 496.133 214.595 495.817 215.071C495.501 215.547 495.05 215.918 494.522 216.137C493.995 216.357 493.414 216.414 492.853 216.303C492.293 216.192 491.778 215.917 491.373 215.513C490.969 215.109 490.694 214.594 490.583 214.034C490.472 213.473 490.53 212.892 490.75 212.364C490.969 211.837 491.34 211.386 491.816 211.07C492.292 210.753 492.851 210.585 493.423 210.587C494.186 210.587 494.917 210.89 495.457 211.43C495.997 211.969 496.3 212.701 496.3 213.464V213.464Z" stroke="#182436" stroke-linejoin="round"/>
<path d="M89.7309 292.821C89.7309 293.391 89.5623 293.948 89.2463 294.422C88.9303 294.896 88.4811 295.266 87.9553 295.485C87.4295 295.704 86.8506 295.763 86.2916 295.653C85.7325 295.544 85.2183 295.272 84.8137 294.871C84.4091 294.47 84.1323 293.958 84.0181 293.4C83.9039 292.842 83.9574 292.262 84.1719 291.735C84.3863 291.207 84.7522 290.754 85.2234 290.434C85.6946 290.114 86.2499 289.941 86.8196 289.936C87.2007 289.932 87.5787 290.004 87.9317 290.148C88.2848 290.291 88.606 290.503 88.8767 290.772C89.1473 291.04 89.3622 291.359 89.5088 291.711C89.6554 292.063 89.7309 292.44 89.7309 292.821Z" stroke="#182436" stroke-linejoin="round"/>
<path d="M471.156 305.354C471.15 305.924 470.975 306.479 470.653 306.949C470.331 307.419 469.878 307.784 469.35 307.997C468.821 308.21 468.242 308.262 467.684 308.146C467.126 308.03 466.615 307.751 466.215 307.346C465.816 306.94 465.545 306.425 465.437 305.866C465.33 305.306 465.39 304.727 465.611 304.202C465.831 303.677 466.202 303.229 466.677 302.914C467.152 302.6 467.71 302.433 468.279 302.435C468.661 302.435 469.038 302.51 469.39 302.658C469.742 302.805 470.061 303.021 470.329 303.292C470.597 303.564 470.808 303.886 470.95 304.24C471.092 304.594 471.162 304.973 471.156 305.354V305.354Z" stroke="#182436" stroke-linejoin="round"/>
<path d="M422.697 72.5512C422.697 73.5002 422.416 74.4278 421.889 75.2169C421.361 76.0059 420.612 76.6209 419.735 76.9841C418.859 77.3472 417.894 77.4423 416.963 77.2571C416.032 77.072 415.177 76.615 414.506 75.944C413.835 75.2729 413.378 74.418 413.193 73.4873C413.008 72.5565 413.103 71.5918 413.466 70.715C413.829 69.8383 414.444 69.0889 415.234 68.5617C416.023 68.0345 416.95 67.7531 417.899 67.7531C418.529 67.7531 419.153 67.8772 419.735 68.1183C420.318 68.3594 420.846 68.7128 421.292 69.1584C421.738 69.6039 422.091 70.1329 422.332 70.715C422.573 71.2972 422.697 71.9211 422.697 72.5512V72.5512Z" stroke="#182436" stroke-linejoin="round"/>
<path d="M62.8115 274.619H77.556" stroke="#182436" stroke-linejoin="round"/>
<path d="M502.395 281.978H517.139" stroke="#182436" stroke-linejoin="round"/>
<path d="M351.024 101.57H373.597" stroke="#182436" stroke-linejoin="round"/>
<path d="M83.481 258.227H90.8489" stroke="#182436" stroke-linejoin="round"/>
<path d="M370.114 93.7756H377.482" stroke="#182436" stroke-linejoin="round"/>
<path d="M146.241 65.1747H153.609" stroke="#182436" stroke-linejoin="round"/>
<path d="M159.201 72.5511H166.577" stroke="#182436" stroke-linejoin="round"/>
<g clip-path="url(#clip0_4_593)">
<path d="M462.735 380.931H434.457L434.631 377.476H462.909L462.735 380.931Z" fill="#2D2D2D"/>
<path d="M459.8 343.013L460.478 366.734L459.131 377.476L439.707 365.756L438.477 340.284" fill="#FFB9A9"/>
<path d="M439.707 365.756C438.497 368.726 437.139 371.633 435.638 374.466C434.903 375.562 434.539 376.865 434.602 378.183H462.861C463.355 375.279 460.526 365.756 460.526 365.756C460.526 365.756 444.997 366.763 439.707 365.756Z" fill="#E0D5D1"/>
<path d="M446.653 368.06H453.386" stroke="#2D2D2D" stroke-linejoin="round"/>
<path d="M446.373 370.344H453.571" stroke="#2D2D2D" stroke-linejoin="round"/>
<path d="M446.111 372.628H453.822" stroke="#2D2D2D" stroke-linejoin="round"/>
<path d="M403.698 88.4542C404.357 92.3253 404.948 96.0513 408.542 98.4418C410.493 99.6503 412.713 100.358 415.004 100.503C416.888 100.699 418.792 100.548 420.622 100.058C422.385 99.4671 424.075 98.6781 425.66 97.7063C426.823 97.0482 428.072 96.2933 428.489 95.0352C428.633 94.3963 428.743 93.7502 428.818 93.0996C429.142 92.0715 429.676 91.1222 430.388 90.3123C431.676 88.609 432.955 86.7218 433.023 84.5927C433.032 83.7163 432.887 82.8451 432.597 82.0183C431.658 79.5005 430.034 77.2948 427.908 75.6502C425.795 74.0192 423.523 72.6055 421.126 71.4306C420.062 70.8071 418.909 70.3502 417.706 70.0757C416.513 69.9151 415.301 69.9576 414.122 70.2016C411.013 70.5702 408.039 71.6823 405.451 73.4437C404.048 74.4247 402.972 75.8035 402.361 77.4019C401.615 79.6085 402.129 82.0377 402.816 84.2733C403.199 85.6468 403.493 87.0432 403.698 88.4542Z" fill="#031628"/>
<path d="M415.023 380.215V378.183H377.377C376.744 378.185 376.123 378.023 375.572 377.712C375.022 377.402 374.562 376.953 374.238 376.412L374.015 376.363V379.634C374.013 379.695 374.023 379.755 374.045 379.812C374.066 379.868 374.099 379.92 374.141 379.963L374.218 380.05C374.483 380.328 374.802 380.55 375.155 380.701C375.508 380.853 375.888 380.931 376.272 380.931H414.306C414.496 380.931 414.679 380.856 414.813 380.721C414.948 380.587 415.023 380.405 415.023 380.215Z" fill="#2D2D2D"/>
<path d="M416.234 338.997L413.812 366.637L413.182 377.476H376.553C376.146 377.474 375.757 377.31 375.47 377.022C375.183 376.734 375.022 376.344 375.022 375.937C375.021 375.629 375.113 375.328 375.286 375.072C375.459 374.817 375.704 374.619 375.991 374.505L392.799 366.637L391.259 336.267" fill="#FFB9A9"/>
<path d="M392.857 364.817L375.1 374.495C374.765 374.659 374.484 374.916 374.291 375.235C374.099 375.555 374.003 375.923 374.015 376.295C374.057 376.81 374.286 377.29 374.659 377.647C375.032 378.004 375.523 378.211 376.039 378.231H415.023L413.851 366.434C413.851 366.434 399.997 368.834 392.857 364.817Z" fill="#E0D5D1"/>
<path d="M382.646 370.363L384.7 373.828" stroke="#2D2D2D" stroke-linejoin="round"/>
<path d="M384.7 369.25L386.899 372.889" stroke="#2D2D2D" stroke-linejoin="round"/>
<path d="M386.899 368.06L389.099 371.631" stroke="#2D2D2D" stroke-linejoin="round"/>
<path d="M364.647 126.44L380.534 142.128L424.43 174.288L416.495 184.324C416.495 184.324 388.575 173.001 367.708 160.003C360.142 155.3 345.039 139.05 345.039 139.05" fill="#FFB9A9"/>
<path d="M420.012 172.294C422.589 173.533 427.453 175.556 430.02 176.804C431.541 177.53 434.127 178.982 434.001 179.707C433.672 181.643 429.719 178.459 429.555 179.417C429.458 179.998 432.771 181.469 434.466 182.233C435.987 182.921 437.954 184.043 437.828 185.137C437.663 186.472 429.187 182.582 429.187 182.582C429.187 182.582 437.954 187.043 437.76 188.156C437.489 189.763 428.663 185.253 428.663 185.253C428.663 185.253 436.075 189.192 435.871 190.382C435.668 191.573 430.272 188.176 427.908 187.314C429.458 188.282 433.972 191.379 433.372 192.008C432.771 192.637 429.603 190.886 428.78 190.547C424.246 188.743 419.874 186.558 415.711 184.014" fill="#FFB9A9"/>
<path d="M419.838 176.591C419.838 176.591 423.103 179.659 426.484 179.069" stroke="#EA8F86" stroke-width="0.75" stroke-linejoin="round"/>
<path d="M377.008 130.331C377.008 130.331 361.275 149.803 356.025 155.367C351.772 159.858 327.32 165.045 327.32 165.045L326.477 177.375C333.016 177.375 362.322 176.978 375.042 164.29C385.504 153.848 398.292 137.754 398.292 137.754" fill="#FFB9A9"/>
<path d="M333.723 164.29C330.565 164.397 326.235 164.765 323.067 164.813C321.536 164.813 318.368 164.813 318.049 165.49C317.429 166.71 321.992 166.516 321.682 167.426C321.488 167.958 318.087 167.804 316.402 167.62C314.89 167.455 313.011 167.242 312.527 168.133C312.042 169.023 320.965 170.068 320.965 170.068C320.965 170.068 311.539 169.691 311.18 170.707C310.657 172.178 320.868 172.536 320.868 172.536C320.868 172.536 312.013 172.41 311.635 173.504C311.258 174.597 318.204 174.685 320.945 174.965C319.25 175.052 313.059 174.965 312.779 175.739C312.498 176.514 315.685 177.172 316.499 177.23C321.343 177.617 331.137 177.356 331.137 177.356" fill="#FFB9A9"/>
<path d="M322.931 174.443C322.931 174.443 326.399 170.02 330.846 170.233" stroke="#EA8F86" stroke-width="0.75" stroke-linejoin="round"/>
<path d="M358.553 152.561L372.484 135.895" stroke="#EA8F86" stroke-width="0.75" stroke-linejoin="round"/>
<path d="M375.255 164.291L389.583 149.086" stroke="#EA8F86" stroke-width="0.75" stroke-linejoin="round"/>
<path d="M388.139 192.598C386.967 194.186 388.256 361.208 388.256 361.208H417.319L426.803 235.443C426.803 235.443 429.865 207.648 422.386 183.385" fill="#182436"/>
<path d="M455.653 192.598C458.162 196.005 465.554 361.208 465.554 361.208H436.491L420.574 235.443C420.574 235.443 417.513 207.648 424.992 183.385" fill="#182436"/>
<path d="M424.42 265.88C424.42 265.88 419.838 216.726 419.838 202.77" stroke="white" stroke-width="0.75" stroke-linejoin="round"/>
<path d="M414.287 202.77C414.287 202.77 415.052 221.739 416.059 226.297C416.505 228.3 420.903 227.884 420.903 227.884" stroke="white" stroke-width="0.75" stroke-linejoin="round"/>
<path d="M462.435 361.208C462.435 361.208 454.782 215.7 450.083 201.173" stroke="white" stroke-width="0.75" stroke-linejoin="round"/>
<path d="M437.886 205.238C437.886 205.238 440.657 212.612 442.798 214.751C444.939 216.89 452.069 216.222 452.069 216.222" stroke="white" stroke-width="0.75" stroke-linejoin="round"/>
<path d="M415.023 361.208L423.296 253.298" stroke="white" stroke-width="0.75" stroke-linejoin="round"/>
<path d="M387.723 214.064C387.723 214.064 393.69 214.596 395.269 213.28C397.416 211.236 399.422 209.05 401.276 206.738" stroke="white" stroke-width="0.75" stroke-linejoin="round"/>
<path d="M416.06 107.433C416.06 107.433 406.934 102.594 392.518 110.868C385.291 115.049 375.817 125.675 368.977 137.541C371.757 142.196 389.186 155.59 395.764 154.961C400.985 148.302 406.614 128.143 406.614 128.143" fill="#E0D5D1"/>
<path d="M389.186 124.824L385.659 206.738L460.923 205.238C460.294 187.256 454.142 142.564 450.083 122.414C435.59 104.103 417.764 103.939 417.764 103.939L403.872 112.484L389.186 124.824Z" fill="#E0D5D1"/>
<path d="M388.236 151.206C388.236 151.206 389.205 133.786 389.205 124.824" stroke="#A89892" stroke-width="0.75" stroke-linejoin="round"/>
<path d="M454.927 112.281C454.927 112.281 473.246 124.495 484.852 120.246C493.387 117.13 510.757 91.0575 510.757 91.0575L524.252 96.7965C520.716 103.648 503.733 142.718 482.595 144.218C464.915 145.448 444.396 135.121 444.396 135.121" fill="#FFB9A9"/>
<path d="M506.582 97.4159C508.374 94.1544 511.077 89.78 512.821 86.4798C513.664 84.883 515.369 81.5537 516.212 81.5537C517.829 81.5537 515.194 86.2669 516.289 86.3927C516.948 86.4798 518.614 82.8216 519.312 80.944C519.941 79.2698 520.736 77.1793 521.918 77.1793C522.887 77.1793 519.409 87.0799 519.409 87.0799C519.409 87.0799 524.049 76.9567 525.308 77.1212C527.139 77.3632 522.063 88.2993 522.063 88.2993C522.063 88.2993 526.665 78.9117 528.011 79.0859C529.358 79.2601 525.754 86.6443 524.582 89.6735C525.551 87.9412 528.786 81.3699 529.765 81.4957C530.743 81.6215 529.716 85.3669 529.348 86.2088C527.149 91.5414 521.656 101.694 521.656 101.694" fill="#FFB9A9"/>
<path d="M523.051 91.4736C523.051 91.4736 516.531 92.7608 514.38 97.5611" stroke="#EA8F86" stroke-width="0.75" stroke-linejoin="round"/>
<path d="M421.94 105.584C433.274 104.441 444.706 106.409 455.004 111.275C467.55 117.372 469.623 118.795 469.623 118.795L459.935 142.564L432.81 130.698" fill="#E0D5D1"/>
<path d="M407.505 85.7153C407.161 85.4065 406.714 85.2357 406.251 85.2357C405.788 85.2357 405.341 85.4065 404.996 85.7153C404.644 86.1284 404.395 86.6196 404.27 87.1481C404.145 87.6766 404.148 88.2271 404.279 88.7541C404.58 90.3026 405.994 91.9769 407.738 91.4543C408.06 91.3548 408.353 91.1813 408.596 90.9476C408.838 90.714 409.022 90.4267 409.133 90.109" fill="#FFB9A9"/>
<path d="M427.055 86.1894C427.122 86.1199 427.193 86.0553 427.268 85.9959C427.594 85.7764 427.989 85.6874 428.377 85.7466C428.765 85.8058 429.116 86.0089 429.361 86.3152C429.593 86.6323 429.758 86.9931 429.846 87.3756C429.934 87.7582 429.944 88.1547 429.874 88.5412C429.788 89.4077 429.404 90.2178 428.789 90.8348C428.479 91.135 428.098 91.3512 427.681 91.463C427.264 91.5748 426.825 91.5784 426.406 91.4736C426.083 91.3748 425.788 91.2016 425.544 90.9679C425.3 90.7343 425.114 90.4467 425.001 90.1284" fill="#FFB9A9"/>
<path d="M410.314 96.0416L419.198 83.9829L423.887 94.9287L424.672 106.397C421.61 112.968 412 111.478 410.431 107.626L410.314 96.0126" fill="#FFB9A9"/>
<path d="M407.631 78.0116C405.907 82.4634 406.546 98.3353 410.053 100.397C413.56 102.458 421.252 101.955 423.742 99.4289C425.893 97.2223 429.283 83.9442 426.251 80.3537C423.219 76.7631 410.063 71.7693 407.631 78.0116Z" fill="#FFB9A9"/>
<path d="M425.544 69.8531C425.03 68.8054 424.274 67.8943 423.34 67.1945C422.405 66.4947 421.318 66.0261 420.167 65.8271C419.005 65.6414 417.817 65.6905 416.673 65.9715C415.53 66.2524 414.455 66.7595 413.512 67.4626C412.488 68.4066 411.349 69.2164 410.121 69.8725C408.639 70.4628 406.972 70.2209 405.364 70.2015C403.756 70.1821 401.974 70.5112 401.053 71.8274C400.508 72.7763 400.29 73.8782 400.433 74.9631C400.465 76.5882 400.898 78.1804 401.693 79.5988C402.097 80.3013 402.656 80.9026 403.327 81.3571C403.998 81.8115 404.765 82.1072 405.568 82.2215C407.641 82.4247 409.52 81.1279 411.38 80.2859C413.24 79.4439 415.197 78.902 417.038 78.031C417.839 77.5969 418.742 77.3842 419.653 77.4148C420.564 77.4454 421.45 77.7183 422.221 78.2052C423.725 79.2578 425.083 80.5041 426.261 81.9118C427.029 82.8163 428.036 83.487 429.167 83.8474C429.739 84.0147 430.352 83.9777 430.9 83.7428C431.448 83.508 431.897 83.0898 432.17 82.5602C432.38 81.7843 432.343 80.9623 432.064 80.2085C431.773 79.1052 431.492 78.0019 431.201 76.9083C430.978 75.8368 430.593 74.8055 430.058 73.8501C429.587 73.1344 428.966 72.5299 428.237 72.079C427.598 71.6629 426.697 71.5177 426.164 70.9757C425.899 70.649 425.692 70.279 425.553 69.8821L425.544 69.8531Z" fill="#031628"/>
<path d="M412.301 101.519C412.301 101.519 419.479 102.545 422.686 100.068" stroke="#EA8F86" stroke-width="0.75" stroke-linejoin="round"/>
<path d="M415.604 86.7411C415.604 86.7411 413.667 91.3865 414.432 92.5479C415.197 93.7092 417.183 93.0124 417.183 93.0124" stroke="#EA8F86" stroke-width="0.75" stroke-linejoin="round"/>
<path d="M419.809 86.6926C419.71 87.0065 419.651 87.3318 419.634 87.6604C419.629 87.7559 419.646 87.8513 419.685 87.9385C419.724 88.0257 419.784 88.1021 419.859 88.1612C419.935 88.2202 420.023 88.2601 420.117 88.2774C420.211 88.2947 420.308 88.2889 420.4 88.2605C421.136 88.0863 421.155 86.383 420.254 86.412C420.161 86.4108 420.069 86.4367 419.99 86.4865C419.911 86.5363 419.848 86.6079 419.809 86.6926Z" fill="#3F111D"/>
<path d="M409.734 86.2765C409.638 86.5714 409.58 86.877 409.559 87.1862C409.551 87.2823 409.567 87.379 409.605 87.4675C409.644 87.5559 409.704 87.6335 409.78 87.693C409.855 87.7526 409.945 87.7923 410.04 87.8085C410.135 87.8248 410.233 87.8172 410.325 87.7863C411.061 87.6218 411.08 85.9184 410.189 85.9378C410.088 85.942 409.99 85.9766 409.909 86.037C409.828 86.0974 409.767 86.1809 409.734 86.2765Z" fill="#3F111D"/>
<path d="M412.523 95.0544L418.84 94.8899C418.84 94.8899 419.45 98.5772 415.662 98.4901C415.221 98.5014 414.782 98.4178 414.376 98.245C413.97 98.0721 413.605 97.814 413.308 97.4882C413.01 97.1624 412.786 96.7764 412.651 96.3565C412.515 95.9366 412.472 95.4925 412.523 95.0544Z" fill="white"/>
<path d="M419.014 84.4087C420.21 84.5315 421.371 84.8831 422.434 85.4443C422.574 85.3298 422.679 85.1784 422.737 85.0074C422.795 84.8363 422.805 84.6524 422.764 84.4765C421.699 83.7627 420.46 83.3543 419.179 83.2958C419.179 83.2958 418.801 84.2345 419.014 84.4087Z" fill="#3F111D"/>
<path d="M411.429 84.157C410.586 84.0907 409.741 84.2582 408.988 84.6409C408.905 84.5153 408.847 84.3745 408.819 84.2267C408.791 84.0789 408.792 83.9269 408.823 83.7796C409.187 83.5159 409.599 83.327 410.036 83.224C410.474 83.121 410.927 83.1059 411.371 83.1796C411.371 83.1796 411.574 84.0215 411.429 84.157Z" fill="#3F111D"/>
<path d="M453.202 140.096L437.925 132.953" stroke="#A89892" stroke-width="0.75" stroke-linejoin="round"/>
<path d="M267.556 124.069C267.556 124.069 278.435 134.85 282.621 134.405C289.576 133.669 328.657 109.968 328.657 109.968L333.045 125.985C333.045 125.985 303.769 157.661 286.341 159.645C271.276 161.348 250.971 143.318 250.971 143.318" fill="#C96947"/>
<path d="M336.165 76.7245C336.973 77.1302 337.679 77.7137 338.23 78.4311C338.78 79.1485 339.16 79.9812 339.342 80.8666C339.693 82.6429 339.739 84.4657 339.478 86.2573C339.405 86.7709 339.405 87.2921 339.478 87.8057C339.914 90.1962 343.111 91.0962 343.973 93.3705C344.18 94.0378 344.282 94.7334 344.273 95.4319C344.322 96.7288 344.409 99.3031 344.409 99.3031C344.409 99.3031 332.987 100.271 326.235 100.039" fill="#611223"/>
<path d="M286.65 380.931H314.929L314.745 377.476H286.476L286.65 380.931Z" fill="#2D2D2D"/>
<path d="M289.586 343.013L288.908 366.734L290.254 377.476L308.709 365.756L310.909 340.284" fill="#FFB9A9"/>
<path d="M308.71 365.756C308.71 365.756 312.517 372.531 313.747 374.466C314.482 375.562 314.846 376.865 314.784 378.183H286.525C286.031 375.279 288.859 365.756 288.859 365.756C288.859 365.756 303.42 366.763 308.71 365.756Z" fill="#E0D5D1"/>
<path d="M302.732 368.06H296" stroke="#2D2D2D" stroke-linejoin="round"/>
<path d="M303.013 370.344H295.815" stroke="#2D2D2D" stroke-linejoin="round"/>
<path d="M303.275 372.628H295.563" stroke="#2D2D2D" stroke-linejoin="round"/>
<path d="M329.199 380.215L329.093 378.183H366.739C367.359 378.191 367.97 378.03 368.506 377.718C369.042 377.406 369.483 376.955 369.781 376.412L370.004 376.363L370.178 379.634C370.182 379.694 370.174 379.754 370.154 379.811C370.134 379.867 370.103 379.919 370.062 379.963L369.994 380.051C369.741 380.33 369.431 380.553 369.086 380.705C368.74 380.856 368.367 380.934 367.989 380.931H329.955C329.762 380.929 329.577 380.854 329.436 380.721C329.296 380.589 329.212 380.408 329.199 380.215Z" fill="#2D2D2D"/>
<path d="M330.449 342.984L330.527 366.521L330.895 377.447H367.524C367.723 377.449 367.92 377.41 368.103 377.332C368.286 377.254 368.451 377.139 368.587 376.995C368.724 376.85 368.829 376.679 368.896 376.492C368.963 376.305 368.991 376.107 368.977 375.908C368.957 375.594 368.847 375.291 368.66 375.037C368.473 374.783 368.216 374.589 367.921 374.476L350.697 366.637L354.572 340.284" fill="#FFB9A9"/>
<path d="M350.88 365.117L368.822 374.466C369.165 374.63 369.456 374.884 369.664 375.202C369.873 375.519 369.99 375.887 370.004 376.266C370.004 376.78 369.8 377.272 369.437 377.635C369.073 377.998 368.58 378.202 368.067 378.202H329.093L330.284 366.317C330.284 366.317 343.915 369.114 350.88 365.117Z" fill="#E0D5D1"/>
<path d="M360.907 370.344L358.592 374.728" stroke="#2D2D2D" stroke-linejoin="round"/>
<path d="M357.972 368.824L355.646 373.199" stroke="#2D2D2D" stroke-linejoin="round"/>
<path d="M355.027 367.295L352.702 371.679" stroke="#2D2D2D" stroke-linejoin="round"/>
<path d="M327.204 104.761C327.204 104.761 344.525 107.007 352.159 113.055C359.793 119.104 371.254 131.444 371.254 131.444L355.54 151.206L341.348 135.876" fill="#E0D5D1"/>
<path d="M342.946 165.955L350.173 172.584C351.616 177.269 362.157 188.534 364.482 224.178C367.059 263.606 362.06 346.187 362.06 346.187H328.153L326.37 205.954L325.033 154.932" fill="#182436"/>
<path d="M302.413 169.662C299.991 176.185 291.078 189.918 287.232 208.761C281.284 237.949 286.437 346.187 286.437 346.187H315.21L332.028 205.364C332.028 205.364 333.549 192.879 332.822 172.072" fill="#182436"/>
<path d="M327.61 250.56C328.298 236.585 332.202 191.321 332.822 172.072" stroke="white" stroke-width="0.75" stroke-linejoin="round"/>
<path d="M311.258 169.662C302.975 180.615 297.441 193.392 295.118 206.922C292.105 225.484 292.851 346.187 292.851 346.187" stroke="white" stroke-width="0.75" stroke-linejoin="round"/>
<path d="M322.108 172.072C322.108 172.072 319.114 183.211 302.141 184.721" stroke="white" stroke-width="0.75" stroke-linejoin="round"/>
<path d="M355.627 183.646C355.627 183.646 343.45 177.085 341.038 172.033" stroke="white" stroke-width="0.75" stroke-linejoin="round"/>
<path d="M337.724 173.794C337.724 173.794 337.162 191.573 335.68 193.092C334.198 194.611 331.079 195.028 331.079 195.028" stroke="white" stroke-width="0.75" stroke-linejoin="round"/>
<path d="M334.16 346.042C334.16 346.042 331.195 240.843 329.645 220.635" stroke="white" stroke-width="0.75" stroke-linejoin="round"/>
<path d="M295.282 120.846C298.576 115.678 316.276 105.294 316.276 105.294C320.542 104.847 324.838 104.737 329.122 104.965C329.122 104.965 339.129 113.065 346.007 122.385C351.655 127.834 353.932 132.005 354.019 137.637C354.077 141.509 352.285 144.77 351.374 150.625C350.406 156.964 350.125 172.555 350.125 172.555C339.323 176.533 317.4 176.098 301.386 172.042C299.351 157.332 291.989 126.014 295.282 120.846Z" fill="#E0D5D1"/>
<path d="M346.007 122.414C351.655 127.863 353.932 132.034 354.019 137.666C354.077 141.538 352.828 143.551 352.033 147.344" stroke="#A89892" stroke-width="0.75" stroke-linejoin="round"/>
<path d="M328.318 136.786L325.837 109.387L328.318 136.786Z" stroke="#A89892" stroke-width="0.75" stroke-linejoin="round"/>
<path d="M323.667 117.488C323.672 117.628 323.732 117.761 323.833 117.859C323.934 117.956 324.069 118.011 324.21 118.01C324.277 118.011 324.344 117.997 324.406 117.97C324.468 117.944 324.524 117.905 324.57 117.856C324.616 117.807 324.652 117.749 324.675 117.686C324.698 117.622 324.708 117.555 324.704 117.488C324.697 117.351 324.638 117.222 324.539 117.127C324.44 117.031 324.308 116.977 324.171 116.975C324.104 116.974 324.037 116.986 323.974 117.011C323.912 117.037 323.856 117.075 323.808 117.123C323.761 117.171 323.724 117.228 323.7 117.291C323.676 117.354 323.665 117.421 323.667 117.488Z" fill="#A89892"/>
<path d="M324.539 126.411C324.544 126.55 324.602 126.681 324.702 126.778C324.801 126.876 324.933 126.931 325.072 126.934C325.14 126.934 325.207 126.92 325.27 126.894C325.332 126.867 325.388 126.828 325.436 126.779C325.483 126.731 325.519 126.673 325.543 126.61C325.568 126.546 325.579 126.479 325.576 126.411C325.569 126.274 325.51 126.145 325.411 126.05C325.312 125.954 325.181 125.9 325.043 125.898C324.976 125.897 324.909 125.909 324.847 125.934C324.784 125.96 324.728 125.998 324.68 126.046C324.633 126.094 324.596 126.151 324.572 126.214C324.548 126.277 324.537 126.344 324.539 126.411Z" fill="#A89892"/>
<path d="M325.334 135.373C325.339 135.511 325.397 135.643 325.496 135.74C325.595 135.837 325.728 135.893 325.867 135.895C325.934 135.896 326.001 135.882 326.063 135.855C326.125 135.829 326.18 135.79 326.227 135.741C326.273 135.692 326.309 135.634 326.332 135.571C326.355 135.507 326.365 135.44 326.361 135.373C326.356 135.235 326.297 135.105 326.198 135.009C326.099 134.913 325.966 134.86 325.828 134.86C325.761 134.86 325.696 134.873 325.634 134.899C325.573 134.925 325.518 134.963 325.472 135.011C325.425 135.059 325.389 135.116 325.366 135.178C325.342 135.24 325.331 135.306 325.334 135.373Z" fill="#A89892"/>
<path d="M285.788 124.921C285.788 124.921 265.318 142.864 261.152 145.98C256.987 149.096 221.849 166.729 221.849 166.729L224.93 176.92C224.93 176.92 264.572 167.717 276.604 160.632C286.369 154.893 305.047 138.47 305.047 138.47" fill="#FFB9A9"/>
<path d="M315.714 105.516C308.937 106.723 302.439 109.16 296.542 112.707C289.276 117.033 276.633 131.782 276.633 131.782L295.282 150.393L314.193 133.524" fill="#E0D5D1"/>
<path d="M297.927 148.022L309.272 137.899" stroke="#A89892" stroke-width="0.75" stroke-linejoin="round"/>
<path d="M227.226 164C224.552 164.803 219.534 165.994 216.86 166.797C215.291 167.271 212.568 168.268 212.626 169.023C212.762 170.959 216.996 168.5 217.063 169.478C217.112 170.078 213.673 170.988 211.919 171.462C210.35 171.878 208.286 172.672 208.306 173.726C208.306 175.081 217.122 172.633 217.122 172.633C217.122 172.633 207.996 175.594 208.073 176.736C208.199 178.372 217.383 175.41 217.383 175.41C217.383 175.41 209.633 178.082 209.73 179.282C209.827 180.482 215.455 178.391 217.887 177.927C216.24 178.672 211.784 180.143 211.842 181.033C211.9 181.924 215.378 181.343 216.192 181.033C224.242 178.023 230.249 175.023 230.249 175.023" fill="#FFB9A9"/>
<path d="M226.984 168.287C226.984 168.287 223.438 170.794 220.144 169.633" stroke="#EA8F86" stroke-width="0.75" stroke-linejoin="round"/>
<path d="M328.221 96.0319L329.189 105.584C329.189 105.584 331.069 109.349 323.89 109.552C322.345 109.634 320.808 109.278 319.457 108.525C318.106 107.771 316.997 106.651 316.256 105.294L318.872 90.5251" fill="#FFB9A9"/>
<path d="M336.019 74.905C337.957 81.0408 340.34 93.6706 333.336 97.3772C331.718 98.2289 329.267 98.0063 326.758 96.8933C321.323 94.5029 317.835 90.1188 316.876 86.2476C315.665 81.457 328.191 64.327 336.019 74.905Z" fill="#FFB9A9"/>
<path d="M308.274 77.0535C307.255 77.5958 306.297 78.2446 305.416 78.9891C304.633 79.9156 304.139 81.0515 303.996 82.2558C303.853 83.4601 304.067 84.6798 304.612 85.7636C305.139 86.458 305.473 87.2794 305.58 88.1444C305.532 89.267 304.544 90.08 303.643 90.7865C299.632 93.7769 301.327 99.7869 301.327 99.7869C301.327 99.7869 312.769 100.3 319.56 99.7869C319.637 95.9158 318.688 91.6575 319.792 87.9799C320.812 84.2817 323.056 81.0375 326.157 78.7761C327.688 77.7406 329.606 76.8405 330.032 75.0017C332.955 76.291 335.643 78.0571 337.986 80.2278C338.636 79.041 338.977 77.7097 338.977 76.3567C338.977 75.0036 338.636 73.6723 337.986 72.4855C336.844 70.7132 335.077 69.4348 333.035 68.9046C328.87 64.7431 319.918 65.0335 314.726 68.5175C310.725 71.1209 310.812 75.205 308.274 77.0535Z" fill="#611223"/>
<path d="M332.212 84.37C332.212 84.37 334.74 88.3767 334.246 89.209C333.752 90.0413 331.66 89.6445 331.66 89.6445" stroke="#EA8F86" stroke-width="0.75" stroke-linejoin="round"/>
<path d="M326.777 84.3893C326.741 84.4453 326.709 84.5035 326.68 84.5635C326.529 84.978 326.482 85.4235 326.545 85.8604C326.55 85.9354 326.571 86.0085 326.605 86.0756C326.639 86.1427 326.686 86.2024 326.743 86.2514C326.8 86.3004 326.866 86.3376 326.938 86.361C327.009 86.3844 327.085 86.3936 327.16 86.3878C327.235 86.3821 327.308 86.3617 327.375 86.3277C327.442 86.2937 327.502 86.2469 327.551 86.1898C327.6 86.1327 327.638 86.0666 327.661 85.9951C327.684 85.9236 327.694 85.8483 327.688 85.7733C327.655 85.298 327.547 84.8309 327.368 84.3893C327.174 83.9635 326.942 84.1377 326.777 84.3893Z" fill="#031628"/>
<path d="M335.138 83.4215C335.11 83.4797 335.09 83.5417 335.079 83.6054C335.012 84.0439 335.052 84.4923 335.196 84.9119C335.341 85.6281 336.523 85.3378 336.3 84.6119C336.173 84.1467 335.977 83.7031 335.719 83.2957C335.448 82.9183 335.244 83.1312 335.138 83.4215Z" fill="#031628"/>
<path d="M323.018 83.8571C323.005 83.5607 323.051 83.2646 323.154 82.9861C323.393 82.3812 323.817 81.8666 324.365 81.515C324.937 81.1432 325.628 80.9982 326.302 81.1086C326.524 81.1539 326.735 81.2427 326.922 81.3699C326.992 81.4222 327.057 81.4805 327.116 81.5441H326.884C326.696 81.5701 326.512 81.6122 326.331 81.6699C325.841 81.8396 325.373 82.067 324.936 82.3473C324.489 82.6448 324.058 82.968 323.648 83.3151C323.493 83.47 323.309 83.5861 323.212 83.7022L323.018 83.8571Z" fill="#031628"/>
<path d="M333.258 81.3602C333.278 81.2997 333.304 81.2414 333.336 81.186C333.416 81.0395 333.528 80.9136 333.665 80.8182C333.88 80.6778 334.123 80.5853 334.377 80.5469C334.631 80.5085 334.891 80.5251 335.138 80.5956C335.638 80.7203 336.074 81.0276 336.358 81.457C336.486 81.6482 336.566 81.8672 336.591 82.0957L336.417 82.0376C336.281 81.9765 336.142 81.9248 336 81.8828C335.68 81.7763 335.293 81.6505 334.925 81.5537C334.579 81.4578 334.226 81.393 333.869 81.3602C333.666 81.3376 333.461 81.3376 333.258 81.3602Z" fill="#031628"/>
<path d="M321.72 93.8157C321.72 93.8157 323.454 96.5352 328.405 97.8611" stroke="#EA8F86" stroke-width="0.75" stroke-linejoin="round"/>
<path d="M321.352 87.2057C321.269 86.8333 321.098 86.486 320.854 86.1926C320.61 85.8992 320.299 85.6682 319.948 85.5187C319.597 85.3692 319.215 85.3056 318.834 85.333C318.453 85.3605 318.084 85.4782 317.758 85.6766C317.542 85.8694 317.369 86.1048 317.248 86.368C317.128 86.6312 317.064 86.9165 317.06 87.2057C317.007 87.9469 317.108 88.6911 317.358 89.3909C317.609 90.0907 318.002 90.7308 318.513 91.2704C318.869 91.6728 319.323 91.9762 319.831 92.1511C320.113 92.2479 320.414 92.2719 320.708 92.2206C321.002 92.1694 321.277 92.0447 321.509 91.8581C321.742 91.6716 321.923 91.4293 322.036 91.1539C322.149 90.8785 322.19 90.579 322.156 90.2833" fill="#FFB9A9"/>
<path d="M334.489 91.464H327.61C327.61 91.464 328.279 95.0642 331.602 95.0642C334.556 95.0642 334.489 91.464 334.489 91.464Z" fill="white"/>
<path d="M316.682 103L325.837 109.387L322.495 115.543L314.59 105.923L316.682 103Z" fill="white"/>
<path d="M329.025 103.271L325.837 109.387L328.715 114.933L331.524 105.274L329.025 103.271Z" fill="white"/>
<path d="M314.929 350.717H285.488V343.255H315.995L314.929 350.717Z" fill="#191D23"/>
<path d="M362.205 350.717H327.456V343.255H362.515L362.205 350.717Z" fill="#191D23"/>
<path d="M337.55 106.784C338.829 109.155 344.738 112.92 345.62 112.697C346.501 112.475 344.506 109.988 344.331 109.407C346.035 109.854 347.666 110.542 349.175 111.449C350.677 112.417 352.333 113.385 353.796 114.41C352.908 112.463 351.67 110.695 350.144 109.194C348.381 107.834 346.322 106.907 344.135 106.488C341.947 106.07 339.691 106.171 337.55 106.784Z" fill="#C96947"/>
<path d="M227.924 102.003C232.883 100.973 238.009 101.057 242.931 102.249C247.854 103.441 252.45 105.71 256.386 108.894C263.463 114.866 269.769 121.693 275.161 129.218L255.117 146.231L233.901 128.598" fill="#E0D5D1"/>
<path d="M217.296 380.215V378.183H179.65C179.018 378.185 178.396 378.023 177.846 377.712C177.295 377.402 176.835 376.953 176.511 376.412L176.288 376.363V379.634C176.288 379.756 176.333 379.873 176.414 379.963L176.492 380.05C176.756 380.328 177.075 380.55 177.428 380.701C177.781 380.853 178.161 380.931 178.545 380.931H216.579C216.77 380.931 216.952 380.856 217.086 380.721C217.221 380.587 217.296 380.405 217.296 380.215Z" fill="#2D2D2D"/>
<path d="M218.11 338.997L215.252 366.55L215.455 377.476H178.826C178.419 377.474 178.03 377.31 177.743 377.022C177.456 376.734 177.295 376.344 177.295 375.937C177.295 375.629 177.387 375.328 177.559 375.072C177.732 374.817 177.978 374.619 178.264 374.505L195.082 366.637L193.803 336.267" fill="#C96947"/>
<path d="M194.82 365.117L177.382 374.466C177.047 374.63 176.767 374.887 176.574 375.206C176.382 375.526 176.286 375.894 176.297 376.266C176.34 376.782 176.571 377.264 176.946 377.621C177.321 377.978 177.814 378.185 178.332 378.202H217.296L215.484 366.317C215.484 366.317 201.97 369.114 194.82 365.117Z" fill="#E0D5D1"/>
<path d="M184.774 370.498L186.974 373.828" stroke="#2D2D2D" stroke-linejoin="round"/>
<path d="M186.974 369.327L189.173 372.889" stroke="#2D2D2D" stroke-linejoin="round"/>
<path d="M189.172 368.06L191.371 371.631" stroke="#2D2D2D" stroke-linejoin="round"/>
<path d="M246.65 380.215V378.183H284.287C284.919 378.185 285.541 378.023 286.091 377.712C286.641 377.402 287.101 376.953 287.426 376.412L287.648 376.363V379.634C287.65 379.695 287.64 379.755 287.619 379.812C287.597 379.868 287.564 379.92 287.523 379.963L287.445 380.05C287.18 380.328 286.862 380.55 286.509 380.701C286.156 380.853 285.775 380.931 285.391 380.931H247.367C247.177 380.931 246.994 380.856 246.86 380.721C246.725 380.587 246.65 380.405 246.65 380.215Z" fill="#2D2D2D"/>
<path d="M242.862 338.997L246.737 366.55L248.51 377.476H285.111C285.519 377.476 285.911 377.314 286.2 377.025C286.489 376.737 286.651 376.345 286.651 375.937C286.65 375.629 286.558 375.329 286.385 375.074C286.213 374.818 285.968 374.62 285.682 374.505L266.888 366.637L267.169 336.267" fill="#C96947"/>
<path d="M267.13 365.117L286.563 374.466C286.899 374.63 287.179 374.887 287.372 375.206C287.564 375.526 287.66 375.894 287.648 376.266C287.606 376.781 287.377 377.261 287.004 377.618C286.631 377.975 286.14 378.182 285.624 378.202H246.65L246.476 366.317C246.476 366.317 259.99 369.114 267.13 365.117Z" fill="#E0D5D1"/>
<path d="M277.844 370.276L275.413 373.828" stroke="#2D2D2D" stroke-linejoin="round"/>
<path d="M275.568 369.173L273.214 372.889" stroke="#2D2D2D" stroke-linejoin="round"/>
<path d="M273.214 368.06L271.015 371.631" stroke="#2D2D2D" stroke-linejoin="round"/>
<path d="M218.488 182.379C218.509 195.996 219.396 209.598 221.142 223.103C223.903 242.459 236.594 362.814 236.594 362.814H271.199C271.199 362.814 268.351 271.193 264.476 224.516C263.633 214.432 261.25 194.128 252.521 181.769" fill="#182436"/>
<path d="M266.248 362.814C266.248 362.814 263.4 271.193 259.467 224.516C258.634 214.432 256.251 194.128 247.522 181.769" stroke="white" stroke-width="0.75" stroke-linejoin="round"/>
<path d="M189.308 187.459C185.801 232.104 191.439 362.814 191.439 362.814H223.68L231.915 228.349C231.915 228.349 239.2 198.492 232.137 183.888" fill="#182436"/>
<path d="M228.437 285.062C228.437 285.062 222.528 216.667 220.009 189.25" stroke="white" stroke-width="0.75" stroke-linejoin="round"/>
<path d="M218.798 362.814L226.335 260.77" stroke="white" stroke-width="0.75" stroke-linejoin="round"/>
<path d="M241.36 199.828C241.36 199.828 241.031 207.89 257.558 210.474" stroke="white" stroke-width="0.75" stroke-linejoin="round"/>
<path d="M188.349 210.512C188.349 210.512 203.501 210.27 205.235 199.867" stroke="white" stroke-width="0.75" stroke-linejoin="round"/>
<path d="M191.227 357.549H223.884" stroke="white" stroke-width="0.75" stroke-linejoin="round"/>
<path d="M235.896 357.549H270.83" stroke="white" stroke-width="0.75" stroke-linejoin="round"/>
<path d="M178.448 122.811C178.448 122.811 167.598 133.592 163.384 133.147C156.428 132.402 117.348 103.765 117.348 103.765L109.985 110.868C109.985 110.868 142.235 154.419 159.664 156.403C174.728 158.116 195.034 140.086 195.034 140.086" fill="#C96947"/>
<path d="M218.081 102.003C208.062 100.621 197.892 103.083 189.618 108.894C182.474 113.769 175.966 119.513 170.243 125.995L189.308 147.567L212.094 128.627" fill="#E0D5D1"/>
<path d="M171.037 124.35C171.037 124.35 186.324 140.802 193.629 143.105C199.538 144.964 223.39 137.541 223.39 137.541L230.171 147.944C224.455 151.09 196.109 167.61 180.541 158.658C167.54 151.187 155.721 140.367 155.721 140.367" fill="#FFB9A9"/>
<path d="M217.451 140.047C220.261 138.596 224.233 136.805 227.003 135.305C228.35 134.579 231.121 133.05 231.712 133.457C232.855 134.211 228.805 136.273 229.474 136.892C229.9 137.26 232.797 135.47 234.182 134.492C235.412 133.611 236.953 132.557 237.786 133.069C238.619 133.582 231.343 138.876 231.343 138.876C231.343 138.876 239.384 133.96 240.198 134.676C241.37 135.702 232.632 140.996 232.632 140.996C232.632 140.996 240.295 136.573 241.167 137.328C242.039 138.083 236.013 141.567 233.756 143.135C235.277 142.389 240.624 139.263 241.264 139.834C241.903 140.405 239.413 142.505 238.735 142.951C234.666 145.66 226.015 150.19 226.015 150.19" fill="#FFB9A9"/>
<path d="M231.828 143.618C231.828 143.618 226.645 141.441 222.867 143.802" stroke="#EA8F86" stroke-width="0.75" stroke-linejoin="round"/>
<path d="M217.897 102.497C217.897 102.497 197.901 104.065 191.294 139.35C188.504 154.284 187.661 199.876 187.661 199.876C187.661 199.876 225.686 202.354 261.985 199.876C261.985 184.585 257.723 146.29 253.422 127.35C250.515 114.507 238.396 107.994 228.485 102.042" fill="#E0D5D1"/>
<path d="M214.312 72.9694C212.542 75.5076 211.559 78.5097 211.483 81.6021C211.435 83.9151 212.084 86.5088 214.06 87.7089C214.423 87.9728 214.854 88.1276 215.302 88.155C215.75 88.1825 216.197 88.0814 216.589 87.8637C217.133 87.3925 217.493 86.7448 217.606 86.0346C218.123 84.1364 218.448 82.191 218.575 80.2278C218.684 78.9986 218.592 77.7598 218.304 76.5599C218.016 75.3523 217.309 74.2858 216.308 73.55" fill="#031628"/>
<path d="M216.647 93.8834L216.482 102.497C216.482 102.497 217.19 105.594 223.06 105.758C230.51 105.961 231.992 101.994 231.992 101.994L230.568 86.0153" fill="#C96947"/>
<path d="M215.785 84.4571C215.688 84.0022 215.097 83.8377 214.661 83.9635C214.35 84.0687 214.07 84.2466 213.842 84.4823C213.615 84.718 213.447 85.0047 213.353 85.3184C213.174 85.9475 213.134 86.608 213.237 87.254C213.267 87.8621 213.454 88.4521 213.779 88.967C214.108 89.4033 214.587 89.7023 215.124 89.806C215.661 89.9097 216.217 89.8107 216.686 89.5283" fill="#A35138"/>
<path d="M215.136 75.8728C215.136 75.8728 213.411 90.622 215.872 93.2931C219.563 97.232 225.85 96.1965 228.65 93.7189C230.994 91.6672 232.913 82.6667 232.525 80.315C231.673 73.9372 218.032 72.05 215.136 75.8728Z" fill="#C96947"/>
<path d="M234.812 73.3468C234.027 71.9339 233.95 70.0854 233.058 68.7208C232.673 68.1663 232.177 67.6972 231.602 67.3425C231.027 66.9879 230.385 66.7553 229.716 66.6594C228.35 66.4271 226.907 66.6594 225.637 66.069C224.824 65.7109 224.146 65.1012 223.361 64.656C222.275 64.1267 221.031 64.0166 219.869 64.3471C218.707 64.6775 217.708 65.4252 217.064 66.4465C216.869 66.81 216.638 67.1536 216.376 67.4723C215.644 67.9869 214.78 68.2823 213.886 68.324C212.83 68.5659 211.3 69.2434 210.854 70.3757C210.364 71.6196 210.364 73.0029 210.854 74.2469C211.745 76.1825 213.353 76.1825 215.029 76.6664C217.936 77.4696 220.726 76.3276 223.681 76.2115C224.95 76.1631 226.984 76.2889 227.817 77.3245C228.976 78.992 229.647 80.9492 229.755 82.9764C230.016 85.1926 228.97 89.1122 230.578 90.8736C231.547 90.1574 234.812 89.1219 235.209 87.8444C235.606 86.5669 235.209 85.3475 235.538 84.1765C235.989 83.2166 236.551 82.3135 237.214 81.486C237.735 80.5525 237.963 79.4846 237.87 78.4201C237.777 77.3557 237.366 76.3436 236.691 75.5147C236.178 74.9243 235.529 74.4792 235.064 73.8501C234.97 73.6874 234.886 73.5193 234.812 73.3468Z" fill="#031628"/>
<path d="M216.647 94.2608C218.107 95.1251 219.738 95.6596 221.427 95.8268C223.116 95.994 224.821 95.7898 226.422 95.2286C227.4 94.8542 228.262 94.2283 228.92 93.4142C229.579 92.6002 230.01 91.627 230.171 90.5929" stroke="#77331E" stroke-width="0.75" stroke-linejoin="round"/>
<path d="M220.754 82.2699C220.754 82.2699 220.28 86.1411 220.628 86.8863C220.977 87.6315 223.089 87.0605 223.089 87.0605" stroke="#77331E" stroke-width="0.75" stroke-linejoin="round"/>
<path d="M224.436 83.3249C224.436 83.6926 224.61 84.0217 224.891 84.041C225.172 84.0604 225.434 83.7797 225.463 83.4023C225.495 83.2459 225.464 83.0832 225.377 82.9493C225.29 82.8154 225.154 82.7209 224.998 82.6861C224.756 82.6474 224.465 82.9474 224.436 83.3249Z" fill="#031628"/>
<path d="M216.482 82.6473C216.482 83.0247 216.657 83.3441 216.938 83.3634C217.219 83.3828 217.48 83.1021 217.509 82.7247C217.539 82.5699 217.508 82.4096 217.424 82.2765C217.339 82.1434 217.207 82.0476 217.054 82.0085C216.763 81.9795 216.511 82.2602 216.482 82.6473Z" fill="#031628"/>
<path d="M227.449 80.2568C227.352 80.0826 227.245 79.9084 227.139 79.7439C227.097 79.6802 227.045 79.6244 226.984 79.5794C226.898 79.5549 226.808 79.5549 226.722 79.5794C226.014 79.5903 225.31 79.6747 224.62 79.831C224.288 79.8931 223.963 79.9905 223.651 80.1214C223.264 80.3149 223.322 80.3149 223.535 80.702C223.535 80.702 223.535 80.7795 223.612 80.7988C223.646 80.8132 223.682 80.8206 223.719 80.8206C223.756 80.8206 223.792 80.8132 223.825 80.7988C224.96 80.4677 226.149 80.3657 227.323 80.4988C227.39 80.4988 227.458 80.4988 227.487 80.4988C227.516 80.4988 227.478 80.3052 227.449 80.2568Z" fill="#031628"/>
<path d="M215.882 79.9568C215.969 79.7923 216.066 79.6278 216.163 79.4633C216.194 79.4039 216.237 79.3513 216.289 79.3084C216.358 79.2855 216.433 79.2855 216.502 79.3084C217.077 79.3512 217.644 79.4717 218.188 79.6665C218.456 79.7437 218.713 79.8542 218.953 79.9956C219.253 80.2085 219.205 80.2085 219.011 80.5762C218.996 80.6134 218.973 80.6466 218.943 80.673C218.917 80.6893 218.887 80.698 218.856 80.698C218.825 80.698 218.795 80.6893 218.769 80.673C217.888 80.2894 216.926 80.1298 215.969 80.2085C215.951 80.2218 215.929 80.229 215.906 80.229C215.883 80.229 215.861 80.2218 215.843 80.2085C215.818 80.1689 215.808 80.1217 215.815 80.0754C215.822 80.0291 215.846 79.987 215.882 79.9568Z" fill="#031628"/>
<path d="M219.166 89.4219H225.889C225.889 89.4219 225.986 92.9156 221.791 92.9156C219.03 92.8769 219.166 89.4219 219.166 89.4219Z" fill="white"/>
<path d="M229.251 85.8024C229.429 85.4563 229.678 85.1516 229.982 84.9081C230.286 84.6646 230.637 84.4879 231.014 84.3894C231.61 84.4016 232.181 84.6285 232.622 85.0281C234.783 86.867 233.31 91.164 230.384 91.1253C229.309 91.1253 229.416 89.6832 229.416 89.6832" fill="#C96947"/>
<path d="M190.229 146.841C190.229 146.841 192.35 124.582 195.654 118.378" stroke="#A89892" stroke-width="0.75" stroke-linejoin="round"/>
<path d="M256.9 145.196C256.9 145.196 254.274 124.621 250.971 118.378" stroke="#A89892" stroke-width="0.75" stroke-linejoin="round"/>
<path d="M95.4049 110.413C95.4049 110.413 78.0541 122.027 67.0682 117.962C58.979 115.059 42.5389 90.3123 42.5389 90.3123L29.7607 95.7513C33.103 102.245 49.1944 139.234 69.2383 140.628C85.9884 141.799 105.422 132.015 105.422 132.015" fill="#FFB9A9"/>
<path d="M46.5012 96.3416C44.7961 93.2447 42.2385 89.1025 40.5916 85.9862C39.7972 84.4668 38.1794 81.3214 37.3753 81.3214C35.8446 81.3214 38.3441 85.783 37.3172 85.9088C36.6875 85.9959 35.1084 82.5215 34.4108 80.7504C33.8199 79.1633 33.0739 77.1793 31.9502 77.1793C30.9814 77.1793 34.3237 86.5572 34.3237 86.5572C34.3237 86.5572 29.9351 76.976 28.7338 77.1309C27.0094 77.3535 31.8145 87.7186 31.8145 87.7186C31.8145 87.7186 27.455 78.8342 26.1763 79.0084C24.8975 79.1826 28.3173 86.1604 29.4217 89.0251C28.4529 87.3798 25.4497 81.1569 24.51 81.2827C23.5703 81.4085 24.5681 84.912 24.9072 85.7443C26.9997 90.7961 32.1923 100.406 32.1923 100.406" fill="#FFB9A9"/>
<path d="M30.894 90.7188C30.894 90.7188 37.0651 91.9382 39.0996 96.4771" stroke="#EA8F86" stroke-width="0.75" stroke-linejoin="round"/>
<path d="M171.599 380.931H143.32L143.504 377.476H171.783L171.599 380.931Z" fill="#2D2D2D"/>
<path d="M168.664 343.013L169.351 366.734L168.005 377.476L149.54 365.756L147.351 340.284" fill="#FFB9A9"/>
<path d="M149.54 365.756C149.54 365.756 145.742 372.531 144.502 374.466C143.773 375.565 143.41 376.866 143.466 378.183H171.734C172.228 375.279 169.4 365.756 169.4 365.756C169.4 365.756 154.839 366.763 149.54 365.756Z" fill="#E0D5D1"/>
<path d="M155.518 368.06H162.251" stroke="#2D2D2D" stroke-linejoin="round"/>
<path d="M155.236 370.344H162.444" stroke="#2D2D2D" stroke-linejoin="round"/>
<path d="M154.984 372.628H162.686" stroke="#2D2D2D" stroke-linejoin="round"/>
<path d="M129.051 380.215L129.157 378.183H91.5202C90.9001 378.191 90.2894 378.03 89.7536 377.718C89.2177 377.406 88.7769 376.955 88.4783 376.412L88.2458 376.363L88.0811 379.634C88.0754 379.694 88.0819 379.753 88.1003 379.81C88.1186 379.867 88.1483 379.919 88.1876 379.963L88.2652 380.051C88.5186 380.33 88.8282 380.553 89.1738 380.705C89.5193 380.856 89.8931 380.934 90.2705 380.931H128.305C128.497 380.929 128.681 380.854 128.819 380.721C128.958 380.588 129.041 380.407 129.051 380.215Z" fill="#2D2D2D"/>
<path d="M127.801 342.984L127.723 366.521L127.365 377.447H90.7355C90.5362 377.45 90.3385 377.412 90.1549 377.335C89.9713 377.257 89.8059 377.143 89.6692 376.998C89.5324 376.853 89.4274 376.682 89.3608 376.494C89.2942 376.306 89.2675 376.107 89.2823 375.908C89.3012 375.593 89.4109 375.29 89.5983 375.036C89.7857 374.782 90.0427 374.588 90.3383 374.476L107.534 366.637L103.659 340.284" fill="#FFB9A9"/>
<path d="M107.379 365.117L89.4373 374.466C89.0934 374.628 88.801 374.882 88.5924 375.2C88.3839 375.518 88.2672 375.887 88.2554 376.266C88.2554 376.78 88.4595 377.272 88.8229 377.635C89.1862 377.998 89.679 378.202 90.1929 378.202H129.167L127.985 366.317C127.985 366.317 114.315 369.114 107.379 365.117Z" fill="#E0D5D1"/>
<path d="M97.3423 370.344L99.6673 374.728" stroke="#2D2D2D" stroke-linejoin="round"/>
<path d="M100.288 368.824L102.613 373.199" stroke="#2D2D2D" stroke-linejoin="round"/>
<path d="M103.232 367.295L105.548 371.679" stroke="#2D2D2D" stroke-linejoin="round"/>
<path d="M112.378 165.461L106.187 168.5L103 178.343C97.8751 186.201 90.183 201.812 90.9677 223.829C92.1303 256.531 102.787 353.049 102.787 353.049H129.438L130.668 205.557L130.523 154.419" fill="#182436"/>
<path d="M151.022 167.233C151.022 167.233 152.33 170.813 154.258 176.436C162.042 185.604 167.374 196.591 169.759 208.373C175.445 237.572 172.161 353.049 172.161 353.049H146.285L124.972 204.957C124.972 204.957 121.281 192.444 122.376 171.588" fill="#182436"/>
<path d="M130.223 241.53C128.721 225.891 123.228 200.805 122.938 181.527" stroke="white" stroke-width="0.75" stroke-linejoin="round"/>
<path d="M102.98 178.343C102.98 178.343 118.394 186.617 154.248 176.407" stroke="white" stroke-width="0.75" stroke-linejoin="round"/>
<path d="M118.907 181.459L117.938 181.391C117.67 181.378 117.408 181.309 117.168 181.188C116.928 181.068 116.716 180.899 116.544 180.693C116.373 180.486 116.247 180.247 116.173 179.989C116.1 179.731 116.081 179.46 116.117 179.195L116.495 175.962C116.561 175.432 116.817 174.943 117.216 174.587C117.615 174.231 118.13 174.032 118.665 174.026H120.68" stroke="white" stroke-width="0.75" stroke-linejoin="round"/>
<path d="M121.097 177.917C121.103 178.288 120.969 178.648 120.721 178.924C120.473 179.201 120.13 179.373 119.76 179.407C119.582 179.392 119.41 179.341 119.254 179.256C119.097 179.172 118.96 179.056 118.85 178.916C118.74 178.777 118.66 178.616 118.615 178.444C118.57 178.272 118.56 178.093 118.588 177.917C118.581 177.548 118.714 177.191 118.96 176.917C119.206 176.642 119.547 176.47 119.915 176.436C120.092 176.45 120.264 176.501 120.421 176.584C120.578 176.667 120.716 176.782 120.827 176.921C120.938 177.059 121.019 177.219 121.065 177.391C121.112 177.562 121.122 177.741 121.097 177.917Z" fill="white"/>
<path d="M139.242 179.901C139.242 179.649 137.624 172.41 137.624 172.41" stroke="white" stroke-width="0.75" stroke-linejoin="round"/>
<path d="M107.466 179.901C107.272 179.707 109.985 172.11 109.985 172.11" stroke="white" stroke-width="0.75" stroke-linejoin="round"/>
<path d="M149.366 177.743C149.366 177.743 158.375 188.137 161.911 206.525C165.447 224.913 167.404 353.039 167.404 353.039" stroke="white" stroke-width="0.75" stroke-linejoin="round"/>
<path d="M136.132 180.395C136.132 180.395 136.82 187.876 153.832 184.363" stroke="white" stroke-width="0.75" stroke-linejoin="round"/>
<path d="M100.288 182.853C100.288 182.853 108.106 186.482 110.615 181.459" stroke="white" stroke-width="0.75" stroke-linejoin="round"/>
<path d="M117.929 181.362C117.929 181.362 117.832 198.976 119.285 200.515C120.738 202.054 124.855 202.741 124.855 202.741" stroke="white" stroke-width="0.75" stroke-linejoin="round"/>
<path d="M127.336 351.888C127.336 351.888 125.485 241.385 127.394 221.129" stroke="white" stroke-width="0.75" stroke-linejoin="round"/>
<path d="M157.194 121.427C153.706 116.249 134.582 104.665 134.582 104.665C130.301 104.195 125.994 103.998 121.688 104.074C116.563 109.701 111.778 115.628 107.36 121.824C101.896 127.282 101.276 134.115 101.383 139.767C101.547 147.809 104.289 159.403 104.996 172.11C115.953 176.088 136.559 175.178 152.185 170.697C152.185 170.717 160.672 126.605 157.194 121.427Z" fill="#E0D5D1"/>
<path d="M121.688 104.074C121.688 104.074 111.099 101.8 95.3273 109.465C83.4501 115.272 81.4932 116.578 81.4932 116.578L90.6674 139.099L116.379 127.863" fill="#E0D5D1"/>
<path d="M117.347 103.765C115.575 105.797 108.987 108.187 108.173 107.781C107.359 107.374 109.849 105.371 110.111 104.878C108.349 104.951 106.607 105.277 104.937 105.845C103.261 106.426 101.459 106.881 99.8223 107.539C101.095 105.887 102.674 104.494 104.472 103.436C106.494 102.493 108.708 102.037 110.938 102.106C113.167 102.175 115.35 102.767 117.309 103.832" fill="#C96947"/>
<path d="M145.51 132.973L162.027 147.49L177.877 130.873C177.877 130.873 169.962 122.869 162.609 115.552C148.174 101.132 134.582 104.694 134.582 104.694" fill="#E0D5D1"/>
<path d="M156.699 142.825L146.779 134.115" stroke="#A89892" stroke-width="0.75" stroke-linejoin="round"/>
<path d="M101.721 133.94C101.721 133.94 102.622 126.566 107.33 121.862" stroke="#A89892" stroke-width="0.75" stroke-linejoin="round"/>
<path d="M85.2812 114.488L94.223 137.541" stroke="#A89892" stroke-width="0.75" stroke-linejoin="round"/>
<path d="M159.402 145.196L174.883 127.863" stroke="#A89892" stroke-width="0.75" stroke-linejoin="round"/>
<path d="M120.128 104.065C120.128 104.065 117.599 110.326 125.94 110.839C135.677 111.429 136.597 104.587 136.597 104.587" stroke="#A89892" stroke-width="0.75" stroke-linejoin="round"/>
<path d="M122.288 95.3738L121.629 104.907C121.629 104.907 120.903 108.894 127.074 108.894C128.6 108.955 130.112 108.587 131.439 107.833C132.766 107.078 133.855 105.967 134.582 104.626L133.013 90.6993" fill="#FFB9A9"/>
<path d="M118.83 73.3372C116.175 79.1439 112.32 91.3769 118.83 96.1384C120.322 97.232 122.783 97.3869 125.398 96.6707C131.066 95.1125 135.038 91.2898 136.452 87.6315C138.215 83.0248 127.878 64.056 118.83 73.3372Z" fill="#FFB9A9"/>
<path d="M119.159 91.1348L125.679 90.6993C125.679 90.6993 124.71 93.9608 121.804 93.9608C121.439 93.9676 121.076 93.8976 120.74 93.7555C120.404 93.6134 120.101 93.4023 119.852 93.1358C119.602 92.8694 119.412 92.5536 119.293 92.2089C119.173 91.8642 119.128 91.4983 119.159 91.1348Z" fill="white"/>
<path d="M142.846 75.7083C143.724 76.7701 144.902 77.5425 146.227 77.9245C148.639 78.6504 150.15 79.1826 151.506 81.486C152.863 83.7893 152.582 87.7573 155.11 88.9186C157.493 90.0123 160.438 88.7735 162.027 91.5414C161.194 94.8028 155.595 103.494 153.434 106.465C152.258 105.03 150.591 104.082 148.755 103.803C147.166 103.465 145.49 103.687 143.911 103.194C142.507 102.693 141.316 101.726 140.54 100.455C140.098 99.606 139.579 98.7994 138.99 98.0449C137.968 97.1307 136.715 96.5147 135.367 96.2642C134.515 96.0842 133.702 95.7567 132.964 95.2964C131.337 94.1834 130.93 92.2866 130.823 90.4574C130.784 88.2412 130.784 85.9378 130.784 83.6151C130.784 81.1279 128.43 79.9472 126.987 78.331C126.793 78.1181 124.08 74.4598 124.623 74.2372C122.288 75.1179 118.006 76.6761 116.185 78.3697C115.718 77.233 115.547 75.9965 115.688 74.7757C115.829 73.555 116.277 72.3899 116.991 71.3894C117.705 70.3889 118.662 69.5856 119.771 69.0546C120.88 68.5236 122.106 68.2822 123.334 68.353C124.129 68.4014 125.65 67.3852 126.531 67.2304C127.658 67.0144 128.807 66.9429 129.951 67.0175C132.293 67.1712 134.574 67.8316 136.636 68.9531C138.244 69.8144 140.298 71.1209 141.131 72.8242C141.579 73.8537 142.155 74.8227 142.846 75.7083Z" fill="#2D2D2D"/>
<path d="M121.475 83.3925C121.475 83.3925 118.491 86.9926 118.878 87.9411C119.266 88.8895 121.388 88.7637 121.388 88.7637" stroke="#EA8F86" stroke-width="0.75" stroke-linejoin="round"/>
<path d="M125.854 84.099C125.885 84.1577 125.911 84.2193 125.931 84.2829C126.03 84.6994 126.033 85.1328 125.941 85.5507C125.844 86.2766 124.643 86.0249 124.817 85.2894C124.907 84.8258 125.067 84.3786 125.292 83.9635C125.505 83.6151 125.728 83.8184 125.854 84.099Z" fill="#031628"/>
<path d="M118.685 81.9989C118.689 82.0633 118.689 82.128 118.685 82.1924C118.701 82.6341 118.608 83.0731 118.413 83.4699C118.181 84.1667 117.047 83.6925 117.357 83.0054C117.538 82.5632 117.787 82.1519 118.094 81.786C118.443 81.4472 118.617 81.6795 118.685 81.9989Z" fill="#031628"/>
<path d="M128.731 83.9926C128.789 83.702 128.789 83.4025 128.731 83.1119C128.57 82.4691 128.214 81.8914 127.714 81.457C127.2 81.0054 126.538 80.7575 125.854 80.7602C125.629 80.7749 125.409 80.8307 125.204 80.9247C125.133 80.964 125.065 81.0093 125.001 81.0602L125.233 81.1182C125.413 81.1719 125.588 81.2399 125.757 81.3215C126.226 81.5663 126.665 81.8651 127.064 82.2118C127.475 82.5686 127.86 82.9534 128.217 83.3635C128.363 83.5377 128.527 83.6829 128.605 83.8087C128.642 83.8734 128.684 83.9349 128.731 83.9926Z" fill="#031628"/>
<path d="M120.758 80.2279C120.747 80.1684 120.731 80.1101 120.71 80.0537C120.653 79.8904 120.557 79.7439 120.429 79.6278C120.236 79.455 120.008 79.3258 119.76 79.249C119.513 79.1721 119.252 79.1495 118.995 79.1827C118.487 79.2325 118.017 79.4708 117.677 79.8504C117.527 80.0247 117.423 80.2346 117.377 80.4602H117.561C117.701 80.4197 117.843 80.3906 117.987 80.3731C118.317 80.3053 118.714 80.2472 119.092 80.2085C119.449 80.1759 119.809 80.1759 120.167 80.2085C120.364 80.2016 120.562 80.2081 120.758 80.2279Z" fill="#031628"/>
<path d="M130.048 94.9093C127.731 96.5305 124.972 97.4021 122.143 97.4062" stroke="#EA8F86" stroke-width="0.75" stroke-linejoin="round"/>
<path d="M129.903 86.954C130.033 86.5919 130.249 86.2671 130.534 86.008C130.818 85.7489 131.162 85.5635 131.535 85.468C131.908 85.3725 132.298 85.3698 132.673 85.4601C133.047 85.5505 133.393 85.7311 133.681 85.9862C133.871 86.2107 134.014 86.4714 134.101 86.7525C134.187 87.0336 134.216 87.3293 134.185 87.6218C134.161 88.3686 133.976 89.1014 133.641 89.7698C133.307 90.4381 132.831 91.026 132.247 91.493C131.847 91.8369 131.362 92.0675 130.843 92.1607C130.546 92.2111 130.242 92.1876 129.956 92.0925C129.671 91.9974 129.414 91.8335 129.207 91.6154C129 91.3973 128.85 91.1316 128.77 90.8419C128.691 90.5521 128.684 90.2472 128.75 89.9542" fill="#FFB9A9"/>
<path fill-rule="evenodd" clip-rule="evenodd" d="M243.48 125.935C243.338 125.815 243.154 125.744 242.953 125.744C242.775 125.744 242.61 125.8 242.476 125.896C242.183 124.73 241.124 123.865 239.866 123.865C238.367 123.865 237.15 125.095 237.177 126.598C237.202 127.931 238.22 129.012 239.51 129.2C239.509 129.214 239.509 129.228 239.509 129.242V129.799C239.509 129.943 239.546 130.077 239.61 130.194C238.651 130.129 237.792 129.693 237.177 129.03C236.532 128.334 236.153 127.39 236.205 126.359C236.299 124.497 237.811 122.989 239.678 122.895C240.711 122.843 241.659 123.22 242.355 123.865C242.936 124.401 243.343 125.123 243.48 125.935Z" fill="#182436"/>
<path fill-rule="evenodd" clip-rule="evenodd" d="M243.359 126.565V129.799C243.359 130.022 243.177 130.204 242.953 130.204C242.729 130.204 242.547 130.022 242.547 129.799V126.565C242.547 126.538 242.55 126.512 242.555 126.487C242.591 126.301 242.756 126.16 242.953 126.16C243.177 126.16 243.359 126.341 243.359 126.565Z" fill="#182436"/>
<path fill-rule="evenodd" clip-rule="evenodd" d="M242.072 128.281V129.799C242.072 130.022 241.891 130.204 241.666 130.204C241.555 130.204 241.453 130.158 241.38 130.085C241.306 130.012 241.261 129.91 241.261 129.799V128.281C241.261 128.057 241.442 127.876 241.666 127.876C241.891 127.876 242.072 128.057 242.072 128.281Z" fill="#182436"/>
<path fill-rule="evenodd" clip-rule="evenodd" d="M240.738 129.242V129.799C240.738 130.023 240.556 130.204 240.332 130.204C240.108 130.204 239.926 130.023 239.926 129.799V129.242C239.926 129.238 239.926 129.233 239.926 129.229C239.932 129.012 240.112 128.837 240.332 128.837C240.552 128.837 240.731 129.012 240.737 129.229C240.738 129.233 240.738 129.238 240.738 129.242Z" fill="#182436"/>
<path fill-rule="evenodd" clip-rule="evenodd" d="M114.865 131.597C114.722 131.477 114.538 131.406 114.337 131.406C114.159 131.406 113.995 131.463 113.86 131.559C113.567 130.393 112.508 129.527 111.251 129.527C109.752 129.527 108.534 130.758 108.561 132.26C108.586 133.594 109.605 134.675 110.894 134.862C110.893 134.876 110.893 134.89 110.893 134.904V135.461C110.893 135.605 110.93 135.739 110.995 135.857C110.035 135.791 109.177 135.355 108.561 134.692C107.916 133.997 107.537 133.052 107.589 132.021C107.684 130.159 109.195 128.651 111.062 128.558C112.095 128.506 113.043 128.882 113.739 129.527C114.32 130.064 114.727 130.785 114.865 131.597Z" fill="#182436"/>
<path fill-rule="evenodd" clip-rule="evenodd" d="M114.744 132.227V135.461C114.744 135.685 114.562 135.866 114.337 135.866C114.113 135.866 113.932 135.685 113.932 135.461V132.227C113.932 132.2 113.934 132.174 113.939 132.149C113.975 131.963 114.14 131.822 114.337 131.822C114.562 131.822 114.744 132.003 114.744 132.227Z" fill="#182436"/>
<path fill-rule="evenodd" clip-rule="evenodd" d="M113.457 133.943V135.461C113.457 135.685 113.275 135.866 113.051 135.866C112.939 135.866 112.837 135.821 112.764 135.747C112.691 135.674 112.645 135.573 112.645 135.461V133.943C112.645 133.719 112.827 133.538 113.051 133.538C113.275 133.538 113.457 133.719 113.457 133.943Z" fill="#182436"/>
<path fill-rule="evenodd" clip-rule="evenodd" d="M112.122 134.904V135.461C112.122 135.685 111.941 135.866 111.717 135.866C111.493 135.866 111.311 135.685 111.311 135.461V134.904C111.311 134.9 111.311 134.896 111.311 134.892C111.317 134.674 111.497 134.499 111.717 134.499C111.937 134.499 112.116 134.674 112.122 134.892C112.122 134.896 112.122 134.9 112.122 134.904Z" fill="#182436"/>
<path fill-rule="evenodd" clip-rule="evenodd" d="M347.829 129.979C347.687 129.86 347.503 129.788 347.302 129.788C347.124 129.788 346.959 129.845 346.825 129.941C346.532 128.775 345.473 127.909 344.215 127.909C342.716 127.909 341.499 129.14 341.526 130.642C341.551 131.976 342.569 133.057 343.859 133.245C343.858 133.258 343.858 133.272 343.858 133.286V133.843C343.858 133.987 343.895 134.122 343.959 134.239C343 134.173 342.142 133.738 341.526 133.074C340.881 132.379 340.502 131.434 340.554 130.403C340.648 128.541 342.16 127.034 344.027 126.94C345.06 126.888 346.008 127.265 346.704 127.909C347.285 128.446 347.692 129.168 347.829 129.979Z" fill="#182436"/>
<path fill-rule="evenodd" clip-rule="evenodd" d="M347.708 130.609V133.843C347.708 134.067 347.526 134.248 347.302 134.248C347.078 134.248 346.896 134.067 346.896 133.843V130.609C346.896 130.583 346.899 130.556 346.904 130.531C346.94 130.345 347.105 130.204 347.302 130.204C347.526 130.204 347.708 130.386 347.708 130.609Z" fill="#182436"/>
<path fill-rule="evenodd" clip-rule="evenodd" d="M346.421 132.325V133.843C346.421 134.067 346.24 134.248 346.016 134.248C345.904 134.248 345.802 134.203 345.729 134.129C345.655 134.057 345.61 133.955 345.61 133.843V132.325C345.61 132.102 345.791 131.92 346.016 131.92C346.24 131.92 346.421 132.102 346.421 132.325Z" fill="#182436"/>
<path fill-rule="evenodd" clip-rule="evenodd" d="M345.087 133.286V133.843C345.087 134.067 344.905 134.248 344.681 134.248C344.457 134.248 344.275 134.067 344.275 133.843V133.286C344.275 133.282 344.275 133.278 344.275 133.274C344.282 133.056 344.461 132.882 344.681 132.882C344.901 132.882 345.08 133.056 345.086 133.274C345.087 133.278 345.087 133.282 345.087 133.286Z" fill="#182436"/>
<path fill-rule="evenodd" clip-rule="evenodd" d="M402.026 137.259C401.883 137.14 401.699 137.068 401.499 137.068C401.32 137.068 401.156 137.125 401.021 137.221C400.728 136.055 399.669 135.189 398.412 135.189C396.913 135.189 395.695 136.42 395.723 137.922C395.747 139.256 396.766 140.337 398.055 140.525C398.054 140.539 398.054 140.552 398.054 140.566V141.124C398.054 141.267 398.091 141.402 398.156 141.519C397.197 141.453 396.338 141.018 395.722 140.355C395.077 139.659 394.698 138.715 394.75 137.683C394.845 135.821 396.357 134.314 398.223 134.22C399.257 134.168 400.204 134.545 400.9 135.189C401.481 135.726 401.888 136.448 402.026 137.259Z" fill="#182436"/>
<path fill-rule="evenodd" clip-rule="evenodd" d="M401.905 137.889V141.124C401.905 141.347 401.723 141.528 401.499 141.528C401.274 141.528 401.093 141.347 401.093 141.124V137.889C401.093 137.863 401.095 137.837 401.1 137.812C401.137 137.625 401.301 137.485 401.499 137.485C401.723 137.485 401.905 137.666 401.905 137.889Z" fill="#182436"/>
<path fill-rule="evenodd" clip-rule="evenodd" d="M400.618 139.605V141.124C400.618 141.347 400.436 141.528 400.212 141.528C400.1 141.528 399.998 141.483 399.925 141.41C399.852 141.337 399.806 141.235 399.806 141.124V139.605C399.806 139.382 399.988 139.201 400.212 139.201C400.436 139.201 400.618 139.382 400.618 139.605Z" fill="#182436"/>
<path fill-rule="evenodd" clip-rule="evenodd" d="M399.284 140.566V141.124C399.284 141.347 399.102 141.528 398.878 141.528C398.654 141.528 398.472 141.347 398.472 141.124V140.566C398.472 140.562 398.472 140.558 398.472 140.554C398.478 140.336 398.658 140.162 398.878 140.162C399.098 140.162 399.277 140.336 399.283 140.554C399.284 140.558 399.284 140.562 399.284 140.566Z" fill="#182436"/>
</g>
<defs>
<clipPath id="clip0_4_593">
<rect width="549.247" height="338.931" fill="white" transform="translate(0 42)"/>
</clipPath>
</defs>
</svg>
