<svg width="19" height="74" viewBox="0 0 19 74" fill="none" xmlns="http://www.w3.org/2000/svg">
<path fill-rule="evenodd" clip-rule="evenodd" d="M15.6252 41.4606L15.2227 41.8631C15.0127 42.0731 14.783 42.2831 14.573 42.5302C14.2471 42.8759 13.8468 43.0487 13.3283 43.0487H13.1774C12.1821 42.9896 11.283 42.6068 10.594 42.2634C8.6996 41.3643 7.0546 40.0627 5.67647 38.4374C4.54772 37.0593 3.7821 35.7971 3.28335 34.4387C2.97928 33.6162 2.86335 32.9643 2.92022 32.3737C2.93991 31.9712 3.09303 31.6452 3.3796 31.3784L4.50835 30.2496C4.66147 30.0965 4.83428 30.0002 5.0071 30.0002C5.2171 30.0002 5.38772 30.1337 5.50366 30.2496C5.71585 30.4399 5.90616 30.6324 6.09866 30.8424L7.32147 32.0652C7.6846 32.4306 7.6846 32.7565 7.32147 33.0999L7.03491 33.3865C6.76585 33.6731 6.49897 33.9399 6.21241 34.2112H6.19272C5.90616 34.4956 5.96303 34.7821 6.01991 34.9746V34.9943C6.26928 35.5674 6.59522 36.1034 7.09397 36.7552H7.10928C8.02803 37.8818 8.98616 38.7634 10.058 39.4524C10.1915 39.5268 10.3249 39.6034 10.4605 39.6624C10.594 39.7193 10.688 39.7762 10.804 39.8352C10.804 39.8549 10.8237 39.8549 10.8412 39.8724C10.9571 39.9293 11.0533 39.949 11.1671 39.949C11.4362 39.949 11.6068 39.7762 11.6637 39.7193L12.8121 38.5906C12.928 38.4768 13.1008 38.3412 13.3087 38.3412C13.5208 38.3412 13.674 38.4571 13.7877 38.5731V38.5906L15.6252 40.4084C15.9687 40.754 15.9687 41.0974 15.6252 41.4606Z" fill="white"/>
<mask id="path-2-inside-1_2_808" fill="white">
<path fill-rule="evenodd" clip-rule="evenodd" d="M16.2836 58.6157C14.5917 56.9298 12.3416 56.0009 9.94407 56C5.0038 56 0.983173 60.0009 0.981454 64.9187C0.980595 66.4909 1.39357 68.0254 2.17784 69.3777L0.90625 74L5.65743 72.7597C6.96641 73.4705 8.44041 73.8448 9.9402 73.8452H9.94407C9.9445 73.8452 9.94364 73.8452 9.94407 73.8452C14.8835 73.8452 18.9045 69.8439 18.9062 64.926C18.9071 62.5426 17.9759 60.3016 16.2836 58.6157ZM9.94407 72.3389H9.94106C8.60457 72.3385 7.29344 71.9809 6.14948 71.3056L5.87746 71.1448L3.05795 71.8809L3.81042 69.145L3.63337 68.8645C2.88777 67.6841 2.4937 66.3198 2.49456 64.9192C2.49628 60.8319 5.83792 57.5063 9.94708 57.5063C11.9368 57.5071 13.807 58.2791 15.2135 59.6806C16.62 61.0816 17.394 62.9446 17.3931 64.9252C17.3914 69.0129 14.0498 72.3389 9.94407 72.3389ZM14.03 66.7864C13.8061 66.6748 12.7051 66.1359 12.4997 66.0615C12.2943 65.9871 12.1452 65.9499 11.9961 66.1731C11.8469 66.3964 11.4176 66.8985 11.287 67.0469C11.1564 67.1957 11.0257 67.2141 10.8018 67.1025C10.5779 66.9908 9.8564 66.7556 9.00079 65.9965C8.33513 65.4054 7.88562 64.6758 7.75498 64.4526C7.62434 64.2293 7.74123 64.1087 7.85296 63.998C7.95352 63.8979 8.07686 63.7375 8.18902 63.6075C8.30118 63.4775 8.33814 63.3842 8.41291 63.2358C8.48769 63.087 8.4503 62.957 8.39443 62.8454C8.33857 62.7337 7.89078 61.6368 7.70384 61.1907C7.52206 60.7562 7.33728 60.8152 7.20019 60.8079C7.06955 60.8015 6.92043 60.8002 6.77088 60.8002C6.62176 60.8002 6.37896 60.8558 6.17355 61.0791C5.96813 61.3023 5.38971 61.8416 5.38971 62.9382C5.38971 64.0352 6.19203 65.0949 6.30419 65.2438C6.41635 65.3926 7.88347 67.6435 10.1297 68.6092C10.6639 68.8388 11.0812 68.9761 11.4065 69.0787C11.9428 69.2485 12.431 69.2246 12.8169 69.1673C13.247 69.1031 14.1417 68.628 14.3283 68.1075C14.5148 67.587 14.5148 67.1405 14.4589 67.0477C14.403 66.954 14.2539 66.898 14.03 66.7864Z"/>
</mask>
<path fill-rule="evenodd" clip-rule="evenodd" d="M16.2836 58.6157C14.5917 56.9298 12.3416 56.0009 9.94407 56C5.0038 56 0.983173 60.0009 0.981454 64.9187C0.980595 66.4909 1.39357 68.0254 2.17784 69.3777L0.90625 74L5.65743 72.7597C6.96641 73.4705 8.44041 73.8448 9.9402 73.8452H9.94407C9.9445 73.8452 9.94364 73.8452 9.94407 73.8452C14.8835 73.8452 18.9045 69.8439 18.9062 64.926C18.9071 62.5426 17.9759 60.3016 16.2836 58.6157ZM9.94407 72.3389H9.94106C8.60457 72.3385 7.29344 71.9809 6.14948 71.3056L5.87746 71.1448L3.05795 71.8809L3.81042 69.145L3.63337 68.8645C2.88777 67.6841 2.4937 66.3198 2.49456 64.9192C2.49628 60.8319 5.83792 57.5063 9.94708 57.5063C11.9368 57.5071 13.807 58.2791 15.2135 59.6806C16.62 61.0816 17.394 62.9446 17.3931 64.9252C17.3914 69.0129 14.0498 72.3389 9.94407 72.3389ZM14.03 66.7864C13.8061 66.6748 12.7051 66.1359 12.4997 66.0615C12.2943 65.9871 12.1452 65.9499 11.9961 66.1731C11.8469 66.3964 11.4176 66.8985 11.287 67.0469C11.1564 67.1957 11.0257 67.2141 10.8018 67.1025C10.5779 66.9908 9.8564 66.7556 9.00079 65.9965C8.33513 65.4054 7.88562 64.6758 7.75498 64.4526C7.62434 64.2293 7.74123 64.1087 7.85296 63.998C7.95352 63.8979 8.07686 63.7375 8.18902 63.6075C8.30118 63.4775 8.33814 63.3842 8.41291 63.2358C8.48769 63.087 8.4503 62.957 8.39443 62.8454C8.33857 62.7337 7.89078 61.6368 7.70384 61.1907C7.52206 60.7562 7.33728 60.8152 7.20019 60.8079C7.06955 60.8015 6.92043 60.8002 6.77088 60.8002C6.62176 60.8002 6.37896 60.8558 6.17355 61.0791C5.96813 61.3023 5.38971 61.8416 5.38971 62.9382C5.38971 64.0352 6.19203 65.0949 6.30419 65.2438C6.41635 65.3926 7.88347 67.6435 10.1297 68.6092C10.6639 68.8388 11.0812 68.9761 11.4065 69.0787C11.9428 69.2485 12.431 69.2246 12.8169 69.1673C13.247 69.1031 14.1417 68.628 14.3283 68.1075C14.5148 67.587 14.5148 67.1405 14.4589 67.0477C14.403 66.954 14.2539 66.898 14.03 66.7864Z" fill="white"/>
<path d="M16.2836 58.6157L15.5777 59.324L15.5778 59.3241L16.2836 58.6157ZM9.94407 56L9.94442 55H9.94407V56ZM0.981454 64.9187L1.98145 64.9193V64.9191L0.981454 64.9187ZM2.17784 69.3777L3.14203 69.6429L3.25323 69.2387L3.04289 68.876L2.17784 69.3777ZM0.90625 74L-0.057931 73.7348L-0.517457 75.4052L1.15883 74.9676L0.90625 74ZM5.65743 72.7597L6.13463 71.8809L5.78729 71.6923L5.40485 71.7922L5.65743 72.7597ZM9.9402 73.8452L9.93991 74.8452H9.9402V73.8452ZM18.9062 64.926L17.9062 64.9257V64.9257L18.9062 64.926ZM9.94106 72.3389L9.94074 73.3389H9.94106V72.3389ZM6.14948 71.3056L5.6406 72.1665L5.64113 72.1668L6.14948 71.3056ZM5.87746 71.1448L6.38634 70.284L6.02783 70.0721L5.62487 70.1773L5.87746 71.1448ZM3.05795 71.8809L2.09375 71.6157L1.63434 73.286L3.31053 72.8484L3.05795 71.8809ZM3.81042 69.145L4.77461 69.4102L4.89167 68.9846L4.6561 68.6113L3.81042 69.145ZM3.63337 68.8645L4.47905 68.3308L4.47883 68.3304L3.63337 68.8645ZM2.49456 64.9192L3.49456 64.9198V64.9196L2.49456 64.9192ZM9.94708 57.5063L9.9475 56.5063H9.94708V57.5063ZM15.2135 59.6806L14.5077 60.3889L14.5078 60.3891L15.2135 59.6806ZM17.3931 64.9252L16.3931 64.9247V64.9247L17.3931 64.9252ZM11.287 67.0469L10.5364 66.3861L10.5355 66.3872L11.287 67.0469ZM9.00079 65.9965L8.33684 66.7443L8.33712 66.7445L9.00079 65.9965ZM7.85296 63.998L8.557 64.7081L8.55837 64.7068L7.85296 63.998ZM8.41291 63.2358L9.30596 63.6858L9.30647 63.6848L8.41291 63.2358ZM7.70384 61.1907L6.78132 61.5766L6.78156 61.5772L7.70384 61.1907ZM7.20019 60.8079L7.25315 59.8093L7.24924 59.8091L7.20019 60.8079ZM10.1297 68.6092L10.5247 67.6905L10.5247 67.6905L10.1297 68.6092ZM11.4065 69.0787L11.7083 68.1254L11.7074 68.1251L11.4065 69.0787ZM12.8169 69.1673L12.9638 70.1564L12.9644 70.1563L12.8169 69.1673ZM14.4589 67.0477L13.6001 67.56L13.6021 67.5634L14.4589 67.0477ZM16.9894 57.9073C15.1096 56.0341 12.6055 55.0009 9.94442 55L9.94371 57C12.0776 57.0008 14.0738 57.8254 15.5777 59.324L16.9894 57.9073ZM9.94407 55C4.45596 55 -0.0166324 59.4441 -0.0185458 64.9184L1.98145 64.9191C1.98298 60.5577 5.55164 57 9.94407 57V55ZM-0.0185457 64.9182C-0.0195015 66.6665 0.439919 68.3743 1.31279 69.8794L3.04289 68.876C2.34723 67.6765 1.98069 66.3153 1.98145 64.9193L-0.0185457 64.9182ZM1.21366 69.1124L-0.057931 73.7348L1.87043 74.2652L3.14203 69.6429L1.21366 69.1124ZM1.15883 74.9676L5.91001 73.7273L5.40485 71.7922L0.653672 73.0324L1.15883 74.9676ZM5.18023 73.6385C6.63628 74.4292 8.27431 74.8447 9.93991 74.8452L9.94049 72.8452C8.60652 72.8448 7.29655 72.5119 6.13463 71.8809L5.18023 73.6385ZM9.9402 74.8452H9.94407V72.8452H9.9402V74.8452ZM9.94407 74.8452C9.94407 74.8452 9.94407 74.8452 9.94407 74.8452C9.94407 74.8452 9.94407 74.8452 9.94407 74.8452C9.94407 74.8452 9.94407 74.8452 9.94407 74.8452C9.94408 74.8452 9.94408 74.8452 9.94408 74.8452C9.94408 74.8452 9.94408 74.8452 9.94408 74.8452C9.94408 74.8452 9.94408 74.8452 9.94408 74.8452C9.94408 74.8452 9.94408 74.8452 9.94408 74.8452C9.94408 74.8452 9.94409 74.8452 9.94409 74.8452C9.94409 74.8452 9.94409 74.8452 9.94409 74.8452C9.94409 74.8452 9.94409 74.8452 9.94409 74.8452C9.94409 74.8452 9.94409 74.8452 9.94409 74.8452C9.94409 74.8452 9.94409 74.8452 9.94409 74.8452C9.9441 74.8452 9.9441 74.8452 9.9441 74.8452C9.9441 74.8452 9.9441 74.8452 9.9441 74.8452C9.9441 74.8452 9.9441 74.8452 9.9441 74.8452C9.9441 74.8452 9.9441 74.8452 9.9441 74.8452C9.9441 74.8452 9.94411 74.8452 9.94411 74.8452C9.94411 74.8452 9.94411 74.8452 9.94411 74.8452C9.94411 74.8452 9.94411 74.8452 9.94411 74.8452C9.94411 74.8452 9.94411 74.8452 9.94411 74.8452C9.94411 74.8452 9.94411 74.8452 9.94411 74.8452C9.94411 74.8452 9.94411 74.8452 9.94412 74.8452C9.94412 74.8452 9.94412 74.8452 9.94412 74.8452C9.94412 74.8452 9.94412 74.8452 9.94412 74.8452C9.94412 74.8452 9.94412 74.8452 9.94412 74.8452H9.94412C9.94412 74.8452 9.94412 74.8452 9.94412 74.8452C9.94413 74.8452 9.94413 74.8452 9.94413 74.8452C9.94413 74.8452 9.94413 74.8452 9.94413 74.8452C9.94413 74.8452 9.94413 74.8452 9.94413 74.8452C9.94413 74.8452 9.94413 74.8452 9.94413 74.8452H9.94413C9.94413 74.8452 9.94413 74.8452 9.94413 74.8452C9.94414 74.8452 9.94414 74.8452 9.94414 74.8452H9.94414C9.94414 74.8452 9.94414 74.8452 9.94414 74.8452H9.94414C9.94414 74.8452 9.94414 74.8452 9.94414 74.8452C9.94414 74.8452 9.94414 74.8452 9.94414 74.8452H9.94415C9.94415 74.8452 9.94415 74.8452 9.94415 74.8452H9.94415C9.94415 74.8452 9.94415 74.8452 9.94415 74.8452C9.94415 74.8452 9.94415 74.8452 9.94415 74.8452H9.94415C9.94415 74.8452 9.94415 74.8452 9.94415 74.8452H9.94415H9.94416C9.94416 74.8452 9.94416 74.8452 9.94416 74.8452C9.94416 74.8452 9.94416 74.8452 9.94416 74.8452H9.94416H9.94416C9.94416 74.8452 9.94416 74.8452 9.94416 74.8452C9.94416 74.8452 9.94416 74.8452 9.94416 74.8452C9.94416 74.8452 9.94416 74.8452 9.94416 74.8452C9.94416 74.8452 9.94416 74.8452 9.94417 74.8452H9.94417H9.94417H9.94417H9.94417H9.94417H9.94417H9.94417H9.94417C9.94417 74.8452 9.94417 74.8452 9.94417 74.8452C9.94417 74.8452 9.94417 74.8452 9.94417 74.8452C9.94418 74.8452 9.94418 74.8452 9.94418 74.8452C9.94418 74.8452 9.94418 74.8452 9.94418 74.8452H9.94418C9.94418 74.8452 9.94418 74.8452 9.94418 74.8452C9.94418 74.8452 9.94418 74.8452 9.94418 74.8452H9.94418C9.94418 74.8452 9.94418 74.8452 9.94418 74.8452H9.94418C9.94418 74.8452 9.94418 74.8452 9.94418 74.8452C9.94418 74.8452 9.94418 74.8452 9.94418 74.8452C9.94418 74.8452 9.94418 74.8452 9.94419 74.8452C9.94419 74.8452 9.94419 74.8452 9.94419 74.8452C9.94419 74.8452 9.94419 74.8452 9.94419 74.8452C9.94419 74.8452 9.94419 74.8452 9.94419 74.8452C9.94419 74.8452 9.94419 74.8452 9.94419 74.8452C9.94419 74.8452 9.94419 74.8452 9.94419 74.8452H9.94419C9.94419 73.8452 9.94419 72.8452 9.94419 72.8452C9.94419 72.8452 9.94419 72.8452 9.94419 72.8452H9.94419H9.94419H9.94419H9.94419C9.94419 72.8452 9.94419 72.8452 9.94419 72.8452C9.94418 72.8452 9.94418 72.8452 9.94418 72.8452C9.94418 72.8452 9.94418 72.8452 9.94418 72.8452C9.94418 72.8452 9.94418 72.8452 9.94418 72.8452C9.94418 72.8452 9.94418 72.8452 9.94418 72.8452C9.94418 72.8452 9.94418 72.8452 9.94418 72.8452C9.94418 72.8452 9.94418 72.8452 9.94418 72.8452H9.94418C9.94418 72.8452 9.94418 72.8452 9.94418 72.8452H9.94418C9.94418 72.8452 9.94418 72.8452 9.94418 72.8452H9.94417C9.94417 72.8452 9.94417 72.8452 9.94417 72.8452H9.94417C9.94417 72.8452 9.94417 72.8452 9.94417 72.8452C9.94417 72.8452 9.94417 72.8452 9.94417 72.8452H9.94417C9.94417 72.8452 9.94417 72.8452 9.94417 72.8452C9.94417 72.8452 9.94417 72.8452 9.94417 72.8452C9.94417 72.8452 9.94417 72.8452 9.94417 72.8452H9.94417C9.94417 72.8452 9.94417 72.8452 9.94417 72.8452C9.94417 72.8452 9.94417 72.8452 9.94416 72.8452C9.94416 72.8452 9.94416 72.8452 9.94416 72.8452C9.94416 72.8452 9.94416 72.8452 9.94416 72.8452C9.94416 72.8452 9.94416 72.8452 9.94416 72.8452H9.94416H9.94416H9.94416C9.94416 72.8452 9.94416 72.8452 9.94416 72.8452C9.94416 72.8452 9.94416 72.8452 9.94416 72.8452C9.94416 72.8452 9.94416 72.8452 9.94416 72.8452C9.94416 72.8452 9.94416 72.8452 9.94415 72.8452C9.94415 72.8452 9.94415 72.8452 9.94415 72.8452C9.94415 72.8452 9.94415 72.8452 9.94415 72.8452C9.94415 72.8452 9.94415 72.8452 9.94415 72.8452C9.94415 72.8452 9.94415 72.8452 9.94415 72.8452C9.94415 72.8452 9.94415 72.8452 9.94415 72.8452C9.94415 72.8452 9.94415 72.8452 9.94415 72.8452C9.94415 72.8452 9.94415 72.8452 9.94415 72.8452C9.94415 72.8452 9.94415 72.8452 9.94415 72.8452C9.94415 72.8452 9.94415 72.8452 9.94415 72.8452C9.94415 72.8452 9.94415 72.8452 9.94415 72.8452C9.94415 72.8452 9.94415 72.8452 9.94414 72.8452C9.94414 72.8452 9.94414 72.8452 9.94414 72.8452C9.94414 72.8452 9.94414 72.8452 9.94414 72.8452H9.94414H9.94414H9.94414H9.94414C9.94414 72.8452 9.94414 72.8452 9.94414 72.8452C9.94414 72.8452 9.94414 72.8452 9.94414 72.8452C9.94414 72.8452 9.94414 72.8452 9.94413 72.8452C9.94413 72.8452 9.94413 72.8452 9.94413 72.8452C9.94413 72.8452 9.94413 72.8452 9.94413 72.8452H9.94413H9.94413H9.94413C9.94413 72.8452 9.94413 72.8452 9.94413 72.8452C9.94413 72.8452 9.94413 72.8452 9.94413 72.8452C9.94413 72.8452 9.94413 72.8452 9.94413 72.8452H9.94413H9.94412H9.94412C9.94412 72.8452 9.94412 72.8452 9.94412 72.8452C9.94412 72.8452 9.94412 72.8452 9.94412 72.8452C9.94412 72.8452 9.94412 72.8452 9.94412 72.8452H9.94412C9.94412 72.8452 9.94412 72.8452 9.94412 72.8452C9.94412 72.8452 9.94412 72.8452 9.94412 72.8452C9.94412 72.8452 9.94412 72.8452 9.94411 72.8452H9.94411H9.94411C9.94411 72.8452 9.94411 72.8452 9.94411 72.8452C9.94411 72.8452 9.94411 72.8452 9.94411 72.8452H9.94411H9.94411C9.94411 72.8452 9.94411 72.8452 9.94411 72.8452C9.94411 72.8452 9.94411 72.8452 9.94411 72.8452H9.9441H9.9441C9.9441 72.8452 9.9441 72.8452 9.9441 72.8452C9.9441 72.8452 9.9441 72.8452 9.9441 72.8452H9.9441C9.9441 72.8452 9.9441 72.8452 9.9441 72.8452C9.9441 72.8452 9.9441 72.8452 9.9441 72.8452H9.9441H9.94409C9.94409 72.8452 9.94409 72.8452 9.94409 72.8452C9.94409 72.8452 9.94409 72.8452 9.94409 72.8452H9.94409C9.94409 72.8452 9.94409 72.8452 9.94409 72.8452C9.94409 72.8452 9.94409 72.8452 9.94409 72.8452H9.94409H9.94409C9.94409 72.8452 9.94409 72.8452 9.94408 72.8452C9.94408 72.8452 9.94408 72.8452 9.94408 72.8452H9.94408C9.94408 72.8452 9.94408 72.8452 9.94408 72.8452C9.94408 72.8452 9.94408 72.8452 9.94408 72.8452H9.94408C9.94408 72.8452 9.94408 72.8452 9.94408 72.8452C9.94408 72.8452 9.94408 72.8452 9.94408 72.8452H9.94407C9.94407 72.8452 9.94407 72.8452 9.94407 72.8452C9.94407 72.8452 9.94407 72.8452 9.94407 72.8452H9.94407C9.94407 72.8452 9.94407 72.8452 9.94407 72.8452C9.94407 72.8452 9.94407 72.8452 9.94407 72.8452H9.94407H9.94407C9.94407 72.8452 9.94407 72.8452 9.94406 72.8452H9.94406H9.94406C9.94406 72.8452 9.94406 72.8452 9.94406 72.8452H9.94406H9.94406C9.94406 72.8452 9.94406 72.8452 9.94406 72.8452C9.94406 72.8452 9.94406 72.8452 9.94406 72.8452H9.94405C9.94405 72.8452 9.94405 72.8452 9.94405 72.8452C9.94405 72.8452 9.94405 72.8452 9.94405 72.8452H9.94405C9.94405 72.8452 9.94405 72.8452 9.94405 72.8452C9.94405 72.8452 9.94405 72.8452 9.94405 72.8452H9.94405C9.94405 72.8452 9.94405 72.8452 9.94405 72.8452C9.94405 72.8452 9.94405 72.8452 9.94404 72.8452H9.94404H9.94404C9.94404 72.8452 9.94404 72.8452 9.94404 72.8452C9.94404 72.8452 9.94404 72.8452 9.94404 72.8452H9.94404C9.94404 72.8452 9.94404 72.8452 9.94404 72.8452C9.94404 72.8452 9.94404 72.8452 9.94404 72.8452H9.94403H9.94403C9.94403 72.8452 9.94403 72.8452 9.94403 72.8452C9.94403 72.8452 9.94403 72.8452 9.94403 72.8452H9.94403C9.94403 72.8452 9.94403 72.8452 9.94403 72.8452C9.94403 72.8452 9.94403 72.8452 9.94403 72.8452C9.94403 72.8452 9.94403 72.8452 9.94403 72.8452H9.94403C9.94402 72.8452 9.94402 72.8452 9.94402 72.8452C9.94402 72.8452 9.94402 72.8452 9.94402 72.8452C9.94402 72.8452 9.94402 72.8452 9.94402 72.8452H9.94402C9.94402 72.8452 9.94402 72.8452 9.94402 72.8452C9.94402 72.8452 9.94402 72.8452 9.94402 72.8452C9.94402 72.8452 9.94402 72.8452 9.94402 72.8452H9.94402H9.94401C9.94401 72.8452 9.94401 72.8452 9.94401 72.8452C9.94401 72.8452 9.94401 72.8452 9.94401 72.8452C9.94401 72.8452 9.94401 72.8452 9.94401 72.8452H9.94401H9.94401C9.94401 72.8452 9.94401 72.8452 9.94401 72.8452C9.94401 72.8452 9.94401 72.8452 9.94401 72.8452C9.94401 72.8452 9.94401 72.8452 9.94401 72.8452C9.94401 72.8452 9.94401 72.8452 9.944 72.8452H9.944H9.944C9.944 72.8452 9.944 72.8452 9.944 72.8452C9.944 72.8452 9.944 72.8452 9.944 72.8452C9.944 72.8452 9.944 72.8452 9.944 72.8452C9.944 72.8452 9.944 72.8452 9.944 72.8452C9.944 72.8452 9.944 72.8452 9.944 72.8452H9.944H9.94399H9.94399H9.94399C9.94399 72.8452 9.94399 72.8452 9.94399 72.8452C9.94399 72.8452 9.94399 72.8452 9.94399 72.8452C9.94399 72.8452 9.94399 72.8452 9.94399 72.8452C9.94399 72.8452 9.94399 72.8452 9.94399 72.8452C9.94399 72.8452 9.94399 72.8452 9.94399 72.8452C9.94399 72.8452 9.94399 72.8452 9.94399 72.8452C9.94399 72.8452 9.94399 72.8452 9.94398 72.8452C9.94398 72.8452 9.94398 72.8452 9.94398 72.8452C9.94398 72.8452 9.94398 72.8452 9.94398 72.8452C9.94398 72.8452 9.94398 72.8452 9.94398 72.8452C9.94398 72.8452 9.94398 72.8452 9.94398 72.8452C9.94398 72.8452 9.94398 72.8452 9.94398 72.8452C9.94398 72.8452 9.94398 72.8452 9.94398 72.8452C9.94398 72.8452 9.94398 72.8452 9.94398 72.8452C9.94398 72.8452 9.94398 72.8452 9.94398 72.8452C9.94398 72.8452 9.94398 72.8452 9.94398 72.8452C9.94398 72.8452 9.94398 72.8452 9.94398 72.8452C9.94397 72.8452 9.94397 72.8452 9.94397 72.8452C9.94397 72.8452 9.94397 72.8452 9.94397 72.8452H9.94397H9.94397C9.94397 72.8452 9.94397 72.8452 9.94397 72.8452C9.94397 72.8452 9.94397 72.8452 9.94397 72.8452C9.94397 72.8452 9.94397 72.8452 9.94397 72.8452C9.94397 72.8452 9.94397 72.8452 9.94397 72.8452H9.94397H9.94397C9.94397 72.8452 9.94397 72.8452 9.94396 72.8452C9.94396 72.8452 9.94396 72.8452 9.94396 72.8452H9.94396C9.94396 72.8452 9.94396 72.8452 9.94396 72.8452C9.94396 72.8452 9.94396 72.8452 9.94396 72.8452H9.94396C9.94396 72.8452 9.94396 72.8452 9.94396 72.8452C9.94396 72.8452 9.94396 72.8452 9.94396 72.8452C9.94396 72.8452 9.94396 72.8452 9.94396 72.8452C9.94396 72.8452 9.94396 72.8452 9.94396 72.8452C9.94396 72.8452 9.94396 72.8452 9.94396 72.8452H9.94395C9.94395 72.8452 9.94395 72.8452 9.94395 72.8452C9.94395 72.8452 9.94395 72.8452 9.94395 72.8452H9.94395H9.94395H9.94395H9.94395C9.94395 72.8452 9.94395 72.8452 9.94395 72.8452H9.94395C9.94395 72.8452 9.94395 72.8452 9.94395 72.8452C9.94394 72.8452 9.94394 72.8452 9.94394 72.8452C9.94394 72.8452 9.94394 72.8452 9.94394 72.8452C9.94394 72.8452 9.94394 72.8452 9.94394 72.8452C9.94394 72.8452 9.94394 73.8452 9.94394 74.8452C9.94394 74.8452 9.94394 74.8452 9.94394 74.8452C9.94394 74.8452 9.94394 74.8452 9.94394 74.8452H9.94395H9.94395C9.94395 74.8452 9.94395 74.8452 9.94395 74.8452C9.94395 74.8452 9.94395 74.8452 9.94395 74.8452C9.94395 74.8452 9.94395 74.8452 9.94395 74.8452C9.94395 74.8452 9.94395 74.8452 9.94395 74.8452C9.94395 74.8452 9.94395 74.8452 9.94395 74.8452H9.94395C9.94395 74.8452 9.94395 74.8452 9.94395 74.8452H9.94395C9.94395 74.8452 9.94395 74.8452 9.94396 74.8452C9.94396 74.8452 9.94396 74.8452 9.94396 74.8452H9.94396C9.94396 74.8452 9.94396 74.8452 9.94396 74.8452C9.94396 74.8452 9.94396 74.8452 9.94396 74.8452C9.94396 74.8452 9.94396 74.8452 9.94396 74.8452H9.94396H9.94396H9.94396H9.94396H9.94396H9.94397H9.94397H9.94397H9.94397H9.94397C9.94397 74.8452 9.94397 74.8452 9.94397 74.8452C9.94397 74.8452 9.94397 74.8452 9.94397 74.8452C9.94397 74.8452 9.94397 74.8452 9.94397 74.8452C9.94397 74.8452 9.94397 74.8452 9.94397 74.8452H9.94398C9.94398 74.8452 9.94398 74.8452 9.94398 74.8452C9.94398 74.8452 9.94398 74.8452 9.94398 74.8452C9.94398 74.8452 9.94398 74.8452 9.94398 74.8452H9.94398C9.94398 74.8452 9.94398 74.8452 9.94398 74.8452H9.94398H9.94398C9.94398 74.8452 9.94398 74.8452 9.94399 74.8452H9.94399C9.94399 74.8452 9.94399 74.8452 9.94399 74.8452H9.94399C9.94399 74.8452 9.94399 74.8452 9.94399 74.8452H9.94399C9.94399 74.8452 9.94399 74.8452 9.94399 74.8452C9.944 74.8452 9.944 74.8452 9.944 74.8452H9.944C9.944 74.8452 9.944 74.8452 9.944 74.8452C9.944 74.8452 9.944 74.8452 9.944 74.8452H9.944C9.944 74.8452 9.944 74.8452 9.944 74.8452C9.94401 74.8452 9.94401 74.8452 9.94401 74.8452C9.94401 74.8452 9.94401 74.8452 9.94401 74.8452C9.94401 74.8452 9.94401 74.8452 9.94401 74.8452H9.94401C9.94401 74.8452 9.94401 74.8452 9.94401 74.8452C9.94401 74.8452 9.94401 74.8452 9.94401 74.8452C9.94402 74.8452 9.94402 74.8452 9.94402 74.8452C9.94402 74.8452 9.94402 74.8452 9.94402 74.8452C9.94402 74.8452 9.94402 74.8452 9.94402 74.8452C9.94402 74.8452 9.94402 74.8452 9.94402 74.8452C9.94402 74.8452 9.94402 74.8452 9.94402 74.8452C9.94403 74.8452 9.94403 74.8452 9.94403 74.8452C9.94403 74.8452 9.94403 74.8452 9.94403 74.8452C9.94403 74.8452 9.94403 74.8452 9.94403 74.8452C9.94403 74.8452 9.94403 74.8452 9.94403 74.8452C9.94403 74.8452 9.94403 74.8452 9.94403 74.8452C9.94404 74.8452 9.94404 74.8452 9.94404 74.8452C9.94404 74.8452 9.94404 74.8452 9.94404 74.8452C9.94404 74.8452 9.94404 74.8452 9.94404 74.8452C9.94404 74.8452 9.94404 74.8452 9.94404 74.8452C9.94404 74.8452 9.94405 74.8452 9.94405 74.8452C9.94405 74.8452 9.94405 74.8452 9.94405 74.8452C9.94405 74.8452 9.94405 74.8452 9.94405 74.8452C9.94405 74.8452 9.94405 74.8452 9.94405 74.8452C9.94405 74.8452 9.94405 74.8452 9.94405 74.8452C9.94406 74.8452 9.94406 74.8452 9.94406 74.8452C9.94406 74.8452 9.94406 74.8452 9.94406 74.8452C9.94406 74.8452 9.94406 74.8452 9.94406 74.8452C9.94406 74.8452 9.94406 74.8452 9.94406 74.8452C9.94407 74.8452 9.94407 74.8452 9.94407 74.8452V72.8452C9.94407 72.8452 9.94407 72.8452 9.94406 72.8452C9.94406 72.8452 9.94406 72.8452 9.94406 72.8452C9.94406 72.8452 9.94406 72.8452 9.94406 72.8452C9.94406 72.8452 9.94406 72.8452 9.94406 72.8452C9.94406 72.8452 9.94406 72.8452 9.94405 72.8452C9.94405 72.8452 9.94405 72.8452 9.94405 72.8452C9.94405 72.8452 9.94405 72.8452 9.94405 72.8452C9.94405 72.8452 9.94405 72.8452 9.94405 72.8452C9.94405 72.8452 9.94405 72.8452 9.94405 72.8452C9.94405 72.8452 9.94404 72.8452 9.94404 72.8452C9.94404 72.8452 9.94404 72.8452 9.94404 72.8452C9.94404 72.8452 9.94404 72.8452 9.94404 72.8452C9.94404 72.8452 9.94404 72.8452 9.94404 72.8452C9.94404 72.8452 9.94404 72.8452 9.94403 72.8452C9.94403 72.8452 9.94403 72.8452 9.94403 72.8452C9.94403 72.8452 9.94403 72.8452 9.94403 72.8452C9.94403 72.8452 9.94403 72.8452 9.94403 72.8452C9.94403 72.8452 9.94403 72.8452 9.94403 72.8452C9.94403 72.8452 9.94403 72.8452 9.94402 72.8452C9.94402 72.8452 9.94402 72.8452 9.94402 72.8452C9.94402 72.8452 9.94402 72.8452 9.94402 72.8452C9.94402 72.8452 9.94402 72.8452 9.94402 72.8452C9.94402 72.8452 9.94402 72.8452 9.94402 72.8452C9.94402 72.8452 9.94402 72.8452 9.94401 72.8452C9.94401 72.8452 9.94401 72.8452 9.94401 72.8452C9.94401 72.8452 9.94401 72.8452 9.94401 72.8452H9.94401C9.94401 72.8452 9.94401 72.8452 9.94401 72.8452C9.94401 72.8452 9.94401 72.8452 9.94401 72.8452C9.94401 72.8452 9.94401 72.8452 9.944 72.8452C9.944 72.8452 9.944 72.8452 9.944 72.8452H9.944C9.944 72.8452 9.944 72.8452 9.944 72.8452C9.944 72.8452 9.944 72.8452 9.944 72.8452H9.944C9.944 72.8452 9.944 72.8452 9.94399 72.8452C9.94399 72.8452 9.94399 72.8452 9.94399 72.8452H9.94399C9.94399 72.8452 9.94399 72.8452 9.94399 72.8452H9.94399C9.94399 72.8452 9.94399 72.8452 9.94399 72.8452H9.94399C9.94398 72.8452 9.94398 72.8452 9.94398 72.8452H9.94398H9.94398C9.94398 72.8452 9.94398 72.8452 9.94398 72.8452H9.94398C9.94398 72.8452 9.94398 72.8452 9.94398 72.8452C9.94398 72.8452 9.94398 72.8452 9.94398 72.8452C9.94398 72.8452 9.94398 72.8452 9.94398 72.8452H9.94397C9.94397 72.8452 9.94397 72.8452 9.94397 72.8452C9.94397 72.8452 9.94397 72.8452 9.94397 72.8452C9.94397 72.8452 9.94397 72.8452 9.94397 72.8452C9.94397 72.8452 9.94397 72.8452 9.94397 72.8452H9.94397H9.94397H9.94397H9.94397H9.94396H9.94396H9.94396H9.94396H9.94396H9.94396C9.94396 72.8452 9.94396 72.8452 9.94396 72.8452C9.94396 72.8452 9.94396 72.8452 9.94396 72.8452C9.94396 72.8452 9.94396 72.8452 9.94396 72.8452H9.94396C9.94396 72.8452 9.94396 72.8452 9.94396 72.8452C9.94395 72.8452 9.94395 72.8452 9.94395 72.8452H9.94395C9.94395 72.8452 9.94395 72.8452 9.94395 72.8452H9.94395C9.94395 72.8452 9.94395 72.8452 9.94395 72.8452C9.94395 72.8452 9.94395 72.8452 9.94395 72.8452C9.94395 72.8452 9.94395 72.8452 9.94395 72.8452C9.94395 72.8452 9.94395 72.8452 9.94395 72.8452C9.94395 72.8452 9.94395 72.8452 9.94395 72.8452H9.94395H9.94394C9.94394 72.8452 9.94394 72.8452 9.94394 72.8452C9.94394 72.8452 9.94394 72.8452 9.94394 72.8452C9.94394 73.8452 9.94394 74.8452 9.94394 74.8452C9.94394 74.8452 9.94394 74.8452 9.94394 74.8452C9.94394 74.8452 9.94394 74.8452 9.94394 74.8452C9.94394 74.8452 9.94394 74.8452 9.94395 74.8452C9.94395 74.8452 9.94395 74.8452 9.94395 74.8452H9.94395C9.94395 74.8452 9.94395 74.8452 9.94395 74.8452H9.94395H9.94395H9.94395H9.94395C9.94395 74.8452 9.94395 74.8452 9.94395 74.8452C9.94395 74.8452 9.94395 74.8452 9.94395 74.8452H9.94396C9.94396 74.8452 9.94396 74.8452 9.94396 74.8452C9.94396 74.8452 9.94396 74.8452 9.94396 74.8452C9.94396 74.8452 9.94396 74.8452 9.94396 74.8452C9.94396 74.8452 9.94396 74.8452 9.94396 74.8452C9.94396 74.8452 9.94396 74.8452 9.94396 74.8452H9.94396C9.94396 74.8452 9.94396 74.8452 9.94396 74.8452C9.94396 74.8452 9.94396 74.8452 9.94396 74.8452H9.94396C9.94396 74.8452 9.94396 74.8452 9.94396 74.8452C9.94397 74.8452 9.94397 74.8452 9.94397 74.8452H9.94397H9.94397C9.94397 74.8452 9.94397 74.8452 9.94397 74.8452C9.94397 74.8452 9.94397 74.8452 9.94397 74.8452C9.94397 74.8452 9.94397 74.8452 9.94397 74.8452C9.94397 74.8452 9.94397 74.8452 9.94397 74.8452H9.94397H9.94397C9.94397 74.8452 9.94397 74.8452 9.94397 74.8452C9.94397 74.8452 9.94397 74.8452 9.94398 74.8452C9.94398 74.8452 9.94398 74.8452 9.94398 74.8452C9.94398 74.8452 9.94398 74.8452 9.94398 74.8452C9.94398 74.8452 9.94398 74.8452 9.94398 74.8452C9.94398 74.8452 9.94398 74.8452 9.94398 74.8452C9.94398 74.8452 9.94398 74.8452 9.94398 74.8452C9.94398 74.8452 9.94398 74.8452 9.94398 74.8452C9.94398 74.8452 9.94398 74.8452 9.94398 74.8452C9.94398 74.8452 9.94398 74.8452 9.94398 74.8452C9.94398 74.8452 9.94398 74.8452 9.94398 74.8452C9.94398 74.8452 9.94398 74.8452 9.94398 74.8452C9.94399 74.8452 9.94399 74.8452 9.94399 74.8452C9.94399 74.8452 9.94399 74.8452 9.94399 74.8452C9.94399 74.8452 9.94399 74.8452 9.94399 74.8452C9.94399 74.8452 9.94399 74.8452 9.94399 74.8452C9.94399 74.8452 9.94399 74.8452 9.94399 74.8452C9.94399 74.8452 9.94399 74.8452 9.94399 74.8452C9.94399 74.8452 9.94399 74.8452 9.94399 74.8452H9.94399H9.94399H9.944H9.944C9.944 74.8452 9.944 74.8452 9.944 74.8452C9.944 74.8452 9.944 74.8452 9.944 74.8452C9.944 74.8452 9.944 74.8452 9.944 74.8452C9.944 74.8452 9.944 74.8452 9.944 74.8452C9.944 74.8452 9.944 74.8452 9.944 74.8452H9.944H9.944C9.94401 74.8452 9.94401 74.8452 9.94401 74.8452C9.94401 74.8452 9.94401 74.8452 9.94401 74.8452C9.94401 74.8452 9.94401 74.8452 9.94401 74.8452C9.94401 74.8452 9.94401 74.8452 9.94401 74.8452H9.94401H9.94401C9.94401 74.8452 9.94401 74.8452 9.94401 74.8452C9.94401 74.8452 9.94401 74.8452 9.94401 74.8452C9.94401 74.8452 9.94401 74.8452 9.94401 74.8452H9.94402H9.94402C9.94402 74.8452 9.94402 74.8452 9.94402 74.8452C9.94402 74.8452 9.94402 74.8452 9.94402 74.8452C9.94402 74.8452 9.94402 74.8452 9.94402 74.8452H9.94402C9.94402 74.8452 9.94402 74.8452 9.94402 74.8452C9.94402 74.8452 9.94402 74.8452 9.94402 74.8452C9.94402 74.8452 9.94402 74.8452 9.94403 74.8452H9.94403C9.94403 74.8452 9.94403 74.8452 9.94403 74.8452C9.94403 74.8452 9.94403 74.8452 9.94403 74.8452C9.94403 74.8452 9.94403 74.8452 9.94403 74.8452H9.94403C9.94403 74.8452 9.94403 74.8452 9.94403 74.8452C9.94403 74.8452 9.94403 74.8452 9.94403 74.8452H9.94403H9.94404C9.94404 74.8452 9.94404 74.8452 9.94404 74.8452C9.94404 74.8452 9.94404 74.8452 9.94404 74.8452H9.94404C9.94404 74.8452 9.94404 74.8452 9.94404 74.8452C9.94404 74.8452 9.94404 74.8452 9.94404 74.8452H9.94404H9.94404C9.94405 74.8452 9.94405 74.8452 9.94405 74.8452C9.94405 74.8452 9.94405 74.8452 9.94405 74.8452H9.94405C9.94405 74.8452 9.94405 74.8452 9.94405 74.8452C9.94405 74.8452 9.94405 74.8452 9.94405 74.8452H9.94405C9.94405 74.8452 9.94405 74.8452 9.94405 74.8452C9.94405 74.8452 9.94405 74.8452 9.94405 74.8452H9.94406C9.94406 74.8452 9.94406 74.8452 9.94406 74.8452C9.94406 74.8452 9.94406 74.8452 9.94406 74.8452H9.94406H9.94406C9.94406 74.8452 9.94406 74.8452 9.94406 74.8452H9.94406H9.94406C9.94407 74.8452 9.94407 74.8452 9.94407 74.8452H9.94407H9.94407C9.94407 74.8452 9.94407 74.8452 9.94407 74.8452C9.94407 74.8452 9.94407 74.8452 9.94407 74.8452H9.94407C9.94407 74.8452 9.94407 74.8452 9.94407 74.8452C9.94407 74.8452 9.94407 74.8452 9.94407 74.8452H9.94408C9.94408 74.8452 9.94408 74.8452 9.94408 74.8452C9.94408 74.8452 9.94408 74.8452 9.94408 74.8452H9.94408C9.94408 74.8452 9.94408 74.8452 9.94408 74.8452C9.94408 74.8452 9.94408 74.8452 9.94408 74.8452H9.94408C9.94408 74.8452 9.94408 74.8452 9.94408 74.8452C9.94409 74.8452 9.94409 74.8452 9.94409 74.8452H9.94409H9.94409C9.94409 74.8452 9.94409 74.8452 9.94409 74.8452C9.94409 74.8452 9.94409 74.8452 9.94409 74.8452H9.94409C9.94409 74.8452 9.94409 74.8452 9.94409 74.8452C9.94409 74.8452 9.94409 74.8452 9.94409 74.8452H9.9441H9.9441C9.9441 74.8452 9.9441 74.8452 9.9441 74.8452C9.9441 74.8452 9.9441 74.8452 9.9441 74.8452H9.9441C9.9441 74.8452 9.9441 74.8452 9.9441 74.8452C9.9441 74.8452 9.9441 74.8452 9.9441 74.8452H9.9441H9.94411C9.94411 74.8452 9.94411 74.8452 9.94411 74.8452C9.94411 74.8452 9.94411 74.8452 9.94411 74.8452H9.94411H9.94411C9.94411 74.8452 9.94411 74.8452 9.94411 74.8452C9.94411 74.8452 9.94411 74.8452 9.94411 74.8452H9.94411H9.94411C9.94412 74.8452 9.94412 74.8452 9.94412 74.8452C9.94412 74.8452 9.94412 74.8452 9.94412 74.8452C9.94412 74.8452 9.94412 74.8452 9.94412 74.8452H9.94412C9.94412 74.8452 9.94412 74.8452 9.94412 74.8452C9.94412 74.8452 9.94412 74.8452 9.94412 74.8452C9.94412 74.8452 9.94412 74.8452 9.94412 74.8452H9.94412H9.94413H9.94413C9.94413 74.8452 9.94413 74.8452 9.94413 74.8452C9.94413 74.8452 9.94413 74.8452 9.94413 74.8452C9.94413 74.8452 9.94413 74.8452 9.94413 74.8452H9.94413H9.94413H9.94413C9.94413 74.8452 9.94413 74.8452 9.94413 74.8452C9.94413 74.8452 9.94413 74.8452 9.94413 74.8452C9.94414 74.8452 9.94414 74.8452 9.94414 74.8452C9.94414 74.8452 9.94414 74.8452 9.94414 74.8452C9.94414 74.8452 9.94414 74.8452 9.94414 74.8452H9.94414H9.94414H9.94414H9.94414C9.94414 74.8452 9.94414 74.8452 9.94414 74.8452C9.94414 74.8452 9.94414 74.8452 9.94414 74.8452C9.94415 74.8452 9.94415 74.8452 9.94415 74.8452C9.94415 74.8452 9.94415 74.8452 9.94415 74.8452C9.94415 74.8452 9.94415 74.8452 9.94415 74.8452C9.94415 74.8452 9.94415 74.8452 9.94415 74.8452C9.94415 74.8452 9.94415 74.8452 9.94415 74.8452C9.94415 74.8452 9.94415 74.8452 9.94415 74.8452C9.94415 74.8452 9.94415 74.8452 9.94415 74.8452C9.94415 74.8452 9.94415 74.8452 9.94415 74.8452C9.94415 74.8452 9.94415 74.8452 9.94415 74.8452C9.94415 74.8452 9.94415 74.8452 9.94415 74.8452C9.94415 74.8452 9.94415 74.8452 9.94415 74.8452C9.94416 74.8452 9.94416 74.8452 9.94416 74.8452C9.94416 74.8452 9.94416 74.8452 9.94416 74.8452C9.94416 74.8452 9.94416 74.8452 9.94416 74.8452C9.94416 74.8452 9.94416 74.8452 9.94416 74.8452H9.94416H9.94416H9.94416C9.94416 74.8452 9.94416 74.8452 9.94416 74.8452C9.94416 74.8452 9.94416 74.8452 9.94416 74.8452C9.94416 74.8452 9.94416 74.8452 9.94416 74.8452C9.94417 74.8452 9.94417 74.8452 9.94417 74.8452C9.94417 74.8452 9.94417 74.8452 9.94417 74.8452H9.94417C9.94417 74.8452 9.94417 74.8452 9.94417 74.8452C9.94417 74.8452 9.94417 74.8452 9.94417 74.8452C9.94417 74.8452 9.94417 74.8452 9.94417 74.8452H9.94417C9.94417 74.8452 9.94417 74.8452 9.94417 74.8452C9.94417 74.8452 9.94417 74.8452 9.94417 74.8452H9.94417C9.94417 74.8452 9.94417 74.8452 9.94417 74.8452H9.94418C9.94418 74.8452 9.94418 74.8452 9.94418 74.8452H9.94418C9.94418 74.8452 9.94418 74.8452 9.94418 74.8452H9.94418C9.94418 74.8452 9.94418 74.8452 9.94418 74.8452C9.94418 74.8452 9.94418 74.8452 9.94418 74.8452C9.94418 74.8452 9.94418 74.8452 9.94418 74.8452C9.94418 74.8452 9.94418 74.8452 9.94418 74.8452C9.94418 74.8452 9.94418 74.8452 9.94418 74.8452C9.94418 74.8452 9.94418 74.8452 9.94419 74.8452C9.94419 74.8452 9.94419 74.8452 9.94419 74.8452H9.94419H9.94419H9.94419H9.94419C9.94419 74.8452 9.94419 74.8452 9.94419 74.8452C9.94419 74.8452 9.94419 73.8452 9.94419 72.8452H9.94419C9.94419 72.8452 9.94419 72.8452 9.94419 72.8452C9.94419 72.8452 9.94419 72.8452 9.94419 72.8452C9.94419 72.8452 9.94419 72.8452 9.94419 72.8452C9.94419 72.8452 9.94419 72.8452 9.94419 72.8452C9.94419 72.8452 9.94419 72.8452 9.94419 72.8452C9.94418 72.8452 9.94418 72.8452 9.94418 72.8452C9.94418 72.8452 9.94418 72.8452 9.94418 72.8452C9.94418 72.8452 9.94418 72.8452 9.94418 72.8452H9.94418C9.94418 72.8452 9.94418 72.8452 9.94418 72.8452H9.94418C9.94418 72.8452 9.94418 72.8452 9.94418 72.8452C9.94418 72.8452 9.94418 72.8452 9.94418 72.8452H9.94418C9.94418 72.8452 9.94418 72.8452 9.94418 72.8452C9.94418 72.8452 9.94418 72.8452 9.94417 72.8452C9.94417 72.8452 9.94417 72.8452 9.94417 72.8452C9.94417 72.8452 9.94417 72.8452 9.94417 72.8452H9.94417H9.94417H9.94417H9.94417H9.94417H9.94417H9.94417H9.94417C9.94416 72.8452 9.94416 72.8452 9.94416 72.8452C9.94416 72.8452 9.94416 72.8452 9.94416 72.8452C9.94416 72.8452 9.94416 72.8452 9.94416 72.8452C9.94416 72.8452 9.94416 72.8452 9.94416 72.8452H9.94416H9.94416C9.94416 72.8452 9.94416 72.8452 9.94416 72.8452C9.94416 72.8452 9.94416 72.8452 9.94416 72.8452H9.94415H9.94415C9.94415 72.8452 9.94415 72.8452 9.94415 72.8452H9.94415C9.94415 72.8452 9.94415 72.8452 9.94415 72.8452C9.94415 72.8452 9.94415 72.8452 9.94415 72.8452H9.94415C9.94415 72.8452 9.94415 72.8452 9.94415 72.8452H9.94414C9.94414 72.8452 9.94414 72.8452 9.94414 72.8452C9.94414 72.8452 9.94414 72.8452 9.94414 72.8452H9.94414C9.94414 72.8452 9.94414 72.8452 9.94414 72.8452H9.94414C9.94414 72.8452 9.94414 72.8452 9.94413 72.8452C9.94413 72.8452 9.94413 72.8452 9.94413 72.8452H9.94413C9.94413 72.8452 9.94413 72.8452 9.94413 72.8452C9.94413 72.8452 9.94413 72.8452 9.94413 72.8452C9.94413 72.8452 9.94413 72.8452 9.94413 72.8452C9.94413 72.8452 9.94413 72.8452 9.94412 72.8452C9.94412 72.8452 9.94412 72.8452 9.94412 72.8452H9.94412C9.94412 72.8452 9.94412 72.8452 9.94412 72.8452C9.94412 72.8452 9.94412 72.8452 9.94412 72.8452C9.94412 72.8452 9.94412 72.8452 9.94412 72.8452C9.94411 72.8452 9.94411 72.8452 9.94411 72.8452C9.94411 72.8452 9.94411 72.8452 9.94411 72.8452C9.94411 72.8452 9.94411 72.8452 9.94411 72.8452C9.94411 72.8452 9.94411 72.8452 9.94411 72.8452C9.94411 72.8452 9.94411 72.8452 9.94411 72.8452C9.94411 72.8452 9.9441 72.8452 9.9441 72.8452C9.9441 72.8452 9.9441 72.8452 9.9441 72.8452C9.9441 72.8452 9.9441 72.8452 9.9441 72.8452C9.9441 72.8452 9.9441 72.8452 9.9441 72.8452C9.9441 72.8452 9.9441 72.8452 9.94409 72.8452C9.94409 72.8452 9.94409 72.8452 9.94409 72.8452C9.94409 72.8452 9.94409 72.8452 9.94409 72.8452C9.94409 72.8452 9.94409 72.8452 9.94409 72.8452C9.94409 72.8452 9.94409 72.8452 9.94409 72.8452C9.94409 72.8452 9.94408 72.8452 9.94408 72.8452C9.94408 72.8452 9.94408 72.8452 9.94408 72.8452C9.94408 72.8452 9.94408 72.8452 9.94408 72.8452C9.94408 72.8452 9.94408 72.8452 9.94408 72.8452C9.94408 72.8452 9.94408 72.8452 9.94407 72.8452C9.94407 72.8452 9.94407 72.8452 9.94407 72.8452C9.94407 72.8452 9.94407 72.8452 9.94407 72.8452C9.94407 72.8452 9.94407 72.8452 9.94407 72.8452V74.8452ZM9.94407 74.8452C15.4314 74.8452 19.9043 70.4006 19.9062 64.9264L17.9062 64.9257C17.9047 69.2871 14.3356 72.8452 9.94407 72.8452V74.8452ZM19.9062 64.9264C19.9072 62.2763 18.8697 59.7804 16.9893 57.9072L15.5778 59.3241C17.0821 60.8227 17.907 62.8088 17.9062 64.9257L19.9062 64.9264ZM9.94407 71.3389H9.94106V73.3389H9.94407V71.3389ZM9.94138 71.3389C8.78264 71.3385 7.64707 71.0285 6.65783 70.4445L5.64113 72.1668C6.93982 72.9334 8.42651 73.3384 9.94074 73.3389L9.94138 71.3389ZM6.65836 70.4448L6.38634 70.284L5.36858 72.0057L5.6406 72.1665L6.65836 70.4448ZM5.62487 70.1773L2.80536 70.9133L3.31053 72.8484L6.13004 72.1124L5.62487 70.1773ZM4.02214 72.1461L4.77461 69.4102L2.84622 68.8798L2.09375 71.6157L4.02214 72.1461ZM4.6561 68.6113L4.47905 68.3308L2.78769 69.3982L2.96474 69.6787L4.6561 68.6113ZM4.47883 68.3304C3.83454 67.3104 3.49382 66.1316 3.49456 64.9198L1.49456 64.9186C1.49359 66.508 1.94101 68.0577 2.78791 69.3985L4.47883 68.3304ZM3.49456 64.9196C3.49605 61.3889 6.38556 58.5063 9.94708 58.5063V56.5063C5.29028 56.5063 1.49651 60.2749 1.49456 64.9187L3.49456 64.9196ZM9.94665 58.5063C11.6726 58.507 13.289 59.1746 14.5077 60.3889L15.9193 58.9722C14.325 57.3835 12.2009 56.5072 9.9475 56.5063L9.94665 58.5063ZM14.5078 60.3891C15.7262 61.6028 16.3939 63.2108 16.3931 64.9247L18.3931 64.9256C18.3941 62.6784 17.5139 60.5605 15.9192 58.9721L14.5078 60.3891ZM16.3931 64.9247C16.3917 68.4563 13.5017 71.3389 9.94407 71.3389V73.3389C14.5978 73.3389 18.3912 69.5695 18.3931 64.9256L16.3931 64.9247ZM14.4762 65.8915C14.3591 65.8331 14.0234 65.6683 13.6909 65.5086C13.3899 65.364 13.0033 65.1803 12.8403 65.1213L12.1591 67.0017C12.1508 66.9987 12.1641 67.0035 12.2127 67.0248C12.2549 67.0434 12.3093 67.0681 12.3742 67.0981C12.5034 67.1579 12.6624 67.2333 12.825 67.3114C13.1503 67.4677 13.477 67.6281 13.5838 67.6813L14.4762 65.8915ZM12.8403 65.1213C12.7679 65.0951 12.4632 64.9723 12.1135 65.0121C11.6533 65.0646 11.347 65.3445 11.1645 65.6177L12.8276 66.7286C12.8171 66.7443 12.773 66.8067 12.6827 66.8699C12.5828 66.94 12.4631 66.9852 12.34 66.9992C12.2296 67.0118 12.1509 66.9953 12.1298 66.9904C12.112 66.9863 12.1115 66.9844 12.1591 67.0017L12.8403 65.1213ZM11.1645 65.6177C11.1226 65.6804 11.0102 65.824 10.8641 66.0006C10.7282 66.1648 10.5949 66.3197 10.5364 66.3861L12.0376 67.7076C12.1573 67.5716 12.6344 67.0178 12.8276 66.7286L11.1645 65.6177ZM10.5355 66.3872C10.5665 66.3519 10.7084 66.2097 10.9601 66.1795C11.1705 66.1542 11.2943 66.2306 11.248 66.2075L10.3556 67.9974C10.5332 68.0859 10.8343 68.209 11.1987 68.1652C11.6043 68.1164 11.8769 67.8907 12.0385 67.7065L10.5355 66.3872ZM11.248 66.2075C10.9256 66.0468 10.3907 65.8928 9.66446 65.2485L8.33712 66.7445C8.83257 67.1841 9.29434 67.4762 9.66875 67.6752C9.85513 67.7743 10.0168 67.8487 10.1428 67.9043C10.2021 67.9304 10.2614 67.9558 10.2969 67.9713C10.3168 67.9799 10.3312 67.9862 10.3423 67.9913C10.3538 67.9964 10.3572 67.9982 10.3556 67.9974L11.248 66.2075ZM9.66475 65.2487C9.11778 64.7631 8.73172 64.1417 8.61806 63.9475L6.8919 64.9576C7.03952 65.2099 7.55248 66.0478 8.33684 66.7443L9.66475 65.2487ZM8.61806 63.9475C8.63742 63.9806 8.67647 64.0591 8.69143 64.1764C8.70737 64.3014 8.69013 64.4252 8.64986 64.533C8.61313 64.6313 8.566 64.693 8.54885 64.7142C8.53464 64.7317 8.52582 64.739 8.557 64.7081L7.14893 63.2878C7.12022 63.3163 6.89253 63.522 6.7763 63.8332C6.62406 64.2407 6.70654 64.6409 6.8919 64.9576L8.61806 63.9475ZM8.55837 64.7068C8.69138 64.5744 8.89942 64.3149 8.94619 64.2607L7.43184 62.9543C7.25429 63.1601 7.21567 63.2214 7.14756 63.2892L8.55837 64.7068ZM8.94619 64.2607C9.15848 64.0146 9.25634 63.7843 9.30595 63.6858L7.51987 62.7859C7.50857 62.8083 7.49832 62.829 7.48954 62.8468C7.48014 62.8659 7.47362 62.8792 7.46673 62.893C7.45342 62.9198 7.44697 62.932 7.44289 62.9392C7.4398 62.9447 7.43918 62.9454 7.43981 62.9445C7.44037 62.9437 7.43853 62.9465 7.43184 62.9543L8.94619 64.2607ZM9.30647 63.6848C9.58716 63.1261 9.40632 62.6329 9.28869 62.3978L7.50018 63.2929C7.49984 63.2923 7.49242 63.2775 7.48388 63.2522C7.47511 63.2262 7.46399 63.1857 7.45837 63.1334C7.44561 63.0144 7.46734 62.8904 7.51935 62.7869L9.30647 63.6848ZM9.28869 62.3978C9.29355 62.4075 9.27141 62.3584 9.21112 62.215C9.15953 62.0922 9.0934 61.9329 9.02234 61.7612C8.88163 61.4211 8.72076 61.03 8.62613 60.8042L6.78156 61.5772C6.87386 61.7975 7.03036 62.1779 7.17424 62.5257C7.30378 62.8388 7.45109 63.1948 7.50018 63.2929L9.28869 62.3978ZM8.62637 60.8048C8.49098 60.4811 8.26748 60.1254 7.86082 59.9342C7.66502 59.8421 7.48697 59.8182 7.36884 59.8114C7.31477 59.8082 7.26739 59.8086 7.24999 59.8086C7.22213 59.8088 7.23586 59.8084 7.25315 59.8093L7.14723 61.8065C7.19879 61.8093 7.24829 61.8087 7.25748 61.8086C7.27714 61.8086 7.2681 61.8089 7.25348 61.808C7.21423 61.8058 7.11944 61.7956 7.0097 61.744C6.77515 61.6337 6.73492 61.4657 6.78132 61.5766L8.62637 60.8048ZM7.24924 59.8091C7.09246 59.8014 6.92257 59.8002 6.77088 59.8002V61.8002C6.91829 61.8002 7.04664 61.8016 7.15114 61.8067L7.24924 59.8091ZM6.77088 59.8002C6.39452 59.8002 5.86522 59.9373 5.43766 60.402L6.90943 61.7562C6.90419 61.7619 6.8885 61.7749 6.86318 61.785C6.84287 61.7931 6.81449 61.8002 6.77088 61.8002V59.8002ZM5.43766 60.402C5.22802 60.6298 4.38971 61.4228 4.38971 62.9382H6.38971C6.38971 62.5777 6.48182 62.3375 6.57412 62.175C6.6754 61.9967 6.77827 61.8987 6.90943 61.7562L5.43766 60.402ZM4.38971 62.9382C4.38971 63.7127 4.66686 64.4163 4.9141 64.901C5.16857 65.3998 5.43869 65.7569 5.50558 65.8456L7.1028 64.6419C7.05753 64.5819 6.8704 64.3346 6.69567 63.9921C6.51371 63.6354 6.38971 63.2606 6.38971 62.9382H4.38971ZM5.50558 65.8456C5.49943 65.8375 5.49889 65.8364 5.52214 65.8696C5.5394 65.8942 5.56385 65.9291 5.59369 65.971C5.65375 66.0555 5.73576 66.1687 5.83824 66.303C6.04272 66.5712 6.32926 66.9243 6.68891 67.306C7.39913 68.0596 8.43696 68.9699 9.73475 69.5279L10.5247 67.6905C8.57379 66.8517 7.26887 64.8623 7.1028 64.6419L5.50558 65.8456ZM9.73473 69.5278C10.3125 69.7762 10.7652 69.925 11.1056 70.0324L11.7074 68.1251C11.3971 68.0272 11.0153 67.9014 10.5247 67.6905L9.73473 69.5278ZM11.1046 70.0321C11.8394 70.2647 12.4953 70.226 12.9638 70.1564L12.67 68.1781C12.3666 68.2232 12.0461 68.2323 11.7083 68.1254L11.1046 70.0321ZM12.9644 70.1563C13.3659 70.0965 13.8312 69.888 14.2017 69.6516C14.5476 69.4309 15.0599 69.0302 15.2696 68.4448L13.3869 67.7702C13.406 67.7166 13.4185 67.7239 13.3611 67.7823C13.3093 67.8349 13.2296 67.8994 13.1261 67.9654C13.0243 68.0304 12.917 68.0856 12.8219 68.1255C12.7187 68.1687 12.6661 68.1787 12.6694 68.1782L12.9644 70.1563ZM15.2696 68.4448C15.3923 68.1024 15.4571 67.7762 15.4807 67.5036C15.4925 67.3684 15.4954 67.2311 15.4852 67.1011C15.4794 67.0264 15.4604 66.7724 15.3156 66.532L13.6021 67.5634C13.5621 67.4969 13.539 67.4395 13.5266 67.4045C13.5134 67.3674 13.5057 67.3375 13.5014 67.3184C13.4931 67.2815 13.4915 67.259 13.4913 67.2574C13.491 67.2535 13.4928 67.2778 13.4882 67.3308C13.4792 67.4348 13.4507 67.5921 13.3869 67.7702L15.2696 68.4448ZM15.3177 66.5354C15.1431 66.2427 14.8817 66.0983 14.7887 66.0472C14.7277 66.0137 14.6656 65.9834 14.6191 65.9609C14.5662 65.9353 14.525 65.9158 14.4762 65.8915L13.5838 67.6813C13.647 67.7128 13.7084 67.7421 13.7482 67.7614C13.7944 67.7837 13.815 67.7942 13.8262 67.8004C13.8304 67.8027 13.8276 67.8013 13.8201 67.7965C13.8127 67.7918 13.7972 67.7815 13.777 67.7654C13.7374 67.7339 13.6645 67.668 13.6001 67.56L15.3177 66.5354Z" fill="black" mask="url(#path-2-inside-1_2_808)"/>
<path fill-rule="evenodd" clip-rule="evenodd" d="M16.0638 11.1121C15.9697 11.2259 15.8363 11.263 15.7006 11.263C15.5869 11.263 15.4709 11.2259 15.3769 11.1318L11.0916 7.07398L9.88625 8.14805C9.80969 8.22242 9.69375 8.25961 9.57781 8.25961C9.46187 8.25961 9.35031 8.22242 9.25406 8.14805L8.08812 7.09367L3.78094 11.1318C3.68687 11.2259 3.57094 11.263 3.4375 11.263C3.32375 11.263 3.18812 11.2084 3.09187 11.1121C2.89937 10.9196 2.91906 10.6134 3.11156 10.423L7.35969 6.46148L3.09187 2.63555C2.89937 2.46273 2.88406 2.15648 3.05469 1.96617C3.2275 1.75617 3.53156 1.73648 3.74375 1.92898L8.355 6.05898C8.3725 6.07867 8.41188 6.09836 8.43156 6.11805V6.13773L9.55813 7.15055L15.3769 1.92898C15.5869 1.75617 15.8734 1.77367 16.0638 1.96617C16.2366 2.15648 16.2169 2.46273 16.0266 2.63555L11.8178 6.42211L16.0441 10.4405C16.2366 10.6134 16.2366 10.9196 16.0638 11.1121ZM16.0638 0.951172H3.05469C2.42469 0.951172 1.90625 1.44992 1.90625 2.07992V10.9765C1.90625 11.6109 2.42469 12.1249 3.05469 12.1249H16.0638C16.6959 12.1249 17.2122 11.6109 17.2122 10.9765V2.07992C17.2122 1.44992 16.6959 0.951172 16.0638 0.951172Z" fill="white"/>
</svg>
