<svg width="24" height="24" viewBox="0 0 24 24" fill="none" xmlns="http://www.w3.org/2000/svg">
<path fill-rule="evenodd" clip-rule="evenodd" d="M18.3381 16.7717C18.5024 16.3485 18.6151 15.8647 18.6472 15.1569C18.6798 14.4472 18.6875 14.2205 18.6875 12.4138C18.6875 10.607 18.6798 10.3802 18.6477 9.67063C18.6151 8.96279 18.5029 8.47897 18.3381 8.0558C18.1711 7.61182 17.909 7.20992 17.571 6.87772C17.2383 6.53919 16.8364 6.27714 16.3925 6.10968C15.9693 5.9458 15.4855 5.83315 14.7776 5.80102C14.0679 5.76843 13.8412 5.76074 12.0345 5.76074C10.2278 5.76074 10.001 5.76843 9.29138 5.80102C8.58353 5.83315 8.09972 5.9458 7.67655 6.11009C7.23256 6.27714 6.83066 6.53919 6.49847 6.87772C6.15993 7.20992 5.89788 7.61182 5.73043 8.0558C5.56614 8.47897 5.4539 8.96279 5.42176 9.67063C5.38918 10.3802 5.38148 10.607 5.38148 12.4138C5.38148 14.2205 5.38918 14.4472 5.42176 15.1569C5.4539 15.8647 5.56655 16.3485 5.73083 16.7717C5.89788 17.2157 6.15993 17.6176 6.49847 17.9498C6.83066 18.2883 7.23256 18.5503 7.67655 18.7174C8.09972 18.8817 8.58353 18.9944 9.29138 19.0265C10.001 19.0591 10.2278 19.0668 12.0345 19.0668C13.8416 19.0668 14.0679 19.0591 14.7776 19.0265C15.4855 18.9944 15.9693 18.8817 16.3925 18.7174C17.2863 18.3716 17.9923 17.6656 18.3381 16.7717ZM0.447754 12.4138C0.447754 6.01608 5.6362 0.827637 12.034 0.827637C18.4317 0.827637 23.6202 6.01608 23.6202 12.4138C23.6202 18.8116 18.4317 24 12.034 24C5.6362 24 0.447754 18.8116 0.447754 12.4138ZM15.5855 9.66074C15.1448 9.66074 14.7872 9.30319 14.7872 8.86238C14.7872 8.42156 15.1448 8.06401 15.5855 8.06401C16.0263 8.06401 16.3839 8.42156 16.3839 8.86238C16.3839 9.30319 16.0263 9.66074 15.5855 9.66074ZM12.0341 15.8301C10.1473 15.8301 8.61752 14.3008 8.61752 12.4139C8.61752 10.5271 10.1473 8.99777 12.0341 8.99777C13.921 8.99777 15.4503 10.5271 15.4503 12.4139C15.4503 14.3008 13.921 15.8301 12.0341 15.8301ZM17.2207 8.49004C17.1144 8.20129 16.9442 7.9397 16.7233 7.72517C16.5088 7.50431 16.2472 7.33414 15.9584 7.22778C15.724 7.13636 15.3715 7.02819 14.7229 6.99877C14.0214 6.96664 13.8109 6.95985 12.0345 6.95985C10.2581 6.95985 10.0477 6.96664 9.34615 6.99832C8.6976 7.02819 8.34503 7.13636 8.11059 7.22778C7.82184 7.33414 7.56025 7.50431 7.34572 7.72517C7.12486 7.9397 6.95469 8.20129 6.84788 8.49004C6.75691 8.72448 6.64874 9.07705 6.61887 9.7256C6.58719 10.4271 6.57995 10.6376 6.57995 12.414C6.57995 14.1904 6.58719 14.4008 6.61887 15.1028C6.64874 15.7513 6.75691 16.1034 6.84788 16.3379C6.95469 16.6271 7.12486 16.8882 7.34572 17.1028C7.56025 17.3237 7.82139 17.4938 8.11059 17.6006C8.34503 17.6916 8.6976 17.8002 9.34615 17.8296C10.0477 17.8617 10.2577 17.8685 12.0345 17.8685C13.8109 17.8685 14.0214 17.8617 14.7229 17.8296C15.3715 17.8002 15.724 17.6916 15.9584 17.6006C16.5387 17.3766 16.9972 16.9181 17.2207 16.3379C17.3122 16.1034 17.4203 15.7513 17.4502 15.1028C17.4819 14.4008 17.4886 14.1904 17.4886 12.414C17.4886 10.6376 17.4819 10.4271 17.4502 9.7256C17.4203 9.07705 17.3122 8.72448 17.2207 8.49004ZM12.0344 10.1963C10.8097 10.1963 9.81677 11.1893 9.81677 12.414C9.81677 13.6387 10.8097 14.6317 12.0344 14.6317C13.2591 14.6317 14.2521 13.6387 14.2521 12.414C14.2521 11.1893 13.2591 10.1963 12.0344 10.1963Z" fill="white"/>
</svg>
