<svg width="34" height="35" viewBox="0 0 34 35" fill="none" xmlns="http://www.w3.org/2000/svg">
<path fill-rule="evenodd" clip-rule="evenodd" d="M17.4724 32.0278C25.7643 32.0278 32.4863 25.3058 32.4863 17.0139C32.4863 8.72195 25.7643 2 17.4724 2C9.18044 2 2.4585 8.72195 2.4585 17.0139C2.4585 25.3058 9.18044 32.0278 17.4724 32.0278ZM34.4863 17.0139C34.4863 26.4104 26.8689 34.0278 17.4724 34.0278C8.07587 34.0278 0.458496 26.4104 0.458496 17.0139C0.458496 7.61738 8.07587 0 17.4724 0C26.8689 0 34.4863 7.61738 34.4863 17.0139Z" fill="#2ADB86"/>
<path d="M9.69482 21.6372V24.3461C9.69482 24.5956 9.89086 24.7917 10.1404 24.7917H12.8492C12.9651 24.7917 13.0809 24.7471 13.1611 24.658L22.8917 14.9363L19.5502 11.5948L9.82849 21.3165C9.73938 21.4056 9.69482 21.5125 9.69482 21.6372ZM25.4759 12.3522C25.8234 12.0047 25.8234 11.4433 25.4759 11.0958L23.3907 9.01064C23.0432 8.66312 22.4818 8.66312 22.1343 9.01064L20.5036 10.6413L23.8452 13.9829L25.4759 12.3522Z" fill="#2ADB86"/>
</svg>
