<svg width="24" height="24" viewBox="0 0 24 24" fill="none" xmlns="http://www.w3.org/2000/svg">
<path fill-rule="evenodd" clip-rule="evenodd" d="M11.7591 23.1724C18.1579 23.1724 23.3453 17.9851 23.3453 11.5862C23.3453 5.18732 18.1579 0 11.7591 0C5.36017 0 0.172852 5.18732 0.172852 11.5862C0.172852 17.9851 5.36017 23.1724 11.7591 23.1724ZM7.4562 5.79322C6.63326 5.79322 5.96551 6.46098 5.96551 7.28391C5.96551 8.10684 6.63326 8.78856 7.4562 8.78856C8.27913 8.78856 8.94689 8.10684 8.94689 7.28391C8.94637 6.46098 8.27861 5.79322 7.4562 5.79322ZM18.3766 18.2065V18.207H15.8085V14.172C15.8085 13.2105 15.7889 11.9773 14.4704 11.9773C13.1323 11.9773 12.9275 13.0222 12.9275 14.1027V18.2065H10.3568V9.91873H12.8256V11.0489H12.8618C13.2047 10.3977 14.0447 9.7108 15.2964 9.7108C17.9002 9.7108 18.3797 11.4265 18.3797 13.6537V18.2065H18.3766ZM8.74409 9.91931H6.1703V18.2071H8.74409V9.91931Z" fill="white"/>
</svg>
