<svg width="142" height="37" viewBox="0 0 142 37" fill="none" xmlns="http://www.w3.org/2000/svg">
<path fill-rule="evenodd" clip-rule="evenodd" d="M35.5564 15.2621C34.8591 14.6769 33.9601 14.3263 32.9813 14.3263C32.1108 14.3263 31.3076 14.6036 30.6489 15.0745C29.2201 9.3659 24.0457 5.12755 17.9051 5.12755C10.5838 5.12755 4.63705 11.1521 4.7714 18.5075C4.89166 25.0379 9.86619 30.3304 16.1638 31.2497C16.1597 31.317 16.1578 31.3843 16.1578 31.4535V34.1814C16.1578 34.8849 16.3394 35.5434 16.6553 36.1181C11.9704 35.7962 7.77662 33.6636 4.76932 30.416C1.61958 27.0111 -0.231554 22.3872 0.0233154 17.3375C0.484272 8.22225 7.86819 0.840159 16.9835 0.381289C22.0313 0.126419 26.6594 1.97155 30.058 5.12755C32.8958 7.75555 34.8836 11.2888 35.5564 15.2621ZM100.662 35.735C100.406 35.9635 100.092 36.0772 99.7775 36.0772C99.3497 36.0772 98.9501 35.9061 98.6931 35.5639L93.2699 29.0562L92.3853 29.6554V34.6503C92.3853 35.4493 91.7289 36.0772 90.9583 36.0772C90.1875 36.0772 89.5595 35.4493 89.5595 34.6503V28.9135V16.1549C89.5595 15.3846 90.1875 14.7566 90.9583 14.7566C91.7289 14.7566 92.3853 15.3846 92.3853 16.1549V26.3163L98.8642 22.0633C99.4637 21.5781 100.349 21.635 100.862 22.2347C101.347 22.8342 101.262 23.7475 100.662 24.2325L95.6675 27.5147L100.862 33.7654C101.347 34.3652 101.262 35.25 100.662 35.735ZM45.4062 16.1267H56.88C57.6507 16.1267 58.2788 16.7544 58.2788 17.5537C58.2788 18.3246 57.6507 18.9525 56.88 18.9525H52.5418V34.7361C52.5418 35.5352 51.9139 36.1631 51.1433 36.1631C50.3442 36.1631 49.716 35.5352 49.716 34.7361V18.9525H45.4062C44.6072 18.9525 43.9793 18.3246 43.9793 17.5537C43.9793 16.7544 44.6072 16.1267 45.4062 16.1267ZM70.4662 29.0846C70.4662 26.6872 68.6394 24.6608 66.242 24.6608C63.8443 24.6608 61.8179 26.6872 61.8179 29.0846C61.8179 31.482 63.8443 33.3088 66.242 33.3088C68.6394 33.3088 70.4662 31.482 70.4662 29.0846ZM73.2633 29.0846V34.6789C73.2633 35.5067 72.6641 36.1062 71.8361 36.1062C71.2653 36.1062 70.4662 35.5067 70.4662 34.6789C69.2388 35.7065 67.8688 36.1062 66.242 36.1062C62.2175 36.1062 59.0208 33.1093 59.0208 29.0846C59.0208 25.0604 62.2175 21.8635 66.242 21.8635C70.2664 21.8635 73.2633 25.0604 73.2633 29.0846ZM84.28 24.6608C85.0793 24.6608 85.7073 24.0042 85.7073 23.2336C85.7073 22.463 85.0793 21.8351 84.28 21.8351C80.3414 21.8351 77.1158 25.0318 77.1158 28.9991V34.7361C77.1158 35.5068 77.7439 36.1631 78.543 36.1631C79.3136 36.1631 79.9415 35.5068 79.9415 34.7361V28.9991C79.9415 26.6014 81.8824 24.6608 84.28 24.6608ZM116.589 30.3976V23.2336C116.589 22.463 115.961 21.8351 115.19 21.8351C114.391 21.8351 113.763 22.463 113.763 23.2336V30.3692C113.763 31.996 112.451 33.3374 110.795 33.3374C109.168 33.3374 107.855 31.996 107.855 30.3692V23.2336C107.855 22.463 107.227 21.8351 106.428 21.8351C105.657 21.8351 105.029 22.463 105.029 23.2336V30.3976V30.4261C105.058 33.5943 107.627 36.1631 110.795 36.1631C113.992 36.1631 116.561 33.5943 116.589 30.4261V30.3976ZM129.033 31.8533C129.033 34.2222 127.121 36.1631 124.752 36.1631C122.725 36.1631 121.098 34.7074 120.556 33.052C120.299 32.3101 120.898 31.5394 121.64 31.3681C122.411 31.2254 122.953 31.7677 123.324 32.4812C123.724 33.2234 124.067 33.3374 124.752 33.3374C125.551 33.3374 126.207 32.6813 126.207 31.8533C126.207 31.0542 125.551 30.3976 124.752 30.3976C123.61 30.3976 122.525 29.9411 121.726 29.1418C120.898 28.3428 120.47 27.2581 120.47 26.1165C120.47 23.7475 122.382 21.8351 124.752 21.8351C126.749 21.8351 128.576 23.2052 128.862 24.8035C129.005 25.5741 128.548 26.3448 127.777 26.4874C127.006 26.6588 126.35 26.1447 126.093 25.4314C125.922 24.9747 125.437 24.6608 124.752 24.6608C123.952 24.6608 123.296 25.3172 123.296 26.1165C123.296 26.9155 123.952 27.5719 124.752 27.5719C125.893 27.5719 126.978 28.0287 127.777 28.8277C128.605 29.6554 129.033 30.7117 129.033 31.8533ZM137.138 36.1631C139.507 36.1631 141.419 34.2222 141.419 31.8533C141.419 30.7117 140.991 29.6554 140.164 28.8277C139.364 28.0287 138.28 27.5719 137.138 27.5719C136.339 27.5719 135.683 26.9155 135.683 26.1165C135.683 25.3172 136.339 24.6608 137.138 24.6608C137.823 24.6608 138.308 24.9747 138.479 25.4314C138.736 26.1447 139.393 26.6588 140.164 26.4874C140.935 26.3448 141.391 25.5741 141.248 24.8035C140.963 23.2052 139.136 21.8351 137.138 21.8351C134.769 21.8351 132.857 23.7475 132.857 26.1165C132.857 27.2581 133.285 28.3428 134.113 29.1418C134.912 29.9411 135.997 30.3976 137.138 30.3976C137.937 30.3976 138.594 31.0542 138.594 31.8533C138.594 32.6813 137.937 33.3374 137.138 33.3374C136.453 33.3374 136.111 33.2234 135.711 32.4812C135.34 31.7677 134.798 31.2254 134.027 31.3681C133.285 31.5394 132.686 32.3101 132.943 33.052C133.485 34.7074 135.112 36.1631 137.138 36.1631ZM34.9651 34.1814V18.3466C34.9651 17.2518 34.0763 16.3648 32.9814 16.3648C32.017 16.3648 31.2138 17.054 31.0364 17.9653C31.0121 18.0879 30.9999 18.2162 30.9999 18.3466V34.1814C30.9999 35.276 31.8866 36.163 32.9814 36.163C34.0763 36.163 34.9651 35.276 34.9651 34.1814ZM28.6797 26.7482V34.1815C28.6797 35.2761 27.793 36.163 26.6979 36.163C26.1516 36.163 25.6542 35.9408 25.2973 35.5821C24.9386 35.2252 24.7163 34.7277 24.7163 34.1815V26.7482C24.7163 25.6536 25.6033 24.7664 26.6979 24.7664C27.793 24.7664 28.6797 25.6536 28.6797 26.7482ZM22.1618 34.1815V31.4536C22.1618 31.4332 22.1618 31.4129 22.1597 31.3925C22.1292 30.3263 21.2545 29.472 20.18 29.472C19.1057 29.472 18.2292 30.3263 18.1987 31.3925C18.1966 31.4129 18.1966 31.4332 18.1966 31.4536V34.1815C18.1966 35.2761 19.0854 36.163 20.18 36.163C21.2751 36.163 22.1618 35.2761 22.1618 34.1815Z" fill="white"/>
</svg>
