<svg width="152" height="40" viewBox="0 0 152 40" fill="none" xmlns="http://www.w3.org/2000/svg">
<path fill-rule="evenodd" clip-rule="evenodd" d="M48.8037 17.5341H61.136C61.9643 17.5341 62.6394 18.207 62.6394 19.064C62.6394 19.8905 61.9643 20.5638 61.136 20.5638H56.4732V37.4868C56.4732 38.3435 55.7983 39.0167 54.97 39.0167C54.1112 39.0167 53.436 38.3435 53.436 37.4868V20.5638H48.8037C47.9449 20.5638 47.27 19.8905 47.27 19.064C47.27 18.207 47.9449 17.5341 48.8037 17.5341Z" fill="#2ADB86"/>
<path fill-rule="evenodd" clip-rule="evenodd" d="M75.7385 31.4271C75.7385 28.8567 73.775 26.684 71.1982 26.684C68.6212 26.684 66.4432 28.8567 66.4432 31.4271C66.4432 33.9976 68.6212 35.9563 71.1982 35.9563C73.775 35.9563 75.7385 33.9976 75.7385 31.4271ZM78.745 31.4272V37.4254C78.745 38.3129 78.101 38.9556 77.211 38.9556C76.5975 38.9556 75.7387 38.3129 75.7387 37.4254C74.4195 38.5271 72.9469 38.9556 71.1984 38.9556C66.8729 38.9556 63.437 35.7424 63.437 31.4272C63.437 27.1125 66.8729 23.6848 71.1984 23.6848C75.5239 23.6848 78.745 27.1125 78.745 31.4272Z" fill="#2ADB86"/>
<path fill-rule="evenodd" clip-rule="evenodd" d="M92.12 25.1539C92.12 25.9801 91.4451 26.6841 90.586 26.6841C88.009 26.6841 85.9229 28.7648 85.9229 31.3355V37.4867C85.9229 38.313 85.248 39.0167 84.4197 39.0167C83.5609 39.0167 82.8857 38.313 82.8857 37.4867V31.3355C82.8857 27.0819 86.3527 23.6544 90.586 23.6544C91.4451 23.6544 92.12 24.3277 92.12 25.1539Z" fill="#2ADB86"/>
<path fill-rule="evenodd" clip-rule="evenodd" d="M108.193 38.5577C107.917 38.8027 107.58 38.9247 107.242 38.9247C106.782 38.9247 106.353 38.7412 106.077 38.3742L100.248 31.3968L99.2969 32.0393V37.3947C99.2969 38.2514 98.5915 38.9247 97.7632 38.9247C96.9347 38.9247 96.2598 38.2514 96.2598 37.3947V31.2438V17.5643C96.2598 16.7383 96.9347 16.0651 97.7632 16.0651C98.5915 16.0651 99.2969 16.7383 99.2969 17.5643V28.4591L106.261 23.8992C106.905 23.3789 107.856 23.4399 108.408 24.083C108.93 24.7257 108.838 25.7049 108.193 26.2249L102.825 29.7441L108.408 36.446C108.93 37.089 108.838 38.0378 108.193 38.5577Z" fill="#2ADB86"/>
<path fill-rule="evenodd" clip-rule="evenodd" d="M125.312 25.1539V32.835V32.8655C125.281 36.2625 122.52 39.0167 119.084 39.0167C115.679 39.0167 112.918 36.2625 112.887 32.8655V32.835V25.1539C112.887 24.3277 113.562 23.6544 114.391 23.6544C115.249 23.6544 115.925 24.3277 115.925 25.1539V32.8045C115.925 34.5487 117.336 35.987 119.084 35.987C120.864 35.987 122.275 34.5487 122.275 32.8045V25.1539C122.275 24.3277 122.949 23.6544 123.809 23.6544C124.637 23.6544 125.312 24.3277 125.312 25.1539Z" fill="#2ADB86"/>
<path fill-rule="evenodd" clip-rule="evenodd" d="M138.687 34.3958C138.687 36.9357 136.631 39.0167 134.085 39.0167C131.907 39.0167 130.158 37.456 129.575 35.681C129.299 34.8855 129.944 34.0593 130.741 33.8755C131.569 33.7225 132.152 34.304 132.551 35.069C132.98 35.8647 133.349 35.987 134.085 35.987C134.944 35.987 135.65 35.2835 135.65 34.3958C135.65 33.539 134.944 32.835 134.085 32.835C132.858 32.835 131.692 32.3455 130.833 31.4885C129.944 30.6318 129.483 29.4688 129.483 28.2449C129.483 25.7049 131.539 23.6544 134.085 23.6544C136.232 23.6544 138.196 25.1234 138.503 26.8371C138.656 27.6634 138.165 28.4896 137.337 28.6426C136.508 28.8264 135.803 28.2751 135.527 27.5104C135.343 27.0206 134.821 26.6841 134.085 26.6841C133.226 26.6841 132.521 27.3879 132.521 28.2449C132.521 29.1016 133.226 29.8053 134.085 29.8053C135.312 29.8053 136.478 30.2951 137.337 31.1518C138.226 32.0393 138.687 33.1718 138.687 34.3958Z" fill="#2ADB86"/>
<path fill-rule="evenodd" clip-rule="evenodd" d="M152 34.3958C152 36.9357 149.945 39.0167 147.398 39.0167C145.22 39.0167 143.472 37.456 142.889 35.681C142.613 34.8855 143.257 34.0593 144.055 33.8755C144.883 33.7225 145.466 34.304 145.865 35.069C146.294 35.8647 146.662 35.987 147.398 35.987C148.257 35.987 148.963 35.2835 148.963 34.3958C148.963 33.539 148.257 32.835 147.398 32.835C146.171 32.835 145.006 32.3455 144.147 31.4885C143.257 30.6318 142.797 29.4688 142.797 28.2449C142.797 25.7049 144.852 23.6544 147.398 23.6544C149.546 23.6544 151.509 25.1234 151.816 26.8371C151.969 27.6634 151.479 28.4896 150.65 28.6426C149.822 28.8264 149.116 28.2751 148.84 27.5104C148.656 27.0206 148.135 26.6841 147.398 26.6841C146.539 26.6841 145.834 27.3879 145.834 28.2449C145.834 29.1016 146.539 29.8053 147.398 29.8053C148.626 29.8053 149.791 30.2951 150.65 31.1518C151.54 32.0393 152 33.1718 152 34.3958Z" fill="#2ADB86"/>
<path fill-rule="evenodd" clip-rule="evenodd" d="M38.2166 16.607C37.4671 15.9796 36.5009 15.6037 35.4489 15.6037C34.5132 15.6037 33.6499 15.901 32.9419 16.4059C31.4063 10.2852 25.8448 5.74089 19.2448 5.74089C11.3757 5.74089 4.98399 12.2003 5.12839 20.0867C5.25764 27.0885 10.6043 32.763 17.3732 33.7487C17.3687 33.8208 17.3667 33.893 17.3667 33.9671V36.8919C17.3667 37.6463 17.5619 38.3523 17.9014 38.9684C12.8659 38.6233 8.35845 36.3367 5.12614 32.8548C1.74075 29.2041 -0.248878 24.2464 0.0250598 18.8323C0.520504 9.05897 8.45686 1.14401 18.2541 0.65202C23.6796 0.378752 28.654 2.35707 32.3069 5.74089C35.3569 8.55859 37.4935 12.3468 38.2166 16.607Z" fill="#2ADB86"/>
<path fill-rule="evenodd" clip-rule="evenodd" d="M37.5812 19.9143V36.8921C37.5812 38.0657 36.6259 39.0167 35.4492 39.0167C34.2724 39.0167 33.3193 38.0657 33.3193 36.8921V19.9143C33.3193 19.7745 33.3325 19.6368 33.3586 19.5054C33.5493 18.5284 34.4126 17.7894 35.4492 17.7894C36.6259 17.7894 37.5812 18.7404 37.5812 19.9143Z" fill="#076B40"/>
<path fill-rule="evenodd" clip-rule="evenodd" d="M30.8254 28.9221V36.8919C30.8254 38.0655 29.8723 39.0165 28.6953 39.0165C28.1081 39.0165 27.5734 38.7782 27.1899 38.3936C26.8043 38.011 26.5654 37.4776 26.5654 36.8919V28.9221C26.5654 27.7485 27.5187 26.7972 28.6953 26.7972C29.8723 26.7972 30.8254 27.7485 30.8254 28.9221Z" fill="#076B40"/>
<path fill-rule="evenodd" clip-rule="evenodd" d="M23.8195 33.9673V36.8921C23.8195 38.0657 22.8665 39.0167 21.6894 39.0167C20.5129 39.0167 19.5576 38.0657 19.5576 36.8921V33.9673C19.5576 33.9454 19.5576 33.9236 19.5599 33.9018C19.5927 32.7587 20.5348 31.8427 21.6894 31.8427C22.8443 31.8427 23.7845 32.7587 23.8173 33.9018C23.8195 33.9236 23.8195 33.9454 23.8195 33.9673Z" fill="#076B40"/>
</svg>
