<svg width="485" height="420" viewBox="0 0 485 420" fill="none" xmlns="http://www.w3.org/2000/svg">
<circle cx="229.623" cy="209.911" r="209.911" fill="#2ADB86"/>
<path d="M313.493 66H380.163C384.104 66.0011 388.006 66.7785 391.647 68.2876C395.287 69.7968 398.595 72.0082 401.381 74.7957C404.167 77.5831 406.376 80.892 407.883 84.5334C409.391 88.1747 410.166 92.0773 410.165 96.0182C410.165 103.975 407.004 111.606 401.377 117.232C395.751 122.859 388.12 126.019 380.163 126.019H79.6398C74.6099 126.018 69.6291 127.008 64.9819 128.932C60.3346 130.857 56.1121 133.678 52.5554 137.235C48.9987 140.791 46.1776 145.014 44.2533 149.661C42.3289 154.308 41.339 159.289 41.3402 164.319V164.319C41.3402 174.474 45.3744 184.214 52.5554 191.395C59.7364 198.576 69.4759 202.61 79.6313 202.61H445.894C456.118 202.61 465.922 206.671 473.151 213.9C480.38 221.129 484.442 230.934 484.442 241.157C484.442 246.219 483.445 251.231 481.507 255.908C479.57 260.584 476.73 264.833 473.151 268.411C469.571 271.99 465.322 274.829 460.645 276.765C455.968 278.701 450.956 279.697 445.894 279.696H23.0868C20.1864 279.694 17.314 280.263 14.6338 281.372C11.9537 282.481 9.51836 284.107 7.46708 286.157C5.4158 288.208 3.78881 290.642 2.67914 293.322C1.56947 296.002 0.998879 298.874 1 301.774V301.774C1.00905 307.625 3.34058 313.232 7.48217 317.364C11.6238 321.496 17.2365 323.814 23.0868 323.81H141.042" stroke="#182436" stroke-linejoin="round" stroke-dasharray="3.5 3.5"/>
<path d="M32.8023 212.932C35.787 212.932 38.2066 210.513 38.2066 207.528C38.2066 204.543 35.787 202.124 32.8023 202.124C29.8175 202.124 27.3979 204.543 27.3979 207.528C27.3979 210.513 29.8175 212.932 32.8023 212.932Z" stroke="#182436" stroke-linejoin="round"/>
<path d="M460.741 226.464C460.743 227.036 460.575 227.595 460.258 228.071C459.942 228.547 459.491 228.918 458.964 229.137C458.436 229.357 457.855 229.414 457.295 229.303C456.734 229.192 456.219 228.917 455.815 228.513C455.411 228.109 455.136 227.594 455.025 227.034C454.914 226.473 454.972 225.892 455.191 225.364C455.41 224.837 455.782 224.386 456.258 224.07C456.733 223.753 457.292 223.585 457.864 223.587C458.627 223.587 459.359 223.89 459.898 224.43C460.438 224.969 460.741 225.701 460.741 226.464V226.464Z" stroke="#182436" stroke-linejoin="round"/>
<path d="M54.1723 305.821C54.1723 306.391 54.0037 306.948 53.6877 307.422C53.3717 307.896 52.9225 308.266 52.3967 308.485C51.8709 308.704 51.292 308.763 50.733 308.653C50.1739 308.544 49.6597 308.272 49.2551 307.871C48.8505 307.47 48.5737 306.958 48.4595 306.4C48.3453 305.842 48.3988 305.262 48.6133 304.735C48.8278 304.207 49.1936 303.754 49.6648 303.434C50.136 303.114 50.6914 302.941 51.261 302.936C51.6421 302.932 52.0201 303.004 52.3732 303.148C52.7262 303.291 53.0474 303.503 53.3181 303.772C53.5887 304.04 53.8036 304.359 53.9502 304.711C54.0968 305.063 54.1723 305.44 54.1723 305.821Z" stroke="#182436" stroke-linejoin="round"/>
<path d="M435.597 318.354C435.591 318.924 435.415 319.479 435.094 319.949C434.772 320.419 434.319 320.784 433.791 320.997C433.262 321.21 432.683 321.262 432.125 321.146C431.567 321.03 431.056 320.751 430.656 320.346C430.257 319.94 429.986 319.425 429.878 318.866C429.771 318.306 429.831 317.727 430.052 317.202C430.272 316.677 430.643 316.229 431.118 315.914C431.593 315.6 432.151 315.433 432.72 315.435C433.102 315.435 433.479 315.51 433.831 315.658C434.183 315.805 434.502 316.021 434.77 316.292C435.038 316.564 435.249 316.886 435.391 317.24C435.533 317.594 435.603 317.973 435.597 318.354V318.354Z" stroke="#182436" stroke-linejoin="round"/>
<path d="M387.138 85.5512C387.138 86.5002 386.857 87.4278 386.33 88.2169C385.802 89.0059 385.053 89.6209 384.176 89.9841C383.3 90.3472 382.335 90.4423 381.404 90.2571C380.473 90.072 379.618 89.615 378.947 88.944C378.276 88.2729 377.819 87.418 377.634 86.4873C377.449 85.5565 377.544 84.5918 377.907 83.715C378.27 82.8383 378.885 82.0889 379.674 81.5617C380.463 81.0345 381.391 80.7531 382.34 80.7531C382.97 80.7531 383.594 80.8772 384.176 81.1183C384.758 81.3594 385.287 81.7128 385.733 82.1584C386.178 82.6039 386.532 83.1329 386.773 83.715C387.014 84.2972 387.138 84.9211 387.138 85.5512V85.5512Z" stroke="#182436" stroke-linejoin="round"/>
<path d="M27.2529 287.619H41.9974" stroke="#182436" stroke-linejoin="round"/>
<path d="M466.837 294.978H481.581" stroke="#182436" stroke-linejoin="round"/>
<path d="M315.466 114.57H338.039" stroke="#182436" stroke-linejoin="round"/>
<path d="M47.9224 271.227H55.2903" stroke="#182436" stroke-linejoin="round"/>
<path d="M334.556 106.776H341.924" stroke="#182436" stroke-linejoin="round"/>
<path d="M110.683 78.1747H118.051" stroke="#182436" stroke-linejoin="round"/>
<path d="M123.643 85.5511H131.019" stroke="#182436" stroke-linejoin="round"/>
<path fill-rule="evenodd" clip-rule="evenodd" d="M207.922 138.935C207.779 138.815 207.595 138.744 207.395 138.744C207.216 138.744 207.052 138.8 206.917 138.896C206.624 137.73 205.565 136.865 204.308 136.865C202.809 136.865 201.591 138.095 201.619 139.598C201.643 140.931 202.662 142.012 203.951 142.2C203.95 142.214 203.95 142.228 203.95 142.242V142.799C203.95 142.943 203.987 143.077 204.052 143.195C203.093 143.129 202.234 142.693 201.618 142.03C200.973 141.334 200.594 140.39 200.646 139.359C200.741 137.497 202.253 135.989 204.119 135.895C205.153 135.843 206.1 136.22 206.796 136.865C207.377 137.402 207.784 138.123 207.922 138.935Z" fill="#182436"/>
<path fill-rule="evenodd" clip-rule="evenodd" d="M207.801 139.565V142.799C207.801 143.023 207.619 143.204 207.395 143.204C207.171 143.204 206.989 143.023 206.989 142.799V139.565C206.989 139.538 206.992 139.512 206.997 139.487C207.033 139.301 207.198 139.16 207.395 139.16C207.619 139.16 207.801 139.341 207.801 139.565Z" fill="#182436"/>
<path fill-rule="evenodd" clip-rule="evenodd" d="M206.514 141.281V142.799C206.514 143.023 206.332 143.204 206.108 143.204C205.996 143.204 205.894 143.158 205.821 143.085C205.748 143.012 205.702 142.911 205.702 142.799V141.281C205.702 141.057 205.884 140.876 206.108 140.876C206.332 140.876 206.514 141.057 206.514 141.281Z" fill="#182436"/>
<path fill-rule="evenodd" clip-rule="evenodd" d="M205.179 142.242V142.799C205.179 143.023 204.998 143.204 204.773 143.204C204.549 143.204 204.367 143.023 204.367 142.799V142.242C204.367 142.238 204.367 142.234 204.368 142.229C204.374 142.012 204.553 141.837 204.773 141.837C204.993 141.837 205.172 142.012 205.179 142.229C205.179 142.234 205.179 142.238 205.179 142.242Z" fill="#182436"/>
<path fill-rule="evenodd" clip-rule="evenodd" d="M79.306 144.597C79.1632 144.477 78.9792 144.406 78.7788 144.406C78.6005 144.406 78.4361 144.462 78.3012 144.559C78.0087 143.393 76.9492 142.527 75.6919 142.527C74.1929 142.527 72.9753 143.757 73.0028 145.26C73.0274 146.594 74.046 147.675 75.3354 147.862C75.3346 147.876 75.3342 147.89 75.3342 147.904V148.461C75.3342 148.605 75.3714 148.739 75.436 148.857C74.4768 148.791 73.6181 148.355 73.0024 147.692C72.3575 146.997 71.9785 146.052 72.0307 145.021C72.125 143.159 73.6369 141.651 75.5032 141.558C76.5368 141.505 77.4844 141.882 78.1802 142.527C78.7613 143.064 79.1683 143.785 79.306 144.597Z" fill="#182436"/>
<path fill-rule="evenodd" clip-rule="evenodd" d="M79.1849 145.227V148.461C79.1849 148.685 79.0029 148.866 78.7788 148.866C78.5546 148.866 78.373 148.685 78.373 148.461V145.227C78.373 145.2 78.3756 145.174 78.3805 145.149C78.4168 144.963 78.5813 144.822 78.7788 144.822C79.0029 144.822 79.1849 145.003 79.1849 145.227Z" fill="#182436"/>
<path fill-rule="evenodd" clip-rule="evenodd" d="M77.8974 146.943V148.461C77.8974 148.685 77.7159 148.866 77.4917 148.866C77.3798 148.866 77.278 148.82 77.2049 148.747C77.1314 148.674 77.0859 148.573 77.0859 148.461V146.943C77.0859 146.719 77.2675 146.538 77.4917 146.538C77.7159 146.538 77.8974 146.719 77.8974 146.943Z" fill="#182436"/>
<path fill-rule="evenodd" clip-rule="evenodd" d="M76.5638 147.904V148.461C76.5638 148.685 76.3823 148.866 76.1581 148.866C75.9339 148.866 75.752 148.685 75.752 148.461V147.904C75.752 147.9 75.752 147.896 75.7524 147.892C75.7586 147.674 75.9381 147.499 76.1581 147.499C76.3781 147.499 76.5572 147.674 76.5634 147.892C76.5638 147.896 76.5638 147.9 76.5638 147.904Z" fill="#182436"/>
<path fill-rule="evenodd" clip-rule="evenodd" d="M312.27 142.979C312.128 142.86 311.943 142.788 311.743 142.788C311.565 142.788 311.4 142.845 311.266 142.941C310.973 141.775 309.914 140.909 308.656 140.909C307.157 140.909 305.94 142.14 305.967 143.642C305.992 144.976 307.01 146.057 308.3 146.245C308.299 146.258 308.299 146.272 308.299 146.286V146.843C308.299 146.987 308.336 147.122 308.4 147.239C307.441 147.173 306.582 146.738 305.967 146.074C305.322 145.379 304.943 144.434 304.995 143.403C305.089 141.541 306.601 140.034 308.468 139.94C309.501 139.888 310.449 140.265 311.145 140.909C311.726 141.446 312.133 142.168 312.27 142.979Z" fill="#182436"/>
<path fill-rule="evenodd" clip-rule="evenodd" d="M312.15 143.609V146.843C312.15 147.067 311.968 147.248 311.744 147.248C311.519 147.248 311.338 147.067 311.338 146.843V143.609C311.338 143.583 311.34 143.556 311.345 143.531C311.382 143.345 311.546 143.204 311.744 143.204C311.968 143.204 312.15 143.386 312.15 143.609Z" fill="#182436"/>
<path fill-rule="evenodd" clip-rule="evenodd" d="M310.862 145.325V146.843C310.862 147.067 310.681 147.248 310.456 147.248C310.345 147.248 310.243 147.203 310.17 147.129C310.096 147.057 310.051 146.955 310.051 146.843V145.325C310.051 145.102 310.232 144.92 310.456 144.92C310.681 144.92 310.862 145.102 310.862 145.325Z" fill="#182436"/>
<path fill-rule="evenodd" clip-rule="evenodd" d="M309.528 146.286V146.843C309.528 147.067 309.346 147.248 309.122 147.248C308.898 147.248 308.716 147.067 308.716 146.843V146.286C308.716 146.282 308.716 146.278 308.716 146.274C308.722 146.056 308.902 145.882 309.122 145.882C309.342 145.882 309.521 146.056 309.527 146.274C309.528 146.278 309.528 146.282 309.528 146.286Z" fill="#182436"/>
<path fill-rule="evenodd" clip-rule="evenodd" d="M366.468 150.259C366.325 150.14 366.141 150.068 365.94 150.068C365.762 150.068 365.598 150.125 365.463 150.221C365.17 149.055 364.111 148.189 362.854 148.189C361.355 148.189 360.137 149.42 360.164 150.922C360.189 152.256 361.208 153.337 362.497 153.525C362.496 153.538 362.496 153.552 362.496 153.566V154.123C362.496 154.267 362.533 154.402 362.598 154.519C361.638 154.453 360.78 154.018 360.164 153.354C359.519 152.659 359.14 151.715 359.192 150.683C359.287 148.821 360.799 147.314 362.665 147.22C363.698 147.168 364.646 147.545 365.342 148.189C365.923 148.726 366.33 149.448 366.468 150.259Z" fill="#182436"/>
<path fill-rule="evenodd" clip-rule="evenodd" d="M366.346 150.889V154.124C366.346 154.347 366.164 154.528 365.94 154.528C365.716 154.528 365.534 154.347 365.534 154.124V150.889C365.534 150.863 365.537 150.836 365.542 150.811C365.578 150.625 365.742 150.484 365.94 150.484C366.164 150.484 366.346 150.666 366.346 150.889Z" fill="#182436"/>
<path fill-rule="evenodd" clip-rule="evenodd" d="M365.06 152.605V154.123C365.06 154.347 364.878 154.528 364.654 154.528C364.542 154.528 364.44 154.483 364.367 154.41C364.294 154.337 364.248 154.235 364.248 154.123V152.605C364.248 152.382 364.43 152.2 364.654 152.2C364.878 152.2 365.06 152.382 365.06 152.605Z" fill="#182436"/>
<path fill-rule="evenodd" clip-rule="evenodd" d="M363.725 153.566V154.124C363.725 154.347 363.543 154.528 363.319 154.528C363.095 154.528 362.913 154.347 362.913 154.124V153.566C362.913 153.562 362.913 153.558 362.914 153.554C362.92 153.336 363.099 153.162 363.319 153.162C363.539 153.162 363.718 153.336 363.725 153.554C363.725 153.558 363.725 153.562 363.725 153.566Z" fill="#182436"/>
</svg>
