<svg width="373" height="391" viewBox="0 0 373 391" fill="none" xmlns="http://www.w3.org/2000/svg">
<g clip-path="url(#clip0_6_657)">
<path d="M244.682 322.442C242.834 333.802 239.646 342.549 236.713 342.071C233.781 341.593 232.282 332.082 234.131 320.738C235.98 309.394 240.395 300.854 243.296 301.332C246.196 301.81 246.547 311.098 244.682 322.442Z" fill="#112633"/>
<path d="M225.317 336.351L240.666 340.478L251.344 343.139C255.727 343.776 260.078 315.703 258.548 315.384C247.487 313.09 233.796 308.772 233.796 308.772L225.317 336.351Z" fill="#FAA88D"/>
<path d="M238.418 310.19L233.334 338.518L240.538 340.446L241.415 340.669C238.88 337.578 243.471 315.846 251.711 313.839C247.041 312.644 241.654 311.13 238.418 310.19Z" fill="#EC8777"/>
<path d="M291.667 329.947C288.607 316.659 274.342 318.045 262.978 316.197C261.592 315.974 260.11 315.703 258.58 315.384C253.511 318.571 248.268 335.65 251.375 343.139C255.758 343.792 258.58 347.918 258.58 352.491C258.58 363.389 243.518 385.647 258.309 387.001C273.099 388.355 294.727 343.218 291.667 329.947Z" fill="white"/>
<path d="M278.821 318.38C277.437 320.596 276.59 323.105 276.347 325.707C276.104 328.309 276.473 330.931 277.423 333.365C278.374 335.799 279.88 337.978 281.822 339.727C283.763 341.477 286.087 342.749 288.607 343.441C289.102 343.585 289.58 343.68 290.074 343.776C291.668 338.072 292.385 333.101 291.668 329.947C289.978 322.665 284.926 319.782 278.821 318.38Z" fill="#FFDCD1"/>
<path d="M252.715 373.777C250.914 380.66 251.01 386.332 258.246 387.001C262.836 387.415 268.096 383.368 273.068 377.171C264.334 370.59 257.353 371.53 252.715 373.777Z" fill="#FFDCD1"/>
<path d="M257.401 347.727C258.086 336.599 261.959 325.903 268.557 316.914L267.394 316.786C261.153 325.445 257.37 335.629 256.444 346.261C256.811 346.717 257.132 347.208 257.401 347.727Z" fill="#FFDCD1"/>
<path d="M180.213 50.6018C180.213 50.6018 171.957 42.8108 168.881 49.2316C165.805 55.6524 175.734 67.7134 181.089 65.3553C186.444 62.9973 180.213 50.6018 180.213 50.6018Z" fill="#FAA88D"/>
<path d="M179.527 52.896C179.527 52.896 173.503 47.224 171.255 51.9082C169.008 56.5923 176.26 65.3234 180.101 63.7301C183.942 62.1368 179.527 52.896 179.527 52.896Z" fill="#EC8777"/>
<path d="M178.587 50.2672C178.587 50.2672 168.482 40.867 170.793 24.0741C173.104 7.28126 187.161 12.7461 187.161 12.7461C187.161 12.7461 192.166 9.7096e-05 204.502 0.780791C216.838 1.56148 226.512 14.1163 236.091 15.9167C241.509 17.0905 247.168 16.2702 252.029 13.6065C252.029 13.6065 252.029 41.2175 229.971 51.5099C207.913 61.8024 178.587 50.2672 178.587 50.2672Z" fill="#522D34"/>
<path d="M231.66 50.6018C231.66 50.6018 239.916 42.8108 242.992 49.2316C246.069 55.6524 236.155 67.7133 230.8 65.3235C225.445 62.9336 231.66 50.6018 231.66 50.6018Z" fill="#FAA88D"/>
<path d="M231.533 52.5774C231.533 52.5774 237.813 46.6505 240.156 51.5418C242.499 56.433 234.944 65.5943 230.864 63.7939C226.784 61.9935 231.533 52.5774 231.533 52.5774Z" fill="#EC8777"/>
<path d="M372.952 278.485C372.633 225.684 290.647 222.466 290.647 222.466C290.647 222.466 154.058 219.614 100.41 226.242C100.41 226.242 2.47013 236.216 7.09219 285.718C10.0089 316.914 100.362 331.094 166.728 337.307C166.713 339.463 166.165 341.58 165.135 343.473C165.135 343.473 180.627 342.565 203.147 340.175C223.197 341.482 236.378 341.864 236.378 341.864C235.526 340.096 235.295 338.092 235.725 336.176C295.987 327.748 373.207 310.684 372.952 278.485ZM274.359 280.731L201.729 291.199L100.41 280.412L274.359 280.731Z" fill="#183336"/>
<path d="M186.794 319.463C186.689 319.463 186.587 319.421 186.513 319.346C186.438 319.272 186.396 319.17 186.396 319.065C186.392 319.012 186.398 318.959 186.415 318.909C186.433 318.858 186.46 318.812 186.496 318.774C186.532 318.735 186.576 318.704 186.624 318.682C186.673 318.661 186.726 318.65 186.779 318.651C188.133 318.651 321.36 312.548 345.124 283.025C346.52 281.436 347.546 279.557 348.131 277.525C348.715 275.492 348.842 273.355 348.503 271.267C344.582 248.866 243.12 239.641 150.87 245.09C78.9093 249.344 33.6928 261.023 32.9278 275.633C32.8012 278.272 33.2422 280.907 34.221 283.362C35.1998 285.816 36.6936 288.032 38.6018 289.86C48.1646 299.786 70.478 306.749 103.04 310.031C118.584 311.553 134.201 312.208 149.818 311.991C149.926 311.994 150.029 312.036 150.108 312.109C150.187 312.183 150.237 312.282 150.248 312.389C150.249 312.498 150.208 312.603 150.134 312.682C150.06 312.762 149.958 312.811 149.85 312.819C134.169 313.02 118.489 312.36 102.88 310.844C69.6492 307.498 47.814 300.631 37.9164 290.434C35.9238 288.537 34.3639 286.233 33.3435 283.679C32.323 281.124 31.8659 278.38 32.0034 275.633C32.4496 267.587 44.5945 260.64 68.1032 254.92C88.9025 249.934 117.511 246.237 150.742 244.278C195.768 241.617 244.602 242.541 281.435 246.731C335.099 252.833 347.993 263.365 349.347 271.14C349.709 273.34 349.578 275.593 348.963 277.737C348.349 279.88 347.266 281.861 345.793 283.535C335.704 296.058 305.948 305.841 257.145 312.819C220.918 317.965 187.193 319.447 186.858 319.463H186.794Z" fill="#719FD1"/>
<path d="M38.5065 152.044C29.4217 153.526 21.612 153.637 21.2933 151.646C20.9745 149.654 28.2582 146.34 37.327 144.859C46.3958 143.377 54.604 141.815 54.859 143.807C54.8749 147.535 47.5912 150.562 38.5065 152.044Z" fill="#A89892"/>
<path d="M53.1534 156.728C53.1534 156.728 50.2048 133.387 63.5291 118.219C68.1034 111.703 73.5383 115.861 72.6298 110.906C71.7213 105.951 61.234 108.166 58.8911 108.994C56.2844 110.332 53.8223 111.933 51.5436 113.774L41.7258 97.3637C41.7258 97.3637 34.4102 83.4546 30.5691 81.3197C26.728 79.1847 31.4616 94.6871 31.4616 94.6871L35.6533 102.781C35.6533 102.781 18.2489 86.5296 10.503 87.4218C8.25569 87.852 9.0526 89.5887 9.0526 89.5887C9.0526 89.5887 5.6259 87.5334 4.68555 90.3853C3.7452 93.2372 19.7471 110.827 19.7471 110.827C19.7471 110.827 2.23108 100.566 0.0953712 103.721C-2.04034 106.875 30.4894 133.244 30.4894 133.244L31.2544 165.332L53.1534 156.728Z" fill="#FAA88D"/>
<path d="M31.015 155.374C34.5851 155.374 48.8657 155.597 52.8821 152.188C52.8207 148.799 53.0232 145.411 53.4877 142.054C45.5186 146.563 34.091 147.758 30.7759 145.671L31.015 155.374Z" fill="#EC8777"/>
<path d="M100.267 226.242L106.515 199.969C106.515 199.969 73.1879 248.675 32.5616 233.826C-8.06469 218.977 21.4049 151.104 21.4049 151.104C23.2378 155.342 55.7675 148.874 54.9865 143.52L59.768 180.165C59.768 180.165 99.2627 130.057 144.83 116.196C190.397 102.335 233.972 105.633 257.751 119.175C321.504 154.036 357.301 209.64 353.38 235.355C349.459 261.07 282.105 272.446 282.105 272.446L262.772 252.148L288.48 220.028L100.267 226.242Z" fill="#E0D1DE"/>
<path d="M298.393 146.93L287.539 157.732L272.366 142.58L257.209 157.732L242.036 142.58L226.879 157.732L211.706 142.58L196.326 157.923L180.977 142.58L165.756 157.732L150.583 142.58L135.474 157.732L120.301 142.58L105.191 157.732L93.5406 146.085C87.5 151.168 82.097 156.139 77.459 160.823L89.9864 173.346L105.191 158.178L120.348 173.346L135.474 158.178L150.631 173.346L165.756 158.178L180.913 173.346L196.262 158.003L211.642 173.346L226.815 158.178L241.972 173.346L257.145 158.178L272.303 173.346L287.476 158.178L302.633 173.346L314.3 161.683C309.454 156.696 304.131 151.757 298.393 146.93Z" fill="#A89892"/>
<path d="M184.356 95.7546V81.017L223.357 82.674L222.895 98.8614L204.168 116.021L184.356 95.7546Z" fill="#EC8777"/>
<path d="M189.138 26.8623C188.182 38.5568 184.5 44.7386 178.587 50.2672L182.03 83.5661C182.03 83.5661 195.912 96.7423 198.924 96.9017C201.936 97.061 204.518 96.3918 207.1 96.3918C209.682 96.3918 211.882 97.2203 215.563 96.9017C219.245 96.583 229.7 83.7414 229.7 83.7414L231.661 50.6018L228.234 37.2184C228.234 37.2184 198.781 42.8586 189.138 26.8623Z" fill="#FAA88D"/>
<path d="M208.789 64.8614H200.294C200.191 64.8615 200.092 64.8217 200.018 64.7504C199.944 64.6791 199.9 64.5819 199.896 64.479L199.099 41.9504C199.095 41.8968 199.101 41.8429 199.118 41.7919C199.135 41.7409 199.163 41.6939 199.198 41.6537C199.234 41.6135 199.278 41.5809 199.326 41.558C199.375 41.5351 199.428 41.5222 199.481 41.5203C199.59 41.52 199.695 41.5609 199.775 41.6348C199.855 41.7087 199.904 41.8101 199.912 41.9186L200.693 64.0488H208.789C208.896 64.053 208.998 64.0984 209.072 64.1757C209.146 64.2529 209.188 64.3559 209.188 64.4631C209.188 64.5687 209.146 64.67 209.071 64.7447C208.996 64.8194 208.895 64.8614 208.789 64.8614Z" fill="#EC8777"/>
<path d="M185.138 130.073L203.865 120.275L221.238 130.025L206.989 116.021L204.503 113.647L185.138 130.073Z" fill="#A89892"/>
<path d="M279.283 228.695L304.912 210.915C292.273 203.283 271.984 184.196 261.576 171.434C261.576 171.434 271.474 189.151 277.02 198.679C282.567 208.206 279.283 228.695 279.283 228.695Z" fill="#A89892"/>
<path d="M184.101 46.9213C184.101 46.9213 181.981 55.7479 191.481 54.553C200.98 53.3581 196.485 44.0535 196.485 44.0535L184.101 46.9213Z" fill="#EC8777"/>
<path d="M106.403 201.068L116.141 163.707C116.141 163.707 99.1347 223.9 48.1646 223.661C33.6609 223.661 22.6636 220.873 14.5352 216.873C16.1458 220.833 18.5889 224.4 21.699 227.333C24.8091 230.266 28.5135 232.496 32.5612 233.873C33.3103 234.144 34.0434 234.383 34.7925 234.606L35.446 234.814L37.0398 235.244L37.7411 235.419L39.4783 235.801L39.9246 235.897C40.6577 236.04 41.3909 236.152 42.1081 236.263H42.5384L44.2916 236.455H44.9132C45.4551 236.455 46.013 236.534 46.507 236.55H47.0171C48.4468 236.598 49.8782 236.567 51.3044 236.455H51.7029C52.2926 236.455 52.8823 236.359 53.4561 236.295H53.8705L55.9105 235.993C57.345 235.759 58.7635 235.456 60.166 235.084H60.3732C61.0426 234.909 61.6961 234.734 62.3495 234.527C64.4502 233.894 66.51 233.133 68.5176 232.248C90.8469 221.701 106.403 201.068 106.403 201.068Z" fill="#A89892"/>
<path d="M293.915 218.419C293.82 218.421 293.729 218.387 293.66 218.323C278.534 206.597 259.95 169.156 259.775 168.773C259.75 168.726 259.735 168.675 259.731 168.622C259.726 168.569 259.733 168.516 259.749 168.465C259.765 168.415 259.791 168.368 259.826 168.328C259.861 168.288 259.903 168.255 259.95 168.231C260.048 168.185 260.16 168.177 260.264 168.21C260.367 168.242 260.454 168.313 260.508 168.407C260.684 168.789 279.172 206.071 294.154 217.686C294.239 217.752 294.296 217.849 294.31 217.957C294.325 218.064 294.298 218.173 294.233 218.26C294.194 218.307 294.145 218.345 294.091 218.372C294.036 218.4 293.976 218.416 293.915 218.419Z" fill="#A89892"/>
<path d="M287.077 223.629C286.992 223.625 286.91 223.594 286.842 223.541C286.775 223.488 286.725 223.416 286.701 223.333C286.676 223.251 286.678 223.164 286.705 223.082C286.733 223.001 286.785 222.93 286.854 222.88L306.251 209.497C306.342 209.436 306.453 209.413 306.561 209.434C306.668 209.455 306.763 209.518 306.825 209.608C306.855 209.652 306.875 209.701 306.886 209.753C306.896 209.805 306.897 209.859 306.886 209.91C306.876 209.962 306.855 210.012 306.825 210.056C306.796 210.099 306.758 210.137 306.713 210.166L287.317 223.549C287.245 223.597 287.163 223.624 287.077 223.629Z" fill="#A89892"/>
<path d="M197.218 43.0178C197.92 45.806 191.656 46.5708 187.13 47.1284C184.516 47.4311 183.623 47.7339 183.336 47.4152C183.049 47.0966 183.559 45.6626 185.839 44.3243C189.903 41.9504 196.517 40.2296 197.218 43.0178Z" fill="#6F3D47"/>
<path d="M208.996 41.9344C208.996 41.9344 205.107 53.8042 215.196 53.3899C225.285 52.9757 222.177 42.8585 222.177 42.8585L208.996 41.9344Z" fill="#EC8777"/>
<path d="M202.414 215.503C202.307 215.499 202.206 215.454 202.131 215.377C202.057 215.299 202.016 215.196 202.016 215.089L204.008 114.396C204.016 114.29 204.062 114.191 204.139 114.117C204.215 114.044 204.316 114.001 204.422 113.997C204.529 114.001 204.631 114.047 204.705 114.124C204.779 114.201 204.821 114.304 204.821 114.412L202.749 215.089C202.751 215.186 202.718 215.281 202.657 215.357C202.596 215.433 202.51 215.485 202.414 215.503Z" fill="#A89892"/>
<path d="M168.307 110.428L184.914 129.898L204.502 113.647L221.588 129.818L240.698 112.165L222.895 98.8614L204.502 113.647L184.356 95.7545L168.307 110.428Z" fill="#E0D1DE"/>
<path d="M208.199 42.747C208.199 45.6149 214.319 43.7508 218.83 43.1453C221.444 42.8108 222.018 43.2409 222.161 42.8585C222.305 42.4762 221.954 41.0104 219.42 40.2775C214.877 38.971 208.183 39.8314 208.199 42.747Z" fill="#6F3D47"/>
<path d="M212.343 87.9794C212.343 88.9194 209.841 88.5052 206.733 88.5052C203.625 88.5052 201.123 88.9194 201.123 87.9794C201.123 87.0394 203.625 85.3983 206.733 85.3983C209.841 85.3983 212.343 87.0394 212.343 87.9794Z" fill="#EC8777"/>
<path d="M157.517 178.333C152.169 178.303 146.984 176.498 142.774 173.202C142.72 173.162 142.677 173.109 142.649 173.048C142.621 172.986 142.609 172.919 142.614 172.852L143.603 152.952C143.609 152.837 143.661 152.728 143.746 152.65C143.834 152.585 143.94 152.552 144.049 152.554C153.868 153.721 163.781 153.87 173.63 153C173.688 152.994 173.747 153.001 173.802 153.02C173.857 153.04 173.907 153.071 173.949 153.112C173.996 153.149 174.032 153.198 174.054 153.254C174.077 153.31 174.084 153.371 174.076 153.43L172.753 173.665C172.747 173.732 172.725 173.798 172.689 173.856C172.653 173.914 172.604 173.963 172.546 173.999C167.98 176.683 162.811 178.173 157.517 178.333Z" fill="#E0D1DE"/>
<path d="M157.517 178.333C152.169 178.303 146.984 176.498 142.774 173.202C142.72 173.162 142.677 173.109 142.649 173.048C142.621 172.986 142.609 172.919 142.614 172.852L143.603 152.952C143.609 152.837 143.661 152.728 143.746 152.65C143.834 152.585 143.94 152.552 144.049 152.554C153.868 153.721 163.781 153.87 173.63 153C173.688 152.994 173.747 153.001 173.802 153.02C173.857 153.04 173.907 153.071 173.949 153.112C173.996 153.149 174.032 153.198 174.054 153.254C174.077 153.31 174.084 153.371 174.076 153.43L172.753 173.665C172.747 173.732 172.725 173.798 172.689 173.856C172.653 173.914 172.604 173.963 172.546 173.999C167.98 176.683 162.811 178.173 157.517 178.333ZM143.443 172.677C151.938 178.938 161.278 179.193 171.957 173.441L173.232 153.908C163.63 154.714 153.972 154.565 144.4 153.462L143.443 172.677Z" fill="#A89892"/>
<path d="M105.621 206.422H105.51C105.404 206.395 105.314 206.329 105.257 206.237C105.201 206.144 105.183 206.033 105.207 205.928L116.491 158.322C116.502 158.268 116.524 158.217 116.555 158.172C116.586 158.127 116.626 158.089 116.672 158.059C116.718 158.03 116.769 158.01 116.823 158C116.876 157.99 116.932 157.991 116.985 158.003C117.088 158.033 117.176 158.1 117.232 158.191C117.288 158.283 117.308 158.392 117.288 158.497L106.004 206.119C105.982 206.205 105.933 206.281 105.864 206.336C105.795 206.391 105.709 206.421 105.621 206.422Z" fill="#A89892"/>
<path d="M167.988 110.683L184.595 130.153C184.636 130.198 184.685 130.234 184.74 130.258C184.795 130.283 184.854 130.296 184.914 130.296C185.008 130.295 185.098 130.261 185.169 130.201L204.486 114.268L221.221 130.201C221.298 130.275 221.401 130.316 221.508 130.316C221.615 130.316 221.718 130.275 221.795 130.201L240.921 112.484C240.97 112.434 241.008 112.374 241.032 112.308L240.251 111.894L221.54 129.324L204.821 113.392C204.743 113.326 204.644 113.289 204.542 113.289C204.44 113.289 204.341 113.326 204.263 113.392L184.994 129.324L168.641 110.205L167.956 110.62C167.965 110.642 167.976 110.663 167.988 110.683Z" fill="#A89892"/>
<path d="M187.624 14.0685C185.998 6.70765 194.764 1.59331 200.98 1.0516C204.173 0.838447 207.36 1.55022 210.158 3.10161C212.957 4.65301 215.249 6.97821 216.759 9.79855C217.078 10.3881 217.954 9.79855 217.651 9.28871C216.348 6.85418 214.487 4.76209 212.221 3.18296C209.954 1.60384 207.347 0.582385 204.611 0.201861C201.875 -0.178663 199.088 0.0925148 196.476 0.993289C193.865 1.89406 191.503 3.39894 189.584 5.38525C188.395 6.52068 187.503 7.93167 186.989 9.49342C186.475 11.0552 186.354 12.7195 186.636 14.3393C186.779 14.9766 187.752 14.7058 187.624 14.0685Z" fill="#522D34"/>
<path d="M180.675 11.8539C174.905 12.8735 171.112 18.5614 169.693 23.8351C168.865 26.8751 168.722 30.0607 169.273 33.1627C169.824 36.2648 171.056 39.2061 172.881 41.7751C173.247 42.3009 174.14 41.7751 173.757 41.2494C172.037 38.8499 170.861 36.1045 170.311 33.2044C169.76 30.3042 169.849 27.319 170.57 24.4565C171.877 19.374 175.351 13.8295 180.93 12.8417C181.567 12.7301 181.296 11.7423 180.659 11.8539H180.675Z" fill="#522D34"/>
<path d="M9.99317 90.8951C16.5172 95.6324 22.8393 100.614 28.9595 105.84C29.4536 106.254 30.0115 105.41 29.5174 104.979C23.3971 99.7855 17.075 94.8092 10.551 90.0507C10.025 89.6683 9.46721 90.5128 9.99317 90.8951Z" fill="#EC8777"/>
<path d="M209.729 64.463C209.729 65.2437 207.53 65.881 204.82 65.881C202.111 65.881 200.039 65.3871 200.039 64.6064C200.039 63.8257 202.031 64.24 204.82 64.24C207.61 64.24 209.729 63.7301 209.729 64.463Z" fill="#EC8777"/>
<path d="M166.219 318.045C170.474 330.44 171.478 341.099 167.446 342.485C163.414 343.872 155.843 335.475 151.508 323.064C147.173 310.652 147.97 299.436 152.002 298.05C156.034 296.664 161.947 305.649 166.219 318.045Z" fill="#112633"/>
<path d="M178.028 336.017C177.534 336.893 165.835 343.282 165.835 343.282C165.835 343.282 146.231 346.469 140.892 350.675C135.553 354.881 135.298 319.973 143.283 318.905C152.846 317.615 163.397 310.716 169.501 307.466C180.674 301.507 178.028 336.017 178.028 336.017Z" fill="#FAA88D"/>
<path d="M46.698 129.962C47.2239 130.36 47.8774 129.563 47.3514 129.165C45.9564 128.136 44.904 126.711 44.3315 125.075C43.7589 123.44 43.693 121.669 44.1421 119.996C44.5912 118.322 45.5346 116.822 46.8492 115.692C48.1638 114.563 49.7885 113.855 51.5113 113.663L51.0013 112.723C49.1306 113.02 47.3887 113.861 45.9925 115.141C44.5963 116.421 43.6073 118.083 43.1487 119.92C42.6901 121.757 42.782 123.689 43.4131 125.474C44.0442 127.26 45.1865 128.82 46.698 129.962Z" fill="#EC8777"/>
<path d="M27.5888 124.162C32.5414 121.954 37.9952 121.112 43.3834 121.725C44.0369 121.725 44.0847 120.785 43.3834 120.705C37.8237 120.092 32.201 120.972 27.0947 123.254C26.505 123.525 26.9672 124.433 27.5569 124.162H27.5888Z" fill="#EC8777"/>
<path d="M153.627 315.799C161.102 314.381 167.366 338.486 165.836 343.282L169.023 341.514C171.078 340.248 172.782 338.489 173.982 336.396C175.182 334.304 175.839 331.944 175.893 329.532C175.893 322.825 170.474 313.775 167.111 308.82C162.983 311.098 153.627 315.799 153.627 315.799Z" fill="#EC8777"/>
<path d="M19.9384 117.996C25.1296 110.979 32.1949 105.568 40.3233 102.382C40.9448 102.143 40.4826 101.235 39.8611 101.474C31.5984 104.741 24.4194 110.261 19.1415 117.407C18.759 117.933 19.6037 118.506 20.0021 117.964L19.9384 117.996Z" fill="#EC8777"/>
<path d="M30.4893 133.244C31.9078 134.694 35.5257 135.522 35.191 136.542C34.8563 137.562 30.569 136.367 30.569 136.367L30.4893 133.244Z" fill="#EC8777"/>
<path d="M47.2881 158.13C46.7056 157.852 46.2326 157.388 45.9439 156.811C45.6553 156.233 45.5674 155.577 45.6943 154.944C45.836 154.148 46.2747 153.437 46.9215 152.952C47.2026 152.728 47.5293 152.567 47.879 152.482C48.2286 152.396 48.5927 152.388 48.9457 152.458C49.2983 152.531 49.6314 152.678 49.9227 152.89C50.214 153.101 50.4569 153.372 50.6351 153.685C51.0259 154.359 51.1563 155.152 51.0017 155.916C50.8951 156.655 50.4997 157.321 49.9021 157.769C49.3046 158.217 48.5536 158.41 47.8141 158.306C47.6333 158.265 47.4571 158.206 47.2881 158.13ZM49.1369 153.351L48.7863 153.239C48.5461 153.194 48.2989 153.202 48.0621 153.262C47.8253 153.323 47.6046 153.435 47.4156 153.59C46.9734 153.939 46.6733 154.437 46.5709 154.992C46.4896 155.241 46.4622 155.504 46.4905 155.764C46.5187 156.025 46.602 156.276 46.7348 156.502C46.8675 156.727 47.0468 156.922 47.2606 157.074C47.4745 157.225 47.7181 157.329 47.9752 157.379C48.2323 157.429 48.4972 157.424 48.7521 157.364C49.0071 157.304 49.2465 157.19 49.4543 157.031C49.6621 156.872 49.8336 156.67 49.9575 156.439C50.0814 156.208 50.1548 155.954 50.1729 155.693C50.2898 155.148 50.1988 154.58 49.9179 154.099C49.7344 153.796 49.4616 153.557 49.1369 153.414V153.351Z" fill="#A89892"/>
<path d="M156.927 297.651L152.464 297.954C164.593 299.547 172.116 338.917 164.816 343.489L186.874 341.705L182.874 295.07L156.927 297.651Z" fill="#183336"/>
<path d="M159.987 162.687C154.482 162.616 148.996 162.024 143.602 160.919C143.497 160.896 143.403 160.834 143.341 160.745C143.279 160.656 143.253 160.548 143.268 160.441C143.277 160.388 143.297 160.337 143.326 160.293C143.356 160.248 143.394 160.209 143.439 160.179C143.483 160.15 143.534 160.129 143.586 160.119C143.639 160.109 143.693 160.11 143.746 160.122C154.074 162.082 162.601 162.83 173.104 160.409C173.159 160.386 173.218 160.376 173.278 160.379C173.338 160.381 173.396 160.397 173.449 160.424C173.502 160.452 173.548 160.49 173.585 160.537C173.622 160.584 173.648 160.638 173.662 160.696C173.676 160.754 173.677 160.814 173.666 160.873C173.654 160.931 173.63 160.987 173.596 161.035C173.561 161.083 173.516 161.123 173.464 161.153C173.412 161.182 173.354 161.2 173.295 161.205C168.93 162.205 164.465 162.702 159.987 162.687Z" fill="#A89892"/>
<path d="M144.033 152.729C153.836 154.318 163.818 154.463 173.662 153.159C163.804 152.412 153.909 152.268 144.033 152.729Z" fill="#A89892"/>
<path d="M201.091 291.565L69.6815 277.449C69.5743 277.437 69.4761 277.384 69.4077 277.3C69.3392 277.217 69.3059 277.11 69.3149 277.003C69.3188 276.949 69.3336 276.897 69.3585 276.849C69.3833 276.801 69.4177 276.758 69.4594 276.724C69.5011 276.69 69.5494 276.664 69.6013 276.649C69.6532 276.634 69.7076 276.63 69.7612 276.636L201.171 290.753C201.225 290.757 201.277 290.771 201.325 290.796C201.373 290.821 201.416 290.855 201.45 290.897C201.484 290.939 201.51 290.987 201.525 291.039C201.54 291.091 201.544 291.145 201.538 291.199C201.526 291.306 201.472 291.404 201.389 291.472C201.306 291.541 201.199 291.574 201.091 291.565Z" fill="#719FD1"/>
<path d="M187.066 341.768C189.584 335.395 188.659 327.318 187.671 322.315C185.424 311.003 180.069 300.009 174.698 295.07L173.789 295.357C179.096 300.137 184.627 311.29 186.858 322.442C187.862 327.445 188.771 335.634 186.125 341.816L187.066 341.768Z" fill="#719FD1"/>
<path d="M152.337 297.938L152.496 297.858L301.868 276.302C301.968 276.302 302.064 276.339 302.139 276.405C302.214 276.47 302.263 276.561 302.277 276.66C302.29 276.758 302.268 276.859 302.213 276.942C302.159 277.026 302.076 277.087 301.98 277.114L154.281 298.464C153.664 298.189 153.008 298.012 152.337 297.938Z" fill="#719FD1"/>
<path d="M143.299 318.905C132.143 320.626 121.958 316.436 113.304 320.499C94.3055 329.309 111.264 390.442 131.904 391.032C152.543 391.621 135.474 354.897 140.893 350.675C142.959 349.267 145.234 348.191 147.635 347.488C153.452 339.729 146.009 320.036 143.299 318.905Z" fill="white"/>
<path d="M113.304 320.451C108.108 322.857 105.606 329.182 105.128 337.1C105.889 337.202 106.655 337.255 107.423 337.26C109.638 337.27 111.833 336.843 113.882 336.003C115.931 335.163 117.795 333.927 119.364 332.365C120.934 330.803 122.18 328.946 123.03 326.902C123.88 324.857 124.317 322.665 124.317 320.451C124.318 319.855 124.286 319.259 124.222 318.666C120.493 318.391 116.751 319.003 113.304 320.451Z" fill="#FFDCD1"/>
<path d="M115.742 378.063C120.3 385.599 125.959 390.809 131.903 390.984C140.271 391.223 142.454 385.344 142.454 377.983C137.466 374.765 128.03 371.228 115.742 378.063Z" fill="#FFDCD1"/>
<path d="M135.633 319.32H134.39C140.478 328.576 140.94 340.032 140.765 350.866L140.94 350.723C141.216 350.506 141.504 350.304 141.801 350.117C141.928 339.506 141.355 328.385 135.633 319.32Z" fill="#FFDCD1"/>
<path d="M197.632 50.8886C197.855 52.7208 195.162 54.5371 191.623 54.9673C188.085 55.3975 185.041 54.2663 184.818 52.434C184.595 50.6018 187.24 50.8408 190.779 50.3787C194.317 49.9167 197.393 49.0563 197.632 50.8886Z" fill="white"/>
<path d="M221.954 49.3909C222.193 51.2231 219.5 53.0553 215.962 53.4855C212.423 53.9157 209.363 52.8004 209.14 50.9682C208.917 49.1359 211.563 49.3749 215.101 48.8969C218.639 48.419 221.731 47.6383 221.954 49.3909Z" fill="white"/>
<path d="M196.342 70.7723C196.342 70.7723 201.777 69.0038 203.179 68.8286C204.582 68.6533 204.662 69.4181 205.458 69.3065C206.255 69.195 205.682 68.6214 207.706 68.3187C210.15 68.1275 212.603 68.069 215.053 68.1435C215.053 68.1435 217.396 74.1022 214.655 76.8745C211.913 79.6467 202.558 80.8098 199.545 78.8023C196.533 76.7948 196.342 70.7723 196.342 70.7723Z" fill="#EC8777"/>
<path d="M196.995 71.2025L214.734 68.7489C214.734 68.7489 215.149 73.3534 212.854 75.5999C210.558 77.8464 203.083 78.5793 200.549 76.9542C198.015 75.329 196.995 71.2025 196.995 71.2025Z" fill="white"/>
<path d="M184.786 52.8322C184.683 52.8367 184.583 52.801 184.505 52.7326C184.428 52.6643 184.38 52.5686 184.372 52.4658C184.372 52.4658 184.372 50.6017 187.687 50.2671C188.357 50.2671 189.169 50.06 190.03 49.9166C193.218 49.3908 196.756 48.8013 197.999 50.6654C198.029 50.7114 198.049 50.7628 198.058 50.8165C198.068 50.8703 198.067 50.9254 198.055 50.9787C198.043 51.032 198.021 51.0825 197.989 51.1271C197.958 51.1718 197.918 51.2098 197.872 51.239C197.78 51.2935 197.671 51.3107 197.567 51.287C197.463 51.2632 197.373 51.2004 197.314 51.1115C196.405 49.6935 192.979 50.2671 190.221 50.7292C189.345 50.8725 188.516 51.0159 187.815 51.0797C185.791 51.2868 185.249 52.0516 185.249 52.418C185.249 52.5252 185.207 52.6282 185.133 52.7054C185.059 52.7827 184.957 52.8281 184.85 52.8322H184.786Z" fill="#522D34"/>
<path d="M279.411 302.32H117.193C115.908 302.322 114.668 301.848 113.714 300.988C112.76 300.128 112.159 298.945 112.029 297.667L101.589 194.871C101.515 194.147 101.595 193.415 101.823 192.724C102.051 192.032 102.422 191.397 102.912 190.858C103.403 190.32 104.001 189.891 104.668 189.6C105.336 189.308 106.057 189.161 106.785 189.167H287.093C287.805 189.167 288.51 189.314 289.163 189.599C289.816 189.884 290.403 190.3 290.888 190.822C291.372 191.344 291.744 191.96 291.98 192.632C292.215 193.304 292.31 194.017 292.257 194.727L284.575 297.524C284.482 298.829 283.897 300.049 282.939 300.94C281.98 301.83 280.719 302.323 279.411 302.32Z" fill="#DEDFE0"/>
<path d="M101.765 196.575C102.067 195.479 102.723 194.513 103.63 193.827C104.538 193.141 105.647 192.774 106.785 192.784H287.093C288.242 192.785 289.358 193.168 290.267 193.871C291.175 194.575 291.825 195.559 292.114 196.671L292.257 194.695C292.31 193.985 292.215 193.272 291.98 192.6C291.744 191.928 291.372 191.312 290.888 190.79C290.403 190.268 289.816 189.852 289.163 189.567C288.51 189.282 287.805 189.135 287.093 189.135H106.785C106.061 189.136 105.345 189.288 104.683 189.583C104.022 189.877 103.429 190.307 102.944 190.844C102.459 191.382 102.092 192.015 101.867 192.703C101.642 193.391 101.564 194.119 101.637 194.839L101.765 196.575Z" fill="#CACBCB"/>
<path d="M203.306 248.213C203.306 250.104 202.746 251.952 201.695 253.524C200.644 255.096 199.15 256.321 197.403 257.045C195.656 257.768 193.733 257.958 191.878 257.589C190.023 257.22 188.319 256.309 186.982 254.972C185.644 253.636 184.733 251.932 184.364 250.078C183.995 248.223 184.185 246.301 184.909 244.555C185.632 242.808 186.858 241.315 188.431 240.264C190.003 239.214 191.852 238.653 193.744 238.653C196.28 238.653 198.712 239.66 200.506 241.453C202.299 243.246 203.306 245.678 203.306 248.213Z" fill="white"/>
<path d="M209.156 51.4781C209.053 51.4825 208.952 51.4468 208.875 51.3784C208.797 51.3101 208.75 51.2144 208.741 51.1116C208.741 51.1116 208.662 49.2634 212.041 48.897C212.71 48.897 213.523 48.6899 214.383 48.5465C217.571 47.9888 221.093 47.3675 222.353 49.2316C222.393 49.2759 222.423 49.3286 222.442 49.3859C222.46 49.4431 222.465 49.5037 222.458 49.5633C222.45 49.6229 222.43 49.6801 222.398 49.731C222.366 49.7819 222.323 49.8252 222.273 49.858C222.222 49.8908 222.165 49.9122 222.106 49.9208C222.046 49.9295 221.986 49.925 221.928 49.9079C221.871 49.8907 221.817 49.8612 221.772 49.8215C221.727 49.7817 221.691 49.7327 221.667 49.6777C220.759 48.2597 217.316 48.8651 214.575 49.3431C213.698 49.5024 212.869 49.6458 212.168 49.7095C210.144 49.9326 209.602 50.6974 209.602 51.0638C209.604 51.1161 209.596 51.1684 209.578 51.2175C209.56 51.2666 209.532 51.3117 209.497 51.3502C209.461 51.3887 209.418 51.4198 209.371 51.4417C209.323 51.4637 209.272 51.476 209.22 51.4781H209.156Z" fill="#522D34"/>
<path d="M192.07 51.1275C191.588 51.1254 191.109 51.2186 190.663 51.4018C190.216 51.5851 189.81 51.8546 189.468 52.1951C189.126 52.5356 188.854 52.9403 188.669 53.3859C188.484 53.8316 188.389 54.3094 188.389 54.792C188.389 54.792 188.389 54.8876 188.389 54.9194C189.446 55.0719 190.519 55.0719 191.576 54.9194C192.97 54.7793 194.32 54.3565 195.545 53.6767C195.314 52.9368 194.852 52.2902 194.226 51.8316C193.601 51.3729 192.846 51.1262 192.07 51.1275Z" fill="#522D34"/>
<path d="M212.695 53.5015C213.778 53.6547 214.878 53.6547 215.962 53.5015C217.347 53.3541 218.69 52.9374 219.915 52.2747C219.705 51.3685 219.158 50.5761 218.385 50.0582C217.612 49.5402 216.671 49.3355 215.753 49.4854C214.834 49.6354 214.007 50.1289 213.439 50.8657C212.872 51.6026 212.605 52.5278 212.695 53.4537V53.5015Z" fill="#522D34"/>
<path d="M57.0901 160.361C53.0737 164.296 43.6861 168.327 32.0194 169.458C21.6118 170.51 17.3563 168.582 15.7625 167.387L15.5234 168.231C17.1173 169.283 20.1933 170.574 26.4092 170.574C28.003 170.574 29.9634 170.478 32.0991 170.271C42.7936 169.187 52.5955 165.491 57.2335 161.396L57.0901 160.361Z" fill="#A89892"/>
</g>
<defs>
<clipPath id="clip0_6_657">
<rect width="373" height="391" fill="white"/>
</clipPath>
</defs>
</svg>
