<svg width="32" height="32" viewBox="0 0 32 32" fill="none" xmlns="http://www.w3.org/2000/svg">
<path fill-rule="evenodd" clip-rule="evenodd" d="M25.9998 15.6667C25.9998 21.0054 21.6719 25.3333 16.3332 25.3333C10.9944 25.3333 6.6665 21.0054 6.6665 15.6667C6.6665 10.3279 10.9944 6 16.3332 6C21.6719 6 25.9998 10.3279 25.9998 15.6667ZM16.3332 27.3333C22.7765 27.3333 27.9998 22.11 27.9998 15.6667C27.9998 9.22334 22.7765 4 16.3332 4C9.88985 4 4.6665 9.22334 4.6665 15.6667C4.6665 22.11 9.88985 27.3333 16.3332 27.3333ZM16.5158 18.5055C16.739 18.5055 16.9385 18.4358 17.1143 18.2962C17.2902 18.1567 17.4153 17.9796 17.4897 17.7649C17.5235 17.6433 17.5404 17.5252 17.5404 17.4108V16.6058C17.7636 16.4913 17.9631 16.3732 18.139 16.2516C18.7138 15.8581 19.1399 15.4073 19.4172 14.8993C19.6945 14.3912 19.8332 13.8617 19.8332 13.3108C19.8332 12.7169 19.6861 12.1516 19.3919 11.615C19.0977 11.0784 18.7071 10.6472 18.2201 10.3217C17.7332 9.99612 17.209 9.83333 16.6477 9.83333V9.84407C16.6409 9.83691 16.6274 9.83333 16.6071 9.83333H16.5969C15.7177 9.84049 14.989 10.0212 14.4107 10.3753C13.8324 10.7295 13.3539 11.2644 12.9752 11.9799L12.894 12.1409V12.1516L12.8636 12.2482L12.8535 12.3019C12.8535 12.3162 12.8501 12.3269 12.8433 12.3341L12.8332 12.42V12.6346C12.8332 12.6561 12.8366 12.6704 12.8433 12.6776V12.7205C12.8636 12.8564 12.9076 12.9834 12.9752 13.1015C13.0428 13.2196 13.1274 13.3179 13.2288 13.3967L13.2339 13.402L13.239 13.4074C13.2457 13.4145 13.2542 13.4217 13.2643 13.4289C13.2745 13.436 13.2897 13.4432 13.31 13.4503L13.3506 13.4825C13.3573 13.4897 13.3675 13.4933 13.381 13.4933C13.4486 13.5362 13.5027 13.5612 13.5433 13.5684L13.5535 13.5791C13.6008 13.5934 13.6651 13.6077 13.7462 13.622H13.9694L14.0607 13.6006H14.0709L14.152 13.5791L14.1723 13.5684L14.2535 13.5362H14.2636L14.3448 13.4933C14.5274 13.3931 14.666 13.25 14.7607 13.0639C14.8824 12.8207 15.0143 12.6257 15.1564 12.479C15.2984 12.3323 15.4844 12.2178 15.7143 12.1355C15.9443 12.0533 16.2385 12.0121 16.5969 12.0121C16.7728 12.0121 16.9554 12.0694 17.1448 12.1838C17.3341 12.2983 17.4897 12.4504 17.6114 12.64C17.7332 12.8296 17.794 13.0317 17.794 13.2464C17.794 13.5398 17.6638 13.8278 17.4035 14.1104C17.1431 14.393 16.7288 14.6453 16.1607 14.8671C15.9578 14.9458 15.7938 15.0799 15.6687 15.2695C15.5436 15.4592 15.481 15.6649 15.481 15.8867V17.4108C15.481 17.5396 15.5013 17.6576 15.5419 17.7649C15.6095 17.9796 15.7329 18.1567 15.9122 18.2962C16.0914 18.4358 16.2926 18.5055 16.5158 18.5055ZM16.5158 21.5C16.7998 21.5 17.0416 21.3945 17.2411 21.1834C17.4407 20.9723 17.5404 20.7165 17.5404 20.416V20.2013C17.5404 19.9008 17.4407 19.645 17.2411 19.4339C17.0416 19.2228 16.7998 19.1173 16.5158 19.1173C16.2317 19.1173 15.9883 19.2228 15.7854 19.4339C15.5825 19.645 15.481 19.9008 15.481 20.2013V20.416C15.481 20.7165 15.5825 20.9723 15.7854 21.1834C15.9883 21.3945 16.2317 21.5 16.5158 21.5Z" fill="#182436"/>
</svg>
