<svg width="118" height="120" viewBox="0 0 118 120" fill="none" xmlns="http://www.w3.org/2000/svg">
<path fill-rule="evenodd" clip-rule="evenodd" d="M88.5116 93.0306C89.3084 92.3302 90.0848 91.5997 90.8423 90.8416C100.416 81.268 105.688 68.5388 105.688 54.9997C105.688 41.4599 100.416 28.7307 90.8423 19.1571C81.2686 9.58412 68.5394 4.31236 55.0003 4.31236C41.4606 4.31236 28.7314 9.58412 19.1577 19.1571C9.58412 28.7307 4.31236 41.4599 4.31236 54.9997C4.31236 68.5388 9.58412 81.268 19.1577 90.8416C19.9139 91.5977 20.6903 92.3282 21.4864 93.0306C21.5867 89.7465 21.8838 82.348 28.8809 79.9453C28.8873 79.9432 28.8936 79.9412 28.9 79.9391C28.9428 79.9253 28.9865 79.9112 29.0442 79.8981C36.4413 78.0186 42.5328 73.7725 42.5977 73.7246C43.5938 73.0223 44.9657 73.2669 45.6667 74.2637C46.369 75.2585 46.1244 76.631 45.129 77.3327C45.1157 77.3412 45.0884 77.3596 45.0474 77.3871C44.2279 77.9384 37.9639 82.1517 30.2193 84.1422C26.4152 85.4977 25.9896 89.5635 25.8761 93.287C25.8761 93.3624 25.8716 93.4335 25.8673 93.5027C25.8631 93.5682 25.8591 93.632 25.8591 93.6962C25.8407 94.5015 25.8683 95.5487 25.9391 96.5462C31.7991 100.664 38.4263 103.463 45.4542 104.794C48.3672 105.202 51.5608 105.453 55.0075 105.453C58.4018 105.453 61.5456 105.213 64.4166 104.82C71.4904 103.499 78.1635 100.69 84.0576 96.5481C84.1239 95.5546 84.1488 94.5152 84.1409 93.7126C84.1239 93.5821 84.1239 93.4509 84.1239 93.3027C84.0104 89.5805 83.5855 85.5148 79.7813 84.1593C71.6484 82.0693 65.1491 77.5458 64.871 77.3491C63.8762 76.6474 63.631 75.2755 64.3313 74.2787C65.0343 73.2826 66.4062 73.038 67.403 73.7403C67.4672 73.7895 73.5908 78.0357 80.9558 79.9131C80.9789 79.9208 81.0055 79.9284 81.0323 79.936C81.0625 79.9446 81.093 79.9533 81.1191 79.9623C88.1037 82.3434 88.412 89.7209 88.5116 93.0306ZM93.8916 16.1077C98.9424 21.1598 102.906 27.0415 105.676 33.59C108.546 40.3727 110 47.5757 110 54.9997C110 62.423 108.546 69.626 105.676 76.4093C102.906 82.9579 98.9424 88.8395 93.8916 93.8909C92.1125 95.6701 90.2324 97.3134 88.2552 98.8165C84.6157 101.584 80.6529 103.881 76.4093 105.676C72.0891 107.503 67.6003 108.757 62.9903 109.426C60.3626 109.807 57.6949 110 55.0003 110C52.2599 110 49.5509 109.801 46.8819 109.407C42.317 108.734 37.8709 107.486 33.59 105.676C29.3563 103.886 25.4001 101.595 21.7684 98.8342C19.7834 97.3259 17.8934 95.6766 16.1084 93.8909C11.0583 88.8395 7.09415 82.9579 4.32285 76.4093C1.45385 69.626 0 62.423 0 54.9997C0 47.5757 1.45385 40.3727 4.32285 33.59C7.09415 27.0415 11.0583 21.1598 16.1084 16.1077C21.1598 11.0576 27.0421 7.0935 33.59 4.32285C40.3733 1.45319 47.5763 0 55.0003 0C62.4237 0 69.6267 1.45319 76.4093 4.32285C82.9585 7.0935 88.8395 11.0576 93.8916 16.1077ZM56.0738 68.5377C59.6768 68.5046 62.4162 67.3472 64.4708 65.0013C69.6544 59.085 68.5138 47.847 68.4961 47.7322C68.4811 47.6997 68.4811 47.6499 68.4811 47.5995C67.9756 36.3948 60.4913 34.5771 56.0901 34.4775H55.893C52.3404 34.4775 44.0409 35.751 43.5027 47.5995C43.5027 47.614 43.4996 47.6319 43.4962 47.6518C43.4919 47.6765 43.487 47.7043 43.487 47.7322C43.4707 47.8304 42.3615 59.1175 47.53 65.0013C49.5689 67.3472 52.3228 68.5046 55.9107 68.5377H56.0738ZM56.1877 30C59.481 30.065 62.4319 30.8587 64.9599 32.33C68.3508 34.2963 72.4593 38.5097 72.8665 47.3188C72.9805 48.4928 74.0248 60.7865 67.7478 67.9597C64.8938 71.2135 61.0295 72.9177 56.2532 73H55.73C50.9543 72.9177 47.0901 71.2135 44.2531 67.9597C37.9761 60.7865 39.0184 48.4928 39.1343 47.3188C39.5416 38.444 43.7149 34.23 47.1392 32.2643C50.5464 30.2973 54.1004 30 55.9107 30H56.1877Z" fill="#2ADB86"/>
<g filter="url(#filter0_d_6_1364)">
<path fill-rule="evenodd" clip-rule="evenodd" d="M94 110C102.837 110 110 102.837 110 94C110 85.1634 102.837 78 94 78C85.1634 78 78 85.1634 78 94C78 102.837 85.1634 110 94 110Z" fill="#27282A"/>
</g>
<mask id="mask0_6_1364" style="mask-type:alpha" maskUnits="userSpaceOnUse" x="85" y="85" width="18" height="18">
<path fill-rule="evenodd" clip-rule="evenodd" d="M85 85H102.924V102.962H85V85Z" fill="white"/>
</mask>
<g mask="url(#mask0_6_1364)">
<path fill-rule="evenodd" clip-rule="evenodd" d="M86.5916 98.8126L95.9516 89.4526L98.5095 92.0105L89.1495 101.352L86.5726 101.371L86.5916 98.8126ZM98.5095 86.8947L101.067 89.4526L99.6274 90.8926L97.0695 88.3347L98.5095 86.8947ZM85.0189 98.4716L85 102.166C85 102.375 85.0758 102.583 85.2274 102.735C85.3789 102.886 85.5684 102.962 85.7768 102.962L89.4526 102.943C89.6611 102.943 89.8505 102.867 90.0021 102.716L102.697 90.0211C103 89.7179 103 89.2253 102.697 88.9032L99.0589 85.2274C98.7558 84.9242 98.2632 84.9242 97.9411 85.2274L95.4021 87.7853L85.2463 97.9221C85.1137 98.0739 85.0189 98.2633 85.0189 98.4716Z" fill="white"/>
</g>
<defs>
<filter id="filter0_d_6_1364" x="70" y="72" width="48" height="48" filterUnits="userSpaceOnUse" color-interpolation-filters="sRGB">
<feFlood flood-opacity="0" result="BackgroundImageFix"/>
<feColorMatrix in="SourceAlpha" type="matrix" values="0 0 0 0 0 0 0 0 0 0 0 0 0 0 0 0 0 0 127 0" result="hardAlpha"/>
<feOffset dy="2"/>
<feGaussianBlur stdDeviation="4"/>
<feColorMatrix type="matrix" values="0 0 0 0 0 0 0 0 0 0 0 0 0 0 0 0 0 0 0.2 0"/>
<feBlend mode="normal" in2="BackgroundImageFix" result="effect1_dropShadow_6_1364"/>
<feBlend mode="normal" in="SourceGraphic" in2="effect1_dropShadow_6_1364" result="shape"/>
</filter>
</defs>
</svg>
