<svg width="24" height="24" viewBox="0 0 24 24" fill="none" xmlns="http://www.w3.org/2000/svg">
<path fill-rule="evenodd" clip-rule="evenodd" d="M23.8965 12.4138C23.8965 6.01497 18.7092 0.827637 12.3103 0.827637C5.91146 0.827637 0.724121 6.01497 0.724121 12.4138C0.724121 18.8127 5.91146 24 12.3103 24C18.7092 24 23.8965 18.8127 23.8965 12.4138ZM17.8169 9.58989C18.377 9.52338 18.9111 9.37447 19.4076 9.1543C19.0365 9.70968 18.567 10.1973 18.0255 10.5877C18.0308 10.7062 18.0335 10.8258 18.0335 10.9458C18.0335 14.6058 15.2478 18.8257 10.1538 18.8257C8.58991 18.8257 7.13384 18.3674 5.90888 17.5814C6.12512 17.6072 6.34611 17.6202 6.56917 17.6202C7.86704 17.6202 9.06102 17.1776 10.009 16.4347C8.79686 16.4122 7.7743 15.6114 7.42196 14.5114C7.5909 14.5436 7.76418 14.5608 7.94304 14.5608C8.19522 14.5608 8.44038 14.5271 8.67253 14.4637C7.40585 14.2093 6.45083 13.09 6.45083 11.7482C6.45083 11.7366 6.45083 11.7248 6.45103 11.7131C6.82424 11.921 7.25156 12.0456 7.70532 12.0598C6.96262 11.5633 6.47334 10.7153 6.47334 9.7547C6.47334 9.24724 6.61007 8.77118 6.84841 8.36224C8.21443 10.0383 10.2552 11.1408 12.5568 11.2562C12.5093 11.0534 12.4848 10.8421 12.4848 10.625C12.4848 9.09585 13.725 7.85561 15.2542 7.85561C16.0512 7.85561 16.771 8.19185 17.2762 8.72987C17.9067 8.60575 18.4997 8.37546 19.0348 8.05802C18.8277 8.70509 18.3888 9.24724 17.8169 9.58989Z" fill="white"/>
</svg>
